<?xml version="1.0" encoding="UTF-8" standalone="no"?>
<!DOCTYPE svg PUBLIC "-//W3C//DTD SVG 1.1//EN" "http://www.w3.org/Graphics/SVG/1.1/DTD/svg11.dtd">
<svg width="100%" height="100%" viewBox="0 0 223 43" version="1.1" xmlns="http://www.w3.org/2000/svg" xmlns:xlink="http://www.w3.org/1999/xlink" xml:space="preserve" xmlns:serif="http://www.serif.com/" style="fill-rule:evenodd;clip-rule:evenodd;stroke-linejoin:round;stroke-miterlimit:2;">
    <g transform="matrix(1,0,0,1,-976,-651)">
        <g transform="matrix(1.76102,0,0,1.76102,1087.93,672.748)">
            <g transform="matrix(1,0,0,1,-63,-12)">
                <g id="logo">
                    <path d="M39.7,10.6L39.7,17.7L35.8,17.7L35.8,12.2C35.8,10 35,9.4 34,9.4C32.4,9.4 31.6,10.5 31.6,12.9L31.6,17.7L27.7,17.7L27.7,1.5L30.8,1.5C31.3,1.5 31.6,1.7 31.6,2.3L31.6,8L31.7,8C32.5,6.8 33.8,6.1 35.5,6.1C38.5,6.1 39.7,8.3 39.7,10.6ZM19,12.1C19,10.2 20.3,9 22.1,9C22.7,9 23.3,9.1 23.8,9.3C24,9.4 24,9.4 24.1,9.4L24.2,9.4C24.4,9.4 24.6,9.3 24.6,9L24.6,6.6C23.8,6.2 22.8,6 21.7,6C17.9,6 15.1,8.2 15.1,11.9C15.1,15.6 17.9,17.8 21.7,17.8C22.7,17.8 23.9,17.7 24.8,17.3L24.8,14.4C24.1,14.7 23.3,15 22.4,15C20.6,15.1 19,13.9 19,12.1ZM58.3,6.1C56.7,6.1 55.2,6.7 54.3,8.3C53.7,6.8 52.4,6.1 50.8,6.1C49.1,6.1 47.9,6.7 46.6,8C46.6,8 46.3,8.3 46.1,8.3C46,8.3 45.8,8.2 45.7,8.2L44.2,6.6C44.1,6.5 43.9,6.4 43.8,6.4C43.5,6.4 43.2,6.7 43.2,7L43.2,17.7L47,17.7L47,12.9C47,10.5 47.8,9.4 49.2,9.4C50.3,9.4 50.7,10.4 50.7,11.6L50.7,17.7L54.6,17.7L54.6,12.9C54.6,10.5 55.4,9.4 56.8,9.4C57.9,9.4 58.3,10.4 58.3,11.6L58.3,17.7L62.2,17.7L62.2,11C62.3,8 61.6,6.1 58.3,6.1ZM12.3,7.3L12.3,16.8C12.3,17.1 12,17.4 11.7,17.4C11.5,17.4 11.4,17.3 11.3,17.2L10.7,16.6C10.6,16.5 10.4,16.4 10.3,16.4C10.2,16.4 10,16.5 9.9,16.5C8.9,17.4 7.9,17.8 6.4,17.8C3.1,17.8 0.5,15.2 0.5,11.9C0.5,8.6 3.1,6 6.4,6C7.9,6 8.9,6.5 9.9,7.3C10,7.4 10.2,7.4 10.3,7.4C10.4,7.4 10.6,7.3 10.7,7.2L11.3,6.6C11.4,6.5 11.6,6.4 11.7,6.4C12,6.7 12.3,7 12.3,7.3ZM9.1,12.1C9.1,10.6 8,9.5 6.6,9.5C5.2,9.5 4.1,10.7 4.1,12.1C4.1,13.5 5.2,14.7 6.6,14.7C8,14.7 9.1,13.5 9.1,12.1ZM91.1,7.3L91.1,16.8C91.1,17.1 90.8,17.4 90.5,17.4C90.3,17.4 90.2,17.3 90.1,17.2L89.5,16.6C89.4,16.5 89.2,16.4 89.1,16.4C89,16.4 88.8,16.5 88.7,16.5C87.7,17.4 86.7,17.8 85.2,17.8C81.9,17.8 79.3,15.2 79.3,11.9C79.3,8.6 81.9,6 85.2,6C86.6,6 87.7,6.5 88.7,7.3C88.8,7.4 89,7.4 89.1,7.4C89.2,7.4 89.4,7.3 89.5,7.2L90,6.8C90.1,6.7 90.3,6.6 90.4,6.6C90.8,6.7 91.1,7 91.1,7.3ZM87.9,12.1C87.9,10.6 86.8,9.5 85.4,9.5C84,9.5 82.9,10.7 82.9,12.1C82.9,13.5 84,14.7 85.4,14.7C86.8,14.7 87.9,13.5 87.9,12.1ZM76.8,12.5L76.8,13.2L69,13.2C69.2,14.7 70.4,15.4 72.3,15.4C73.3,15.4 74.5,15.2 75.7,14.6L75.7,17.4C74.5,17.9 73,18.1 71.6,18.1C67.9,18.1 65.1,15.9 65.1,12.2C65.1,8.5 67.6,6.3 71.1,6.3C75.4,6.2 76.8,9.2 76.8,12.5ZM73.3,10.5C73.2,9.5 72.5,8.6 71.1,8.6C69.8,8.6 69.2,9.4 69,10.5C68.9,10.8 69.1,11 69.4,11L72.8,11C73.1,11 73.3,10.9 73.3,10.5ZM113.9,0.5C111.1,0.5 108.4,1.4 106.5,3.1C106.3,3.3 106,3.4 105.7,3.4C105.4,3.4 105.1,3.3 104.9,3.1L103.6,1.8C103.5,1.7 103.3,1.6 103,1.6C102.6,1.6 102.2,1.9 102.2,2.4L102.2,21.8C102.2,22.2 102.5,22.6 103,22.6C103.2,22.6 103.4,22.5 103.6,22.4L104.9,21.1C105.1,20.9 105.4,20.8 105.7,20.8C106,20.8 106.3,20.9 106.5,21.1C108.4,22.8 111.1,23.7 113.9,23.7C120.3,23.7 125.5,18.5 125.5,12.1C125.5,5.7 120.3,0.5 113.9,0.5ZM113.6,4.9C115.3,4.9 117,5.5 118.2,6.6C118.3,6.7 118.5,6.8 118.7,6.8C118.9,6.8 119.1,6.7 119.2,6.6L120,5.8C120.1,5.7 120.2,5.7 120.3,5.7C120.6,5.7 120.8,5.9 120.8,6.2L120.8,18.2C120.8,18.5 120.6,18.7 120.3,18.7C120.2,18.7 120,18.6 120,18.6L119.2,17.8C119.1,17.7 118.9,17.6 118.7,17.6C118.5,17.6 118.4,17.7 118.2,17.8C117,18.9 115.4,19.5 113.6,19.5C109.6,19.5 106.4,16.3 106.4,12.3C106.3,8.1 109.6,4.9 113.6,4.9ZM113.7,15.2C115.3,15.2 116.6,13.8 116.6,12.1C116.6,10.4 115.3,9 113.7,9C112.1,9 110.8,10.4 110.8,12.1C110.8,13.8 112.1,15.2 113.7,15.2Z" style="fill:rgb(204,0,0);fill-rule:nonzero;"/>
                </g>
            </g>
        </g>
    </g>
</svg>
