<?xml version="1.0" encoding="UTF-8" standalone="no"?>
<!DOCTYPE svg PUBLIC "-//W3C//DTD SVG 1.1//EN" "http://www.w3.org/Graphics/SVG/1.1/DTD/svg11.dtd">
<svg width="100%" height="100%" viewBox="0 0 120 45" version="1.1" xmlns="http://www.w3.org/2000/svg" xmlns:xlink="http://www.w3.org/1999/xlink" xml:space="preserve" xmlns:serif="http://www.serif.com/" style="fill-rule:evenodd;clip-rule:evenodd;stroke-linejoin:round;stroke-miterlimit:2;">
    <g transform="matrix(1,0,0,1,-210,-532)">
        <g transform="matrix(0.191026,0,0,0.191026,269.805,554.26)">
            <g transform="matrix(1,0,0,1,-311.3,-116.25)">
                <path d="M169.8,232.5L113.2,232.5L84.9,116.2L141.5,116.2L169.8,232.5Z" style="fill:rgb(240,32,2);fill-rule:nonzero;"/>
                <path d="M141.5,116.2L84.9,116.2L113.2,0L169.8,0L141.5,116.2Z" style="fill:rgb(222,48,14);fill-rule:nonzero;"/>
                <rect x="226.4" y="174.4" width="56.6" height="58.1" style="fill:rgb(50,177,76);fill-rule:nonzero;"/>
                <rect x="283" y="174.4" width="56.6" height="58.1" style="fill:rgb(222,48,14);fill-rule:nonzero;"/>
                <rect x="452.8" y="0" width="56.6" height="232.5" style="fill:rgb(76,176,242);fill-rule:nonzero;"/>
                <rect x="0" y="0" width="56.6" height="232.5" style="fill:rgb(244,136,0);fill-rule:nonzero;"/>
                <rect x="0" y="116.2" width="56.6" height="116.2" style="fill:rgb(211,100,0);fill-rule:nonzero;"/>
                <rect x="283" y="174.4" width="56.6" height="58.1" style="fill:rgb(158,22,2);fill-rule:nonzero;"/>
                <path d="M169.8,0L113.2,0L84.9,116.2L141.5,116.2L169.8,0Z" style="fill:rgb(159,17,1);fill-rule:nonzero;"/>
                <path d="M622.6,232.5L566,232.5L537.7,116.2L594.3,116.2L622.6,232.5Z" style="fill:rgb(150,135,188);fill-rule:nonzero;"/>
                <path d="M622.6,232.5L566,232.5L537.7,116.2L594.3,116.2L622.6,232.5Z" style="fill:rgb(105,75,159);fill-rule:nonzero;"/>
                <path d="M594.3,116.2L537.7,116.2L566,0L622.6,0L594.3,116.2Z" style="fill:rgb(137,115,179);fill-rule:nonzero;"/>
                <rect x="226.4" y="0" width="56.6" height="116.2" style="fill:rgb(36,134,57);fill-rule:nonzero;"/>
                <path d="M396.2,178.2L339.6,232.5L339.6,0L396.2,0L396.2,178.2Z" style="fill:rgb(255,156,27);fill-rule:nonzero;"/>
                <rect x="452.8" y="0" width="56.6" height="116.2" style="fill:rgb(49,113,174);fill-rule:nonzero;"/>
            </g>
        </g>
    </g>
</svg>
