<?xml version="1.0" encoding="UTF-8" standalone="no"?>
<!DOCTYPE svg PUBLIC "-//W3C//DTD SVG 1.1//EN" "http://www.w3.org/Graphics/SVG/1.1/DTD/svg11.dtd">
<svg width="100%" height="100%" viewBox="0 0 78 79" version="1.1" xmlns="http://www.w3.org/2000/svg" xmlns:xlink="http://www.w3.org/1999/xlink" xml:space="preserve" xmlns:serif="http://www.serif.com/" style="fill-rule:evenodd;clip-rule:evenodd;stroke-linejoin:round;stroke-miterlimit:2;">
    <g transform="matrix(1,0,0,1,-394,-521)">
        <g transform="matrix(0.282606,0,0,0.282606,433.048,560.803)">
            <g transform="matrix(1,0,0,1,-137.5,-137.494)">
                <g transform="matrix(3.2065,0,0,-3.2065,-94.9808,337.459)">
                    <g id="Ebene-1" serif:id="Ebene 1">
                        <g id="NPO_Logo_Icon_CMYK">
                            <g id="g2995">
                                <g id="g2997">
                                    <g id="g3003" transform="matrix(1,0,0,1,79.0234,92.4277)">
                                        <path id="path3005" d="M0,0L-2.542,2.536C-5.06,5.06 -8.093,5.104 -10.921,2.274L-12.935,0.258C-15.767,-2.571 -15.72,-5.599 -13.201,-8.122L-10.659,-10.657C-8.139,-13.187 -5.107,-13.23 -2.279,-10.401L-0.266,-8.383C2.566,-5.554 2.521,-2.524 0,0M-12.734,-12.734L-15.28,-10.2C-17.8,-7.677 -20.829,-7.63 -23.657,-10.462L-25.673,-12.479C-28.503,-15.306 -28.459,-18.332 -25.938,-20.858L-17.785,-29.007C-16.843,-29.944 -15.783,-29.807 -15.06,-29.084C-14.336,-28.36 -14.214,-27.319 -15.153,-26.376L-17.029,-24.505C-16.519,-24.397 -15.891,-24.008 -15.152,-23.271L-13,-21.116C-10.166,-18.288 -10.215,-15.261 -12.734,-12.734M-22.842,-28.562L-28.242,-23.165C-30.765,-20.642 -33.791,-20.595 -36.623,-23.425L-38.639,-25.438C-41.469,-28.268 -41.424,-31.298 -38.9,-33.821L-33.504,-39.224C-32.56,-40.164 -31.504,-40.023 -30.779,-39.304C-30.058,-38.577 -29.933,-37.528 -30.876,-36.593L-36.226,-31.237C-37.24,-30.226 -37.209,-29.271 -36.069,-28.133L-33.931,-25.996C-32.795,-24.856 -31.838,-24.823 -30.825,-25.841L-25.474,-31.19C-24.537,-32.133 -23.489,-32.007 -22.766,-31.285C-22.041,-30.56 -21.902,-29.503 -22.842,-28.562M32.274,-35.368L-1.217,-68.856C-4.588,-72.229 -8.456,-72.229 -11.825,-68.856L-45.313,-35.37C-48.686,-31.998 -48.686,-28.133 -45.313,-24.761L-11.824,8.724C-8.451,12.099 -4.587,12.099 -1.217,8.724L32.271,-24.761C35.645,-28.13 35.645,-31.997 32.274,-35.368M-5.121,-0.138C-6.139,0.877 -7.092,0.847 -8.229,-0.294L-10.368,-2.433C-11.504,-3.568 -11.537,-4.524 -10.519,-5.536L-8.076,-7.983C-7.06,-9.001 -6.109,-8.97 -4.968,-7.829L-2.83,-5.69C-1.696,-4.556 -1.663,-3.597 -2.677,-2.586L-5.121,-0.138ZM-15.413,-15.322C-14.399,-16.335 -14.431,-17.292 -15.569,-18.426L-17.706,-20.565C-18.848,-21.704 -19.795,-21.735 -20.812,-20.718L-23.258,-18.271C-24.273,-17.259 -24.244,-16.303 -23.107,-15.167L-20.971,-13.028C-19.828,-11.888 -18.876,-11.86 -17.859,-12.874L-15.413,-15.322Z" style="fill:rgb(246,135,18);fill-rule:nonzero;"/>
                                    </g>
                                    <g id="g3007" transform="matrix(1,0,0,1,63.6104,77.1055)">
                                        <path id="path3009" d="M0,0L-2.446,2.448C-3.463,3.462 -4.415,3.435 -5.558,2.294L-7.694,0.155C-8.831,-0.98 -8.86,-1.937 -7.845,-2.948L-5.399,-5.396C-4.382,-6.413 -3.435,-6.382 -2.293,-5.243L-0.156,-3.104C0.982,-1.97 1.014,-1.013 0,0M2.679,2.588C5.198,0.062 5.247,-2.966 2.413,-5.794L0.261,-7.949C-0.478,-8.686 -1.106,-9.075 -1.616,-9.183L0.26,-11.054C1.199,-11.997 1.077,-13.038 0.354,-13.762C-0.37,-14.484 -1.43,-14.622 -2.372,-13.685L-10.525,-5.536C-13.046,-3.01 -13.09,0.017 -10.26,2.844L-8.244,4.86C-5.416,7.692 -2.387,7.646 0.133,5.122L2.679,2.588ZM12.736,12.736L10.292,15.185C9.274,16.199 8.321,16.169 7.184,15.028L5.045,12.89C3.909,11.754 3.876,10.798 4.895,9.786L7.337,7.339C8.354,6.321 9.304,6.353 10.445,7.493L12.583,9.632C13.717,10.767 13.75,11.726 12.736,12.736M15.413,15.322C17.934,12.798 17.979,9.769 15.147,6.939L13.134,4.921C10.306,2.092 7.274,2.136 4.754,4.665L2.212,7.2C-0.307,9.724 -0.354,12.751 2.479,15.58L4.492,17.597C7.32,20.427 10.354,20.382 12.871,17.858L15.413,15.322ZM-7.429,-13.239C-6.489,-14.181 -6.627,-15.237 -7.353,-15.963C-8.076,-16.685 -9.124,-16.811 -10.061,-15.868L-15.412,-10.519C-16.425,-9.501 -17.382,-9.534 -18.518,-10.674L-20.656,-12.811C-21.796,-13.948 -21.827,-14.903 -20.813,-15.915L-15.463,-21.271C-14.52,-22.206 -14.645,-23.255 -15.366,-23.981C-16.091,-24.701 -17.146,-24.842 -18.091,-23.901L-23.487,-18.499C-26.011,-15.976 -26.056,-12.945 -23.226,-10.115L-21.209,-8.103C-18.377,-5.272 -15.352,-5.319 -12.829,-7.843L-7.429,-13.239Z" style="fill:white;fill-rule:nonzero;"/>
                                    </g>
                                </g>
                            </g>
                        </g>
                    </g>
                </g>
            </g>
        </g>
    </g>
</svg>
