<?xml version="1.0" encoding="UTF-8" standalone="no"?>
<!DOCTYPE svg PUBLIC "-//W3C//DTD SVG 1.1//EN" "http://www.w3.org/Graphics/SVG/1.1/DTD/svg11.dtd">
<svg width="100%" height="100%" viewBox="0 0 173 42" version="1.1" xmlns="http://www.w3.org/2000/svg" xmlns:xlink="http://www.w3.org/1999/xlink" xml:space="preserve" xmlns:serif="http://www.serif.com/" style="fill-rule:evenodd;clip-rule:evenodd;stroke-linejoin:round;stroke-miterlimit:2;">
    <g transform="matrix(1,0,0,1,-573,-660)">
        <g transform="matrix(1.03463,0,0,1.03463,659.604,681.196)">
            <g transform="matrix(1,0,0,1,-83.25,-19.875)">
                <g>
                    <path d="M98.881,32.733L98.268,30.448L97.741,28.339L97.038,26.145L96.95,25.442L96.598,24.472L96.425,23.95L97.568,23.596L98.62,23.244L99.587,22.806L100.29,22.277L100.993,21.576L101.52,20.873L102.045,20.167L102.397,19.376L102.663,18.5L103.015,17.621L103.103,16.83L103.103,15.16L102.927,14.193L102.663,13.317L102.311,12.435L101.784,11.559L101.169,10.768L99.587,9.362L98.62,8.837L97.477,8.483L96.247,8.219L94.756,8.046L79.643,8.046L79.467,9.186L79.203,10.414L78.939,11.472L78.675,12.702L81.486,12.702L80.961,14.808L80.522,17.005L79.467,21.398L83.334,21.398L83.156,22.277L82.982,23.068L82.716,23.949L82.542,24.823L78.675,24.823L78.236,26.844L77.884,28.778L77.357,30.712L76.918,32.733L74.021,32.733L73.754,33.873L73.493,34.928L73.229,36.158L72.877,37.213L87.283,37.213L87.55,36.158L87.814,34.928L88.163,33.873L88.427,32.733L84.211,32.733L84.738,30.539L85.09,28.427L85.705,26.318L86.144,24.299L90.187,24.299L90.975,27.636L91.766,30.712L92.557,34.049L93.436,37.213L102.31,37.213L102.484,36.158L102.836,34.928L103.102,33.873L103.366,32.733L98.881,32.733ZM90.097,20.519L86.933,20.519L87.375,18.673L87.814,16.654L88.426,14.635L88.865,12.701L92.644,12.701L93.081,12.786L93.611,12.786L93.963,12.965L94.312,13.226L94.664,13.493L94.931,13.757L95.195,14.106L95.371,14.458L95.456,14.985L95.547,15.427L95.547,16.83L95.371,17.533L95.195,18.148L94.492,19.203L93.438,19.907L92.911,20.168L92.208,20.347L91.593,20.435L90.89,20.52L90.097,20.52" style="fill:rgb(182,32,37);fill-rule:nonzero;"/>
                    <path d="M70.508,21.398L73.493,21.398L73.314,19.906L72.965,18.585L72.438,17.269L71.738,16.129L71.032,15.247L70.156,14.368L69.186,13.577L68.046,13.05L66.903,12.613L65.585,12.174L64.267,12.086L62.863,11.995L61.633,12.086L60.403,12.174L59.085,12.526L57.942,12.965L56.887,13.489L55.835,14.195L54.956,15.071L54.165,16.129L53.462,17.181L52.935,18.411L52.583,19.818L52.409,21.398L56.274,21.398L56.007,22.277L55.834,23.156L55.658,24.035L55.482,24.826L52.582,24.826L52.934,26.144L53.286,27.374L53.901,28.426L54.604,29.305L55.307,30.272L56.186,30.975L57.062,31.675L58.208,32.293L59.26,32.732L60.403,32.996L61.633,33.172L62.863,33.257L64.267,33.172L65.497,32.996L66.725,32.644L67.783,32.205L68.747,31.59L69.805,30.884L70.596,30.184L71.296,29.217L71.911,28.341L72.526,27.198L72.965,26.143L73.314,24.825L69.713,24.825L69.889,24.034L70.068,23.155L70.329,22.276L70.508,21.398ZM62.863,28.251L62.248,28.163L61.718,28.078L61.281,27.899L60.842,27.638L60.403,27.199L60.051,26.76L59.699,26.23L59.523,25.706L59.171,25.003L58.995,23.597L58.907,22.718L59.083,20.96L59.171,20.26L59.347,19.642L59.699,18.939L60.051,18.414L60.403,18.148L60.755,17.711L61.107,17.359L61.719,17.183L62.249,17.095L62.864,16.922L63.567,17.095L64.092,17.183L64.619,17.359L65.058,17.623L65.497,17.975L65.849,18.414L66.113,18.939L66.374,19.557L66.641,20.169L66.726,20.872L66.905,21.751L66.905,23.506L66.726,24.212L66.641,24.915L66.374,25.706L65.85,26.76L65.498,27.199L65.059,27.638L64.62,27.899L64.093,28.078L63.568,28.163L62.863,28.251" style="fill:rgb(182,32,37);fill-rule:nonzero;"/>
                    <path d="M21.831,3.476L6.634,3.476L6.282,4.794L6.018,6.024L5.667,7.253L5.403,8.571L9.27,8.571L9.27,21.486L12.871,21.486L12.607,22.277L12.431,23.156L12.167,23.947L12.079,24.914L9.269,24.914L9.269,27.811L6.546,27.811L6.018,30.271L5.666,31.501L5.402,32.731L19.9,32.731L20.249,31.501L20.516,30.271L20.78,29.041L21.041,27.811L16.474,27.811L16.474,22.189L21.132,22.189L22.89,22.101L24.381,21.749L25.787,21.397L26.93,20.696L28.07,19.993L28.861,19.202L29.652,18.235L30.179,17.18L30.531,16.128L30.97,14.985L31.146,13.927L31.146,12.784L31.061,11.644L30.883,10.589L30.442,9.45L30.003,8.398L29.478,7.341L28.772,6.465L27.896,5.674L26.839,4.968L25.787,4.355L24.644,3.916L23.24,3.652L21.831,3.476ZM18.494,17.182L16.473,17.182L16.473,8.572L19.989,8.572L21.04,8.75L21.567,9.011L22.006,9.363L22.358,9.627L22.71,10.066L23.062,10.593L23.241,11.117L23.414,11.647L23.502,12.174L23.59,12.965L23.59,13.489L23.414,14.195L23.329,14.807L23.062,15.337L22.798,15.774L22.359,16.128L21.832,16.389L21.48,16.653L20.78,16.92L20.25,17.005L19.374,17.181L18.494,17.181" style="fill:rgb(182,32,37);fill-rule:nonzero;"/>
                    <path d="M51.089,12.175L49.155,12.175L48.278,12.348L47.573,12.438L46.872,12.787L46.257,13.139L45.554,13.578L45.026,14.108L44.499,14.721L44.06,15.336L43.623,15.951L43.271,16.83L42.917,17.619L42.744,17.619L42.744,12.438L34.834,12.438L34.485,13.669L34.222,14.812L33.87,15.951L33.694,17.182L37.034,17.182L37.034,21.488L40.723,21.488L40.547,22.277L40.371,23.156L40.107,24.035L39.932,24.914L37.034,24.914L37.034,28.163L34.395,28.163L34.043,29.303L33.87,30.445L33.519,31.588L33.252,32.73L46.784,32.73L47.048,31.588L47.312,30.445L47.573,29.303L47.839,28.163L43.532,28.163L43.532,24.914L43.708,24.035L43.884,22.98L44.147,22.191L44.499,21.4L44.938,20.61L45.554,19.907L46.081,19.379L46.608,18.94L47.222,18.676L48.013,18.324L49.333,18.324L49.772,16.83L50.122,15.251L50.562,13.669L51.089,12.175Z" style="fill:rgb(182,32,37);fill-rule:nonzero;"/>
                    <path d="M124.625,21.486L124.364,20.61L124.012,19.904L123.482,19.201L122.955,18.676L122.343,18.149L121.552,17.71L120.849,17.358L119.97,16.919L119.003,16.831L117.948,16.655L116.718,16.479L113.82,16.479L113.29,16.655L112.326,16.655L111.799,16.831L111.36,16.919L110.923,17.007L110.569,17.183L110.132,17.359L109.778,17.447L109.778,17.62L109.866,17.972L109.866,18.15L110.133,18.942L110.306,19.733L110.485,20.433L110.57,20.872L110.658,21.224L110.749,21.664L110.749,21.754L110.834,21.928L110.834,22.016L111.361,21.664L111.8,21.488L111.976,21.224L112.328,21.051L112.592,20.96L112.944,20.872L113.208,20.872L113.56,20.696L113.824,20.611L115.142,20.611L115.667,20.696L116.548,21.05L116.987,21.401L117.339,21.663L117.689,21.927L117.953,22.366L118.041,22.718L118.217,23.157L118.393,23.684L118.393,24.827L117.954,24.736L117.429,24.651L117.077,24.563L116.723,24.475L116.459,24.387L115.846,24.387L115.407,24.296L114.264,24.296L113.825,24.387L112.595,24.475L111.54,24.651L110.573,25L109.782,25.439L108.994,25.969L108.2,26.669L107.588,27.372L107.149,28.163L106.707,29.042L106.446,29.921L106.267,30.888L106.267,32.731L106.446,33.61L106.7,34.4L107.054,34.93L107.491,35.63L108.021,36.069L108.548,36.508L109.339,36.947L110.13,37.123L110.921,37.475L111.885,37.475L112.94,37.651L113.467,37.651L113.906,37.475L114.783,37.475L115.312,37.211L115.662,37.123L116.191,36.947L116.543,36.771L116.982,36.507L117.421,36.419L117.946,35.98L118.385,35.716L118.385,37.21L127.959,37.21L128.226,36.158L128.49,34.928L128.751,33.785L129.018,32.555L124.887,32.555L124.887,24.911L121.02,24.911L121.372,24.12L121.551,23.153L121.812,22.274L121.991,21.483L124.625,21.483L124.625,21.486ZM118.388,31.415L117.949,31.767L117.685,32.206L117.246,32.379L116.894,32.731L116.193,33.083L115.929,33.259L115.663,33.35L115.313,33.438L114.961,33.523L113.906,33.523L113.554,33.438L113.202,33.35L112.848,33.259L112.496,32.998L112.147,32.731L111.883,32.467L111.795,32.206L111.531,31.939L111.443,31.587L111.355,31.238L111.355,30.447L111.443,30.183L111.531,29.831L111.795,29.655L111.971,29.303L112.147,29.039L112.586,28.863L112.938,28.687L113.287,28.423L113.729,28.423L114.168,28.338L115.398,28.338L115.66,28.423L116.363,28.423L116.629,28.599L116.981,28.687L117.243,28.863L117.682,29.039L117.946,29.215L118.385,29.391L118.385,31.415" style="fill:rgb(182,32,37);fill-rule:nonzero;"/>
                    <path d="M137.716,14.721L138.595,14.721L139.125,14.636L139.562,14.457L139.998,14.196L140.353,13.93L140.704,13.666L141.056,13.317L141.229,12.966L141.407,12.436L141.671,12.084L141.759,11.56L141.759,10.681L141.671,10.153L141.407,9.714L141.229,9.362L141.056,8.923L140.704,8.659L140.353,8.22L139.998,8.046L139.562,7.956L139.125,7.695L137.279,7.695L136.84,7.956L136.399,8.046L136.048,8.22L135.696,8.659L135.343,8.923L135.081,9.362L134.991,9.714L134.817,10.153L134.729,10.681L134.64,11.12L134.729,11.56L134.817,12.084L134.991,12.436L135.081,12.966L135.343,13.317L135.696,13.666L136.048,13.93L136.399,14.196L136.84,14.457L137.279,14.636L137.716,14.721Z" style="fill:rgb(182,32,37);fill-rule:nonzero;"/>
                    <path d="M141.319,32.558L141.319,16.918L132.972,16.918L132.887,18.058L132.535,19.201L132.269,20.343L132.005,21.486L138.858,21.486L138.771,22.277L138.419,23.156L138.334,24.123L138.067,24.914L134.817,24.914L134.817,32.558L132.972,32.558L132.708,33.788L132.181,36.07L131.917,37.213L144.568,37.213L144.923,36.07L145.096,34.931L145.274,33.788L145.623,32.558L141.319,32.558Z" style="fill:rgb(182,32,37);fill-rule:nonzero;"/>
                    <path d="M158.187,32.643L158.187,8.308L149.752,8.308L149.225,10.59L148.963,11.647L148.699,12.79L151.686,12.79L151.686,21.486L155.553,21.486L155.377,22.365L155.11,23.156L154.938,24.12L154.671,24.911L151.686,24.911L151.686,32.643L149.752,32.643L149.402,33.788L149.225,35.016L148.963,36.158L148.699,37.213L161.087,37.213L161.438,36.158L161.611,35.016L161.963,33.788L162.142,32.643L158.187,32.643Z" style="fill:rgb(182,32,37);fill-rule:nonzero;"/>
                </g>
            </g>
        </g>
    </g>
</svg>
