<?xml version="1.0" encoding="UTF-8" standalone="no"?>
<!DOCTYPE svg PUBLIC "-//W3C//DTD SVG 1.1//EN" "http://www.w3.org/Graphics/SVG/1.1/DTD/svg11.dtd">
<svg width="100%" height="100%" viewBox="0 0 72 46" version="1.1" xmlns="http://www.w3.org/2000/svg" xmlns:xlink="http://www.w3.org/1999/xlink" xml:space="preserve" xmlns:serif="http://www.serif.com/" style="fill-rule:evenodd;clip-rule:evenodd;stroke-linejoin:round;stroke-miterlimit:2;">
    <g transform="matrix(1,0,0,1,-81,-532)">
        <g transform="matrix(0.140078,0,0,0.148985,116.626,554.691)">
            <g transform="matrix(1,0,0,1,-253.407,-151.947)">
                <clipPath id="_clip1">
                    <rect x="0" y="0" width="506.813" height="303.893"/>
                </clipPath>
                <g clip-path="url(#_clip1)">
                    <g transform="matrix(0.133333,0,0,-0.133333,0,303.893)">
                        <g id="g10">
                            <g id="g12">
                                <path id="path14" d="M383.91,1391.07C221.664,1468.23 68.383,1541.09 5.551,1662.96L0,1673.7L0,1053.48L1.719,1052.73C48.047,1031.81 96.168,1012.3 138.645,995.078C176.832,980.262 212.574,965.48 244.91,951.078C335.289,911.988 436.711,862.102 503.574,788.262C565.797,724.488 594.48,653.891 593.871,565.871C593.207,463.93 559.941,381.898 495.051,322.07C409.789,243.43 273.043,207.469 99.629,218.148C67.945,220.078 35.609,224.52 3.555,231.25L0,232.031L0,3.969L2.699,3.789C34.301,1.25 66.129,0 97.262,0C347.945,0 562.086,69.148 716.531,199.961C870.375,330.23 951.711,510.262 951.711,720.461C951.711,1121.03 650.043,1264.48 383.91,1391.07" style="fill:rgb(37,75,158);fill-rule:nonzero;"/>
                                <path id="path16" d="M306.133,2076.51L334.105,2075.81C389.109,2073.99 445.328,2063.44 501.121,2044.43C610.27,2007.29 702.887,1945.2 761.957,1869.55L765.391,1865.21L791.363,1946.57C811.465,2009.67 827.301,2059.53 848.723,2119.71L849.418,2121.68L847.773,2122.96C714.902,2226.6 536.98,2279.16 318.969,2279.16C206.27,2279.16 99.57,2258.78 1.797,2218.58L0,2217.86L0,1903.52L5.527,1913.78C59.523,2014.16 174.691,2076.51 306.133,2076.51" style="fill:rgb(37,75,158);fill-rule:nonzero;"/>
                                <path id="path18" d="M3649.04,266.59C3566.88,226.719 3461.63,210.379 3336.2,218.121C3138.73,230.25 2967.23,332.41 2884.87,428.219L2881.08,432.602L2859.73,341.172C2859.61,340.539 2857.56,331.02 2813.65,140.07L2813.22,138.262L2814.72,137.109C2899.15,73.871 3085.7,0 3333.84,0C3507.65,0 3668.66,34.871 3801.12,100.719L3801.12,419.469C3771.69,352.711 3720.7,301.398 3649.04,266.59" style="fill:rgb(37,75,158);fill-rule:nonzero;"/>
                                <path id="path20" d="M3555.52,2279.16C3359.92,2279.16 3179.97,2216.58 3048.75,2103.02C2905.37,1978.93 2829.61,1803.88 2829.61,1596.8C2829.61,1427.11 2886.61,1295.27 3003.8,1193.72C3107.87,1103.55 3243.79,1048.38 3375.2,995.078C3413.38,980.301 3449.15,965.48 3481.44,951.078C3571.86,911.988 3673.26,862.102 3740.14,788.262L3740.26,788.172C3766.47,761.25 3786.58,733.309 3801.12,703.5L3801.12,1300.61C3741.76,1333.33 3680.15,1362.64 3620.48,1391.04C3400.97,1495.41 3211.45,1585.51 3211.45,1793.64C3211.45,1952.25 3356.94,2076.51 3542.68,2076.51L3570.67,2075.81C3625.69,2073.99 3681.88,2063.44 3737.71,2044.43C3759.26,2037.11 3780.51,2028.55 3801.12,2019.08L3801.12,2252.83C3725.8,2270.22 3643.33,2279.16 3555.52,2279.16" style="fill:rgb(37,75,158);fill-rule:nonzero;"/>
                                <path id="path22" d="M1841.14,256.891C1733.2,256.891 1656.99,269.641 1587.15,298.191L1587.15,1082.42L1710.95,1085.61C2123.72,1095.12 2285.64,945.93 2285.64,644.289C2285.64,361.648 2101.5,256.891 1841.14,256.891M1587.15,1990.49C1660.17,2015.9 1733.2,2028.61 1828.45,2028.61C2091.96,2028.61 2228.51,1907.96 2228.51,1666.64C2228.51,1403.11 2098.3,1269.76 1710.95,1279.3L1587.15,1282.44L1587.15,1990.49ZM2209.44,1190.41L2209.44,1196.73C2393.63,1238 2615.87,1393.6 2615.87,1692.05C2615.87,2015.9 2355.51,2257.21 1828.45,2257.21C1564.92,2257.21 1339.48,2206.4 1206.12,2133.37L1206.12,133.078C1355.37,53.711 1577.6,9.262 1853.82,9.262C2352.33,9.262 2688.91,202.961 2688.91,637.922C2688.91,955.422 2409.46,1145.92 2209.44,1190.41" style="fill:rgb(37,75,158);fill-rule:nonzero;"/>
                            </g>
                        </g>
                    </g>
                </g>
            </g>
        </g>
    </g>
</svg>
