<?xml version="1.0" encoding="UTF-8" standalone="no"?>
<!DOCTYPE svg PUBLIC "-//W3C//DTD SVG 1.1//EN" "http://www.w3.org/Graphics/SVG/1.1/DTD/svg11.dtd">
<svg width="100%" height="100%" viewBox="0 0 89 89" version="1.1" xmlns="http://www.w3.org/2000/svg" xmlns:xlink="http://www.w3.org/1999/xlink" xml:space="preserve" style="fill-rule:evenodd;clip-rule:evenodd;stroke-linejoin:round;stroke-miterlimit:2;">
    <g transform="matrix(1,0,0,1,-2384,-2027)">
        <g transform="matrix(0.668583,-0.00106172,0.00106172,0.668583,951.341,1090.04)">
            <path d="M2206.72,1405.01C2243.26,1405.01 2272.91,1434.67 2272.91,1471.2C2272.91,1507.74 2243.26,1537.39 2206.72,1537.39C2170.19,1537.39 2140.53,1507.74 2140.53,1471.2C2140.53,1434.67 2170.19,1405.01 2206.72,1405.01ZM2206.72,1438.11C2224.99,1438.11 2239.82,1452.94 2239.82,1471.2C2239.82,1489.47 2224.99,1504.3 2206.72,1504.3C2188.46,1504.3 2173.63,1489.47 2173.63,1471.2C2173.63,1452.94 2188.46,1438.11 2206.72,1438.11Z" style="fill:rgb(255,5,0);"/>
        </g>
    </g>
</svg>
