<?xml version="1.0" encoding="UTF-8" standalone="no"?>
<!DOCTYPE svg PUBLIC "-//W3C//DTD SVG 1.1//EN" "http://www.w3.org/Graphics/SVG/1.1/DTD/svg11.dtd">
<svg width="100%" height="100%" viewBox="0 0 999 218" version="1.1" xmlns="http://www.w3.org/2000/svg" xmlns:xlink="http://www.w3.org/1999/xlink" xml:space="preserve" xmlns:serif="http://www.serif.com/" style="fill-rule:evenodd;clip-rule:evenodd;stroke-linejoin:round;stroke-miterlimit:2;">
    <g transform="matrix(1,0,0,1,-122.753,-2032.04)">
        <g>
            <g transform="matrix(0.999999,-0.00158801,0.00158801,0.999999,-1368.93,1490.5)">
                <g transform="matrix(300,0,0,300,1461.69,761.227)">
                    <path d="M0.129,-0c-0.022,-0 -0.032,-0.011 -0.032,-0.032l0,-0.592c0,-0.021 0.01,-0.031 0.032,-0.031l0.233,-0c0.059,-0 0.103,0.015 0.134,0.045c0.03,0.03 0.045,0.075 0.045,0.133l0,0.03c0,0.058 -0.015,0.102 -0.046,0.133c-0.03,0.03 -0.074,0.045 -0.133,0.045l-0.202,0l-0,0.237c-0,0.021 -0.011,0.032 -0.032,0.032Zm0.032,-0.332l0.202,0c0.041,0 0.071,-0.009 0.089,-0.027c0.018,-0.018 0.027,-0.047 0.027,-0.088l-0,-0.03c-0,-0.041 -0.009,-0.07 -0.027,-0.088c-0.018,-0.018 -0.048,-0.028 -0.089,-0.028l-0.202,0l-0,0.261Z" style="fill-rule:nonzero;"/>
                </g>
                <g transform="matrix(300,0,0,300,1627.74,761.227)">
                    <path d="M0.129,-0c-0.022,-0 -0.032,-0.011 -0.032,-0.032l0,-0.421c0,-0.021 0.01,-0.031 0.032,-0.031c0.02,0 0.031,0.01 0.031,0.031l0,0.422c0,0.02 -0.011,0.031 -0.032,0.031Zm-0.012,-0.572c-0.026,0 -0.038,-0.013 -0.038,-0.039l-0,-0.026c-0,-0.025 0.012,-0.038 0.038,-0.038l0.025,0c0.025,0 0.038,0.013 0.038,0.038l-0,0.026c-0,0.026 -0.013,0.039 -0.038,0.039l-0.025,0Z" style="fill-rule:nonzero;"/>
                </g>
                <g transform="matrix(300,0,0,300,1697.49,761.227)">
                    <path d="M0.064,-0.008c-0.017,-0.013 -0.019,-0.028 -0.006,-0.045l0.154,-0.202l-0.138,-0.177c-0.012,-0.016 -0.011,-0.031 0.006,-0.044c0.017,-0.013 0.031,-0.011 0.044,0.005l0.133,0.171l0.135,-0.171c0.013,-0.017 0.027,-0.019 0.044,-0.005c0.017,0.013 0.019,0.027 0.006,0.044l-0.147,0.183l0.152,0.197c0.013,0.016 0.012,0.031 -0.005,0.043c-0.016,0.014 -0.031,0.012 -0.044,-0.005l-0.146,-0.189l-0.145,0.188c-0.012,0.017 -0.027,0.02 -0.044,0.007Z" style="fill-rule:nonzero;"/>
                </g>
                <g transform="matrix(300,0,0,300,1842.39,761.227)">
                    <path d="M0.143,-0.217l0,0.033c0,0.045 0.009,0.077 0.027,0.095c0.018,0.017 0.05,0.026 0.096,0.026l0.082,0c0.039,0 0.068,-0.005 0.086,-0.014c0.018,-0.009 0.029,-0.025 0.033,-0.049c0.003,-0.01 0.006,-0.017 0.011,-0.022c0.005,-0.005 0.013,-0.008 0.023,-0.008c0.01,0.001 0.018,0.003 0.024,0.009c0.005,0.005 0.007,0.013 0.005,0.024c-0.005,0.042 -0.023,0.073 -0.053,0.093c-0.03,0.02 -0.073,0.03 -0.13,0.03l-0.082,-0c-0.063,-0 -0.11,-0.015 -0.14,-0.045c-0.03,-0.03 -0.045,-0.077 -0.045,-0.14l-0,-0.113c-0,-0.065 0.015,-0.112 0.045,-0.142c0.03,-0.03 0.077,-0.045 0.14,-0.044l0.082,0c0.064,0 0.111,0.015 0.141,0.045c0.03,0.03 0.045,0.077 0.045,0.141l-0,0.049c-0,0.021 -0.011,0.032 -0.032,0.032l-0.358,0Zm0.122,-0.204c-0.046,-0.001 -0.077,0.008 -0.095,0.026c-0.018,0.017 -0.027,0.05 -0.027,0.097l-0,0.018l0.327,0l-0,-0.018c-0,-0.047 -0.009,-0.079 -0.027,-0.096c-0.017,-0.018 -0.049,-0.027 -0.096,-0.027l-0.082,0Z" style="fill-rule:nonzero;"/>
                </g>
                <g transform="matrix(300,0,0,300,2018.94,761.227)">
                    <path d="M0.243,-0c-0.053,-0 -0.093,-0.013 -0.118,-0.038c-0.025,-0.025 -0.038,-0.065 -0.038,-0.117c0,-0.054 0.013,-0.093 0.038,-0.119c0.025,-0.025 0.065,-0.037 0.117,-0.037l0.223,-0.001c-0.001,-0.041 -0.011,-0.069 -0.029,-0.085c-0.018,-0.016 -0.049,-0.024 -0.093,-0.024l-0.058,0c-0.04,0 -0.069,0.004 -0.087,0.011c-0.019,0.008 -0.031,0.021 -0.036,0.039c-0.003,0.01 -0.007,0.017 -0.012,0.022c-0.005,0.004 -0.012,0.007 -0.022,0.007c-0.01,-0.001 -0.018,-0.003 -0.024,-0.009c-0.006,-0.006 -0.008,-0.014 -0.006,-0.024c0.006,-0.038 0.024,-0.066 0.055,-0.083c0.031,-0.017 0.075,-0.026 0.132,-0.026l0.058,0c0.064,0 0.11,0.015 0.14,0.045c0.03,0.03 0.045,0.077 0.045,0.141l0,0.267c0,0.021 -0.01,0.031 -0.031,0.031c-0.021,0 -0.032,-0.01 -0.032,-0.031l0,-0.041c-0.033,0.048 -0.088,0.072 -0.166,0.072l-0.056,0Zm-0,-0.063l0.056,0c0.03,0 0.056,-0.003 0.08,-0.009c0.023,-0.007 0.043,-0.017 0.058,-0.032c0.015,-0.015 0.024,-0.034 0.028,-0.059l0,-0.085l-0.222,-0c-0.036,-0 -0.06,0.006 -0.073,0.019c-0.013,0.013 -0.02,0.038 -0.02,0.074c0,0.035 0.007,0.06 0.02,0.073c0.013,0.013 0.037,0.019 0.073,0.019Z" style="fill-rule:nonzero;"/>
                </g>
                <g transform="matrix(300,0,0,300,2196.24,761.227)">
                    <path d="M0.499,-0.484c0.021,0 0.031,0.01 0.031,0.031l0,0.422c0,0.02 -0.01,0.031 -0.031,0.031c-0.021,-0 -0.031,-0.011 -0.031,-0.032l-0,-0.037c-0.033,0.046 -0.089,0.069 -0.167,0.069l-0.028,-0c-0.064,-0 -0.111,-0.015 -0.141,-0.045c-0.03,-0.03 -0.044,-0.077 -0.044,-0.141l-0,-0.267c-0,-0.021 0.01,-0.031 0.031,-0.031c0.021,0 0.032,0.01 0.032,0.031l-0,0.267c-0,0.047 0.008,0.079 0.026,0.096c0.018,0.018 0.05,0.027 0.096,0.027l0.028,-0c0.048,-0 0.086,-0.007 0.116,-0.021c0.03,-0.014 0.047,-0.036 0.051,-0.066l-0,-0.303c-0,-0.021 0.01,-0.031 0.031,-0.031Z" style="fill-rule:nonzero;"/>
                </g>
            </g>
            <g transform="matrix(0.668583,-0.00106172,0.00106172,0.668583,-399.632,1095.02)">
                <path d="M2206.72,1405.01c36.532,-0 66.191,29.659 66.191,66.191c0,36.532 -29.659,66.191 -66.191,66.191c-36.532,0 -66.192,-29.659 -66.192,-66.191c0,-36.532 29.66,-66.191 66.192,-66.191Zm-0,33.095c18.266,0 33.095,14.83 33.095,33.096c0,18.266 -14.829,33.096 -33.095,33.096c-18.266,-0 -33.096,-14.83 -33.096,-33.096c0,-18.266 14.83,-33.096 33.096,-33.096Z" style="fill:rgb(255,5,0);"/>
            </g>
        </g>
    </g>
</svg>
