<?xml version="1.0" encoding="UTF-8" standalone="no"?><!DOCTYPE svg PUBLIC "-//W3C//DTD SVG 1.1//EN" "http://www.w3.org/Graphics/SVG/1.1/DTD/svg11.dtd"><svg width="100%" height="100%" viewBox="0 0 800 180" version="1.1" xmlns="http://www.w3.org/2000/svg" xmlns:xlink="http://www.w3.org/1999/xlink" xml:space="preserve" xmlns:serif="http://www.serif.com/" style="fill-rule:evenodd;clip-rule:evenodd;stroke-linejoin:round;stroke-miterlimit:2;"><g><path d="M4.444,111.448c0,-8.966 1.501,-17.332 4.503,-25.097c3.002,-7.764 7.204,-14.529 12.608,-20.293c5.404,-5.763 11.869,-10.286 19.394,-13.568c7.525,-3.282 15.769,-4.924 24.735,-4.924c6.806,0 12.989,1.001 18.553,3.002c5.564,2.002 10.947,5.284 16.15,9.846l0,-10.446l30.5,0l0,122.961l-30.5,0l0,-10.448c-5.203,4.564 -10.586,7.846 -16.15,9.847c-5.564,2.001 -11.747,3.001 -18.553,3.001c-8.966,0 -17.212,-1.64 -24.735,-4.923c-7.525,-3.281 -13.99,-7.804 -19.394,-13.568c-5.404,-5.765 -9.606,-12.528 -12.608,-20.294c-3.002,-7.764 -4.503,-16.129 -4.503,-25.096Zm65.203,35.183c2.402,0 4.924,-0.259 7.566,-0.78c2.64,-0.521 5.303,-1.402 7.985,-2.642c2.681,-1.241 5.303,-2.902 7.865,-4.984c2.562,-2.081 5.002,-4.642 7.324,-7.685l0,-38.185c-2.322,-3.041 -4.762,-5.582 -7.324,-7.624c-2.563,-2.041 -5.184,-3.703 -7.866,-4.984c-2.683,-1.281 -5.344,-2.182 -7.986,-2.701c-2.64,-0.521 -5.163,-0.78 -7.564,-0.782c-4.723,0 -9.147,0.881 -13.268,2.643c-4.125,1.761 -7.707,4.223 -10.747,7.385c-3.043,3.162 -5.424,6.885 -7.146,11.168c-1.721,4.282 -2.581,8.945 -2.581,13.988c0,5.044 0.86,9.706 2.581,13.989c1.722,4.283 4.103,8.006 7.146,11.168c3.042,3.163 6.624,5.624 10.745,7.385c4.125,1.76 8.547,2.641 13.27,2.641Zm137.483,-68.711c-14.451,0.106 -27.007,10.177 -27.007,25.123l0,69.886l-30.5,0l0,-69.045c0.171,-28.792 25.104,-55.931 57.07,-56.318l0.853,0c31.966,0.387 56.899,27.526 57.07,56.318l0,69.045l-30.501,0l0,-69.886c0,-14.946 -12.553,-25.017 -27.006,-25.123m71.945,33.528c0,-8.966 1.501,-17.332 4.503,-25.097c3.002,-7.764 7.205,-14.529 12.608,-20.293c5.403,-5.763 11.868,-10.286 19.393,-13.568c7.525,-3.282 15.77,-4.924 24.737,-4.924c6.804,0 13.008,1.001 18.612,3.002c5.604,2.002 10.967,5.244 16.09,9.727l0,-47.191l30.501,0l0,159.825l-30.501,0l0,-10.327c-5.123,4.562 -10.486,7.824 -16.09,9.786c-5.604,1.961 -11.808,2.941 -18.612,2.941c-8.967,0 -17.212,-1.64 -24.737,-4.923c-7.525,-3.281 -13.99,-7.804 -19.393,-13.568c-5.403,-5.763 -9.606,-12.528 -12.607,-20.294c-3.003,-7.764 -4.504,-16.129 -4.504,-25.096Zm65.203,35.183c2.401,0 4.923,-0.259 7.565,-0.78c2.641,-0.521 5.303,-1.402 7.986,-2.642c2.681,-1.241 5.303,-2.902 7.864,-4.984c2.562,-2.081 5.003,-4.642 7.325,-7.685l0,-38.185c-2.322,-3.041 -4.763,-5.582 -7.325,-7.624c-2.561,-2.041 -5.183,-3.703 -7.864,-4.984c-2.683,-1.281 -5.345,-2.182 -7.986,-2.701c-2.642,-0.521 -5.164,-0.78 -7.565,-0.782c-4.724,0 -9.146,0.881 -13.269,2.643c-4.123,1.761 -7.706,4.223 -10.746,7.385c-3.043,3.162 -5.425,6.885 -7.146,11.168c-1.722,4.282 -2.582,8.945 -2.581,13.988c0,5.044 0.859,9.706 2.581,13.989c1.721,4.283 4.103,8.006 7.145,11.168c3.042,3.163 6.624,5.624 10.747,7.385c4.123,1.76 8.545,2.641 13.269,2.641Zm204.07,0c4.564,0 8.867,-0.861 12.909,-2.582c3.98,-1.678 7.576,-4.15 10.567,-7.264c3.002,-3.122 5.364,-6.825 7.085,-11.107c1.721,-4.283 2.582,-9.025 2.582,-14.23c0,-5.124 -0.881,-9.827 -2.642,-14.109c-1.762,-4.283 -4.164,-7.986 -7.204,-11.107c-3.015,-3.103 -6.604,-5.591 -10.568,-7.325c-4.002,-1.762 -8.246,-2.641 -12.729,-2.643c-4.562,0 -8.865,0.881 -12.909,2.643c-3.974,1.714 -7.566,4.204 -10.565,7.325c-3.002,3.121 -5.384,6.824 -7.146,11.107c-1.761,4.282 -2.642,8.985 -2.642,14.11c0,5.202 0.861,9.946 2.582,14.229c1.721,4.282 4.083,7.985 7.086,11.107c2.991,3.114 6.587,5.586 10.566,7.264c4.042,1.721 8.386,2.582 13.028,2.582Zm0,28.698c-8.885,0 -17.25,-1.6 -25.096,-4.802c-7.846,-3.202 -14.709,-7.664 -20.592,-13.389c-5.885,-5.724 -10.529,-12.489 -13.931,-20.293c-3.402,-7.806 -5.102,-16.271 -5.102,-25.397c0,-8.885 1.7,-17.212 5.102,-24.976c3.404,-7.765 8.026,-14.529 13.87,-20.293c5.843,-5.765 12.707,-10.307 20.592,-13.63c7.887,-3.321 16.272,-4.983 25.157,-4.983c8.885,0 17.252,1.662 25.097,4.983c7.846,3.323 14.69,7.865 20.533,13.63c5.846,5.764 10.466,12.529 13.87,20.293c3.402,7.765 5.102,16.091 5.102,24.976c0,9.126 -1.7,17.591 -5.102,25.397c-3.402,7.804 -8.046,14.569 -13.929,20.293c-5.885,5.725 -12.729,10.187 -20.535,13.389c-7.804,3.202 -16.149,4.802 -25.036,4.802Zm93.519,-134.989c-2.472,0 -4.807,-0.482 -7.009,-1.448c-2.16,-0.938 -4.124,-2.274 -5.79,-3.939c-1.664,-1.666 -3.001,-3.631 -3.938,-5.791c-0.968,-2.21 -1.461,-4.597 -1.449,-7.009c0,-2.47 0.483,-4.826 1.449,-7.065c0.927,-2.183 2.264,-4.168 3.938,-5.849c1.666,-1.664 3.631,-3 5.792,-3.938c2.209,-0.967 4.597,-1.461 7.008,-1.448c2.47,0 4.826,0.482 7.065,1.448c2.183,0.928 4.168,2.265 5.849,3.938c1.674,1.681 3.011,3.666 3.938,5.849c0.966,2.239 1.449,4.595 1.449,7.066c0,2.471 -0.483,4.807 -1.449,7.009c-0.938,2.16 -2.274,4.124 -3.938,5.79c-1.681,1.674 -3.666,3.011 -5.849,3.939c-2.231,0.963 -4.636,1.456 -7.066,1.448Zm-15.252,9.628l30.5,0l0,122.961l-30.5,0l0,-122.961Zm44.524,61.48c0,-8.966 1.501,-17.332 4.503,-25.097c3.002,-7.764 7.204,-14.529 12.608,-20.293c5.404,-5.763 11.868,-10.286 19.394,-13.568c7.523,-3.282 15.769,-4.924 24.735,-4.924c6.804,0 13.009,1.001 18.612,3.002c5.604,2.002 10.967,5.244 16.09,9.727l0,-47.191l30.501,0l0,159.825l-30.501,0l0,-10.327c-5.123,4.562 -10.486,7.824 -16.09,9.786c-5.604,1.961 -11.808,2.941 -18.612,2.941c-8.966,0 -17.212,-1.64 -24.735,-4.923c-7.526,-3.281 -13.99,-7.804 -19.394,-13.568c-5.404,-5.763 -9.606,-12.528 -12.608,-20.294c-3.002,-7.764 -4.503,-16.129 -4.503,-25.096Zm65.203,35.183c2.4,0 4.923,-0.259 7.564,-0.78c2.642,-0.521 5.303,-1.402 7.986,-2.642c2.682,-1.241 5.303,-2.902 7.864,-4.984c2.562,-2.081 5.004,-4.642 7.325,-7.685l0,-38.185c-2.321,-3.041 -4.763,-5.582 -7.325,-7.624c-2.561,-2.041 -5.182,-3.703 -7.864,-4.984c-2.683,-1.281 -5.344,-2.182 -7.986,-2.701c-2.641,-0.521 -5.164,-0.78 -7.564,-0.782c-4.723,0 -9.147,0.881 -13.268,2.643c-4.125,1.761 -7.707,4.223 -10.748,7.385c-3.042,3.162 -5.424,6.885 -7.145,11.168c-1.721,4.282 -2.582,8.945 -2.582,13.988c0,5.044 0.861,9.706 2.582,13.989c1.721,4.283 4.103,8.006 7.145,11.168c3.043,3.163 6.625,5.624 10.746,7.385c4.125,1.76 8.547,2.641 13.27,2.641Zm-255.622,-69.08c-20.44,0 -29.454,10.546 -29.454,25.492l0,69.886l-30.5,0l0,-69.045c0.17,-28.792 16.802,-57.097 59.954,-57.097" style="fill:#77c159;fill-rule:nonzero;"/></g></svg>