<?xml version="1.0" encoding="UTF-8" standalone="no"?><!DOCTYPE svg PUBLIC "-//W3C//DTD SVG 1.1//EN" "http://www.w3.org/Graphics/SVG/1.1/DTD/svg11.dtd"><svg width="100%" height="100%" viewBox="0 0 496 138" version="1.1" xmlns="http://www.w3.org/2000/svg" xmlns:xlink="http://www.w3.org/1999/xlink" xml:space="preserve" xmlns:serif="http://www.serif.com/" style="fill-rule:evenodd;clip-rule:evenodd;stroke-linejoin:round;stroke-miterlimit:2;"><g><g><path d="M146.361,100.638l0,-60.723l7.807,0l37.108,48.867l0,-48.867l7.421,0l0,60.723l-7.807,0l-37.108,-49.349l0,49.349l-7.421,0Zm112.77,-2.41c-4.916,1.831 -10.217,2.795 -15.807,2.795c-21.976,0 -32.964,-10.506 -32.964,-31.614c0,-19.952 10.602,-29.976 31.807,-29.976c6.072,0 11.759,0.868 16.964,2.506l0,6.747c-5.205,-2.024 -10.603,-2.988 -16.097,-2.988c-16.578,0 -24.867,7.904 -24.867,23.518c0,16.868 8.193,25.253 24.482,25.253c2.602,0 5.494,-0.385 8.675,-1.06l0,-20.337l7.807,0l0,25.156Zm12.53,-21.012l0,-37.301l7.807,0l0,37.301c0,11.663 5.783,17.542 17.445,17.542c11.567,0 17.446,-5.879 17.446,-17.542l0,-37.301l7.807,0l0,37.301c0,15.904 -8.385,23.904 -25.253,23.904c-16.867,0 -25.252,-8 -25.252,-23.904Zm72.288,-37.301l0,54.361l31.807,0l0,6.362l-39.614,0l0,-60.723l7.807,0Zm43.084,60.723l-8.192,0l30.168,-68.723l30.168,68.723l-8.674,0l-7.807,-19.084l-20.048,0l2.12,-6.362l15.325,0l-11.373,-27.469l-21.687,52.915Zm60.53,0l0,-60.723l25.927,0c11.567,0 17.35,4.82 17.35,14.554c0,7.904 -5.687,13.783 -16.964,17.542l20.819,28.627l-10.313,0l-19.277,-27.277l0,-5.109c11.566,-1.831 17.445,-6.265 17.445,-13.397c0,-5.59 -3.18,-8.385 -9.638,-8.385l-17.349,0l0,54.168l-8,0Z" style="fill:#b52e31;"/></g><path d="M1.205,23.723l62.168,-22.169l63.807,21.783l-10.313,82.216l-53.494,29.59l-52.626,-29.204l-9.542,-82.216Z" style="fill:#e23237;"/><path d="M127.18,23.337l-63.807,-21.783l0,133.589l53.494,-29.59l10.313,-82.216Z" style="fill:#b52e31;"/><path d="M63.47,17.169l-38.747,86.168l14.458,-0.29l7.807,-19.469l34.602,0l8.482,19.662l13.783,0.289l-40.385,-86.36Zm0.096,27.662l13.108,27.373l-24.578,0l11.47,-27.373Z" style="fill:#fff;"/></g></svg>