<?xml version="1.0" encoding="UTF-8" standalone="no"?><!DOCTYPE svg PUBLIC "-//W3C//DTD SVG 1.1//EN" "http://www.w3.org/Graphics/SVG/1.1/DTD/svg11.dtd"><svg width="100%" height="100%" viewBox="0 0 163 196" version="1.1" xmlns="http://www.w3.org/2000/svg" xmlns:xlink="http://www.w3.org/1999/xlink" xml:space="preserve" xmlns:serif="http://www.serif.com/" style="fill-rule:evenodd;clip-rule:evenodd;stroke-linejoin:round;stroke-miterlimit:2;"><g><path d="M43.968,192.641c-0.331,0 -0.687,-0.084 -0.934,-0.418l-10.597,-13.935l0,14.214l-2.416,0l0,-17.504c0,-0.696 0.576,-1.253 1.236,-1.253c0.384,0 0.713,0.111 0.96,0.445l10.569,13.907l0,-14.157l2.416,0l0,17.474c0,0.725 -0.577,1.226 -1.235,1.226m19.987,0.168c-2.415,0 -4.942,-0.502 -7.302,-1.393l0.576,-2.008c2.169,0.698 4.53,1.199 6.726,1.199c3.048,0 4.64,-1.087 4.64,-2.619c0,-1.394 -1.236,-2.091 -5.491,-4.098c-4.255,-2.006 -5.929,-3.288 -5.929,-5.797c0,-3.148 2.415,-4.431 6.972,-4.431c1.894,0 4.804,0.39 6.479,0.892l-0.384,2.063c-1.84,-0.446 -4.145,-0.753 -6.04,-0.753c-3.211,0 -4.529,0.613 -4.529,2.146c0,1.505 0.96,2.146 5.463,4.236c4.749,2.202 5.957,3.317 5.957,5.602c0,3.317 -3.13,4.961 -7.138,4.961m18.586,-18.868l2.498,0l0,18.561l-2.498,0l0,-18.561Zm23.748,10.145l-6.205,0l0,6.299l6.205,0c2.113,0 3.403,-1.338 3.403,-3.206c0,-1.756 -1.344,-3.093 -3.403,-3.093m-1.209,-8.027l-4.996,0l0,5.937l4.996,0c2.004,0 3.459,-1.283 3.459,-3.066c0,-1.756 -1.263,-2.871 -3.459,-2.871m1.236,16.443l-7.467,0c-0.006,0 -0.012,0.001 -0.017,0.001c-0.684,0 -1.246,-0.563 -1.246,-1.246c0,-0.003 0,-0.006 0,-0.008l0,-16.054c0,-0.67 0.549,-1.254 1.263,-1.254l6.177,0c3.788,0 6.039,1.867 6.039,4.793c0,1.589 -0.934,3.066 -2.361,3.93c2.115,0.641 3.541,2.397 3.541,4.515c0,2.954 -2.443,5.323 -5.929,5.323m17.926,0c-0.685,0 -1.234,-0.585 -1.234,-1.253l0,-17.308l2.497,0l0,16.304l9.938,0l0,2.257l-11.201,0Zm28.23,0.307c-5.106,0 -8.18,-1.895 -8.18,-5.713c0,-1.812 1.016,-3.54 2.993,-4.348c-1.593,-1.003 -2.417,-2.425 -2.417,-3.985c0,-3.456 2.664,-5.101 7.66,-5.101c1.675,0 4.035,0.195 6.012,0.641l-0.275,2.062c-2.085,-0.334 -4.035,-0.529 -5.93,-0.529c-3.239,0 -4.969,0.892 -4.969,3.038c0,1.701 1.593,3.038 3.707,3.038l4.282,0c0.604,0 1.071,0.474 1.071,1.059c0,0.613 -0.467,1.087 -1.071,1.087l-4.611,0c-2.416,0 -3.953,1.198 -3.953,3.038c0,2.703 2.498,3.511 5.627,3.511c1.703,0 4.008,-0.222 5.874,-0.668l0.358,2.034c-1.785,0.502 -4.119,0.836 -6.178,0.836m-141.04,-15.387l4.375,10.962l-6.607,-5.284l2.232,-5.678Zm7.772,13.488l-6.729,-16.442c-0.191,-0.474 -0.576,-0.725 -1.043,-0.725c-0.473,-0.009 -0.903,0.282 -1.07,0.725l-7.387,18.034l2.526,0l2.925,-7.435l8.725,7.156c0.351,0.289 0.604,0.418 0.934,0.418c0.658,0 1.235,-0.501 1.235,-1.225c0,-0.118 -0.041,-0.305 -0.116,-0.506l0,0Z" style="fill:#1a1918;fill-rule:nonzero;"/></g><path d="M158.782,79.269c0,42.945 -34.811,77.756 -77.757,77.756c-42.942,0 -77.757,-34.811 -77.757,-77.756c0,-42.942 34.815,-77.757 77.757,-77.757c42.945,0 77.757,34.815 77.757,77.757" style="fill:#1a1918;fill-rule:nonzero;"/><path d="M82.334,49.012l20.122,49.663l-30.394,-23.942l10.272,-25.72l0,-0.001Zm35.746,61.103l-30.951,-74.487c-0.884,-2.148 -2.651,-3.285 -4.795,-3.285c-2.149,0 -4.044,1.137 -4.928,3.285l-33.97,81.703l11.62,0l13.448,-33.686l40.132,32.421c1.614,1.305 2.779,1.896 4.292,1.896c3.032,0 5.682,-2.274 5.682,-5.554c0,-0.534 -0.189,-1.381 -0.53,-2.293Z" style="fill:#fff;fill-rule:nonzero;"/></svg>