<?xml version="1.0" encoding="UTF-8" standalone="no"?><!DOCTYPE svg PUBLIC "-//W3C//DTD SVG 1.1//EN" "http://www.w3.org/Graphics/SVG/1.1/DTD/svg11.dtd"><svg width="100%" height="100%" viewBox="0 0 596 234" version="1.1" xmlns="http://www.w3.org/2000/svg" xmlns:xlink="http://www.w3.org/1999/xlink" xml:space="preserve" xmlns:serif="http://www.serif.com/" style="fill-rule:evenodd;clip-rule:evenodd;"><g><path d="M80.977,220.013l-34.648,-12.434l0,-50.783l34.648,11.805l0,51.412m6.355,0l34.648,-12.431l0,-50.786l-34.648,11.805l0,51.412m-37.442,-67.015l35.066,-9.872l32.516,10.484l-32.516,11.04l-35.066,-11.652m-10.164,-3.933l-34.647,-12.429l0,-50.788l34.647,11.805l0,51.412m6.356,0l34.65,-12.429l0,-50.788l-34.65,11.805l0,51.412m-37.443,-67.018l35.068,-9.87l32.516,10.485l-32.516,11.04l-35.068,-11.652m111.935,67.015l-34.65,-12.429l0,-50.788l34.65,11.805l0,51.412m6.356,0l34.65,-12.429l0,-50.788l-34.65,11.805l0,51.412m-37.441,-67.018l35.066,-9.87l32.514,10.485l-32.514,11.04l-35.066,-11.652m72.336,-3.938l-34.65,-12.424l0,-50.788l34.65,11.803l0,51.409m6.355,0l34.648,-12.424l0,-50.788l-34.65,11.803l0,51.409m-37.44,-67.011l35.068,-9.872l32.514,10.483l-32.514,11.042l-35.068,-11.653m111.937,67.011l-34.65,-12.424l0,-50.788l34.65,11.803l0,51.409m6.354,0l34.649,-12.424l0,-50.788l-34.649,11.803l0,51.409m-37.443,-67.011l35.068,-9.872l32.514,10.483l-32.514,11.04l-35.068,-11.653" style="fill:#f90;"/><path d="M225.049,186.929l-11.639,40.434l-5.056,0l-9.063,-30.033l-8.307,30.033l-5.156,0l-12.103,-40.434l6.254,0l8.811,30.132l8.387,-30.132l4.615,0l9.119,30.229l9.056,-30.229l5.082,0Z"/><path d="M225.049,186.929l-11.639,40.434l-5.056,0l-9.063,-30.033l-8.307,30.033l-5.156,0l-12.103,-40.434l6.254,0l8.811,30.132l8.387,-30.132l4.615,0l9.119,30.229l9.056,-30.229l5.082,0Z" style="stroke:#000;stroke-width:0.24px;"/><path d="M257.245,215.301l5.859,1.203c-1.066,3.456 -3.144,6.321 -6.231,8.584c-3.093,2.266 -6.728,3.399 -10.912,3.399c-5.515,0 -9.977,-1.942 -13.387,-5.831c-3.412,-3.884 -5.116,-8.985 -5.116,-15.289c0,-6.439 1.773,-11.641 5.315,-15.609c3.542,-3.967 7.993,-5.951 13.349,-5.951c5.279,0 9.519,1.827 12.73,5.48c3.209,3.653 4.855,9.118 4.936,16.396l-29.346,0c0,6.116 1.276,10.238 3.834,12.376c2.554,2.134 5.257,3.203 8.105,3.203c5.14,0 8.763,-2.655 10.864,-7.961Zm-0.342,-12.304c-0.053,-2.266 -0.425,-4.282 -1.119,-6.044c-0.693,-1.759 -1.863,-3.26 -3.514,-4.501c-1.651,-1.239 -3.637,-1.859 -5.953,-1.859c-3.115,0 -5.757,1.119 -7.928,3.362c-2.171,2.242 -3.387,5.253 -3.653,9.04l22.167,0l0,0.002Z"/><path d="M257.245,215.301l5.859,1.203c-1.066,3.456 -3.144,6.321 -6.231,8.584c-3.093,2.266 -6.728,3.399 -10.912,3.399c-5.515,0 -9.977,-1.942 -13.387,-5.831c-3.412,-3.884 -5.116,-8.985 -5.116,-15.289c0,-6.439 1.773,-11.641 5.315,-15.609c3.542,-3.967 7.993,-5.951 13.349,-5.951c5.279,0 9.519,1.827 12.73,5.48c3.209,3.653 4.855,9.118 4.936,16.396l-29.346,0c0,6.116 1.276,10.238 3.834,12.376c2.554,2.134 5.257,3.203 8.105,3.203c5.14,0 8.763,-2.655 10.864,-7.961Zm-0.342,-12.304c-0.053,-2.266 -0.425,-4.282 -1.119,-6.044c-0.693,-1.759 -1.863,-3.26 -3.514,-4.501c-1.651,-1.239 -3.637,-1.859 -5.953,-1.859c-3.115,0 -5.757,1.119 -7.928,3.362c-2.171,2.242 -3.387,5.253 -3.653,9.04l22.167,0l0,0.002Z" style="stroke:#000;stroke-width:0.24px;"/><path d="M275.092,227.363l-3.029,0l0,-54.593l6.3,0l0,20.9c2.876,-5.243 6.841,-7.863 11.898,-7.863c4.628,0 8.508,1.829 11.636,5.491c3.128,3.66 4.693,8.975 4.693,15.948c0,6.012 -1.539,11.052 -4.614,15.128c-3.08,4.076 -7.082,6.113 -12.011,6.113c-5.489,0 -9.697,-2.606 -12.626,-7.815l-2.247,6.691Zm3.271,-15.853c0.294,4.152 1.568,7.162 3.82,9.04c2.251,1.872 4.633,2.811 7.137,2.811c3.2,0 5.78,-1.39 7.738,-4.169c1.961,-2.776 2.936,-6.582 2.936,-11.416c0,-5.204 -0.943,-9.299 -2.837,-12.277c-1.893,-2.978 -4.52,-4.469 -7.877,-4.469c-2.638,0 -5.017,1.064 -7.137,3.179c-2.12,2.122 -3.38,4.862 -3.78,8.222l0,9.079Z"/><path d="M275.092,227.363l-3.029,0l0,-54.593l6.3,0l0,20.9c2.876,-5.243 6.841,-7.863 11.898,-7.863c4.628,0 8.508,1.829 11.636,5.491c3.128,3.66 4.693,8.975 4.693,15.948c0,6.012 -1.539,11.052 -4.614,15.128c-3.08,4.076 -7.082,6.113 -12.011,6.113c-5.489,0 -9.697,-2.606 -12.626,-7.815l-2.247,6.691Zm3.271,-15.853c0.294,4.152 1.568,7.162 3.82,9.04c2.251,1.872 4.633,2.811 7.137,2.811c3.2,0 5.78,-1.39 7.738,-4.169c1.961,-2.776 2.936,-6.582 2.936,-11.416c0,-5.204 -0.943,-9.299 -2.837,-12.277c-1.893,-2.978 -4.52,-4.469 -7.877,-4.469c-2.638,0 -5.017,1.064 -7.137,3.179c-2.12,2.122 -3.38,4.862 -3.78,8.222l0,9.079Z" style="stroke:#000;stroke-width:0.24px;"/><path d="M322.642,216.885l6.005,-1.241c1.336,5.079 5.555,7.618 12.656,7.618c2.612,0 4.832,-0.585 6.644,-1.758c1.817,-1.169 2.724,-2.82 2.724,-4.95c0,-3.167 -2.31,-5.176 -6.932,-6.027l-8.515,-1.621c-3.336,-0.64 -5.988,-1.895 -7.962,-3.764c-1.972,-1.868 -2.96,-4.337 -2.96,-7.407c0,-3.387 1.346,-6.224 4.04,-8.506c2.691,-2.282 6.318,-3.422 10.877,-3.422c8.772,0 14.187,3.429 16.238,10.284l-5.762,1.239c-1.653,-4.198 -5.049,-6.3 -10.191,-6.3c-2.56,0 -4.659,0.527 -6.298,1.575c-1.637,1.049 -2.458,2.515 -2.458,4.402c0,2.97 2.095,4.841 6.282,5.613l7.872,1.45c8.243,1.493 12.36,5.493 12.36,11.987c0,3.713 -1.533,6.717 -4.601,8.999c-3.068,2.289 -7.151,3.431 -12.249,3.431c-9.578,0 -15.504,-3.868 -17.77,-11.602Z"/><path d="M322.642,216.885l6.005,-1.241c1.336,5.079 5.555,7.618 12.656,7.618c2.612,0 4.832,-0.585 6.644,-1.758c1.817,-1.169 2.724,-2.82 2.724,-4.95c0,-3.167 -2.31,-5.176 -6.932,-6.027l-8.515,-1.621c-3.336,-0.64 -5.988,-1.895 -7.962,-3.764c-1.972,-1.868 -2.96,-4.337 -2.96,-7.407c0,-3.387 1.346,-6.224 4.04,-8.506c2.691,-2.282 6.318,-3.422 10.877,-3.422c8.772,0 14.187,3.429 16.238,10.284l-5.762,1.239c-1.653,-4.198 -5.049,-6.3 -10.191,-6.3c-2.56,0 -4.659,0.527 -6.298,1.575c-1.637,1.049 -2.458,2.515 -2.458,4.402c0,2.97 2.095,4.841 6.282,5.613l7.872,1.45c8.243,1.493 12.36,5.493 12.36,11.987c0,3.713 -1.533,6.717 -4.601,8.999c-3.068,2.289 -7.151,3.431 -12.249,3.431c-9.578,0 -15.504,-3.868 -17.77,-11.602Z" style="stroke:#000;stroke-width:0.24px;"/><path d="M390.763,215.301l5.859,1.203c-1.064,3.456 -3.142,6.321 -6.233,8.584c-3.089,2.266 -6.728,3.399 -10.908,3.399c-5.517,0 -9.981,-1.942 -13.389,-5.831c-3.413,-3.884 -5.114,-8.985 -5.114,-15.289c0,-6.439 1.768,-11.641 5.317,-15.609c3.542,-3.967 7.99,-5.951 13.347,-5.951c5.274,0 9.519,1.827 12.73,5.48c3.212,3.653 4.855,9.118 4.934,16.396l-29.346,0c0,6.116 1.278,10.238 3.833,12.376c2.557,2.134 5.26,3.203 8.108,3.203c5.138,0 8.76,-2.655 10.862,-7.961Zm-0.342,-12.304c-0.051,-2.266 -0.426,-4.282 -1.117,-6.044c-0.693,-1.759 -1.863,-3.26 -3.514,-4.501c-1.651,-1.239 -3.639,-1.859 -5.953,-1.859c-3.115,0 -5.757,1.119 -7.931,3.362c-2.168,2.242 -3.389,5.253 -3.653,9.04l22.168,0l0,0.002Z"/><path d="M390.763,215.301l5.859,1.203c-1.064,3.456 -3.142,6.321 -6.233,8.584c-3.089,2.266 -6.728,3.399 -10.908,3.399c-5.517,0 -9.981,-1.942 -13.389,-5.831c-3.413,-3.884 -5.114,-8.985 -5.114,-15.289c0,-6.439 1.768,-11.641 5.317,-15.609c3.542,-3.967 7.99,-5.951 13.347,-5.951c5.274,0 9.519,1.827 12.73,5.48c3.212,3.653 4.855,9.118 4.934,16.396l-29.346,0c0,6.116 1.278,10.238 3.833,12.376c2.557,2.134 5.26,3.203 8.108,3.203c5.138,0 8.76,-2.655 10.862,-7.961Zm-0.342,-12.304c-0.051,-2.266 -0.426,-4.282 -1.117,-6.044c-0.693,-1.759 -1.863,-3.26 -3.514,-4.501c-1.651,-1.239 -3.639,-1.859 -5.953,-1.859c-3.115,0 -5.757,1.119 -7.931,3.362c-2.168,2.242 -3.389,5.253 -3.653,9.04l22.168,0l0,0.002Z" style="stroke:#000;stroke-width:0.24px;"/><path d="M410.38,227.363l-6.3,0l0,-40.434l5.521,0l0,9.426c1.945,-4.416 3.898,-7.276 5.856,-8.583c1.959,-1.31 3.966,-1.965 6.021,-1.965c0.638,0 1.466,0.049 2.478,0.146l0,6.006l-1.276,0c-3.463,0 -6.337,1.288 -8.624,3.859c-2.291,2.571 -3.514,5.949 -3.676,10.138l0,21.407Z"/><path d="M410.38,227.363l-6.3,0l0,-40.434l5.521,0l0,9.426c1.945,-4.416 3.898,-7.276 5.856,-8.583c1.959,-1.31 3.966,-1.965 6.021,-1.965c0.638,0 1.466,0.049 2.478,0.146l0,6.006l-1.276,0c-3.463,0 -6.337,1.288 -8.624,3.859c-2.291,2.571 -3.514,5.949 -3.676,10.138l0,21.407Z" style="stroke:#000;stroke-width:0.24px;"/><path d="M463.08,186.929l-13.96,40.434l-6.527,0l-14.426,-40.434l6.968,0l11.222,32.865l11.137,-32.865l5.586,0Z"/><path d="M463.08,186.929l-13.96,40.434l-6.527,0l-14.426,-40.434l6.968,0l11.222,32.865l11.137,-32.865l5.586,0Z" style="stroke:#000;stroke-width:0.24px;"/><path d="M468.115,172.77l6.74,0l0,6.982l-6.74,0l0,-6.982Zm0.294,14.159l6.298,0l0,40.434l-6.298,0l0,-40.434Z"/><path d="M468.115,172.77l6.74,0l0,6.982l-6.74,0l0,-6.982Zm0.294,14.159l6.298,0l0,40.434l-6.298,0l0,-40.434Z" style="stroke:#000;stroke-width:0.24px;"/><path d="M507.618,213.202l5.662,0.999c-0.8,4.469 -2.573,7.967 -5.32,10.494c-2.746,2.527 -6.173,3.792 -10.279,3.792c-5.572,0 -9.821,-2.058 -12.739,-6.173c-2.918,-4.113 -4.381,-9.135 -4.381,-15.068c0,-6.145 1.542,-11.252 4.622,-15.328c3.077,-4.074 7.271,-6.111 12.577,-6.111c4.402,0 7.928,1.316 10.58,3.951c2.656,2.632 4.3,6.035 4.94,10.203l-5.664,1.08c-1.066,-6.67 -4.289,-10.011 -9.671,-10.011c-3.464,0 -6.127,1.473 -7.99,4.418c-1.866,2.948 -2.798,6.768 -2.798,11.459c0,5.174 0.925,9.19 2.774,12.057c1.855,2.864 4.458,4.298 7.815,4.298c5.193,0 8.485,-3.353 9.872,-10.058l0,-0.002Z"/><path d="M507.618,213.202l5.662,0.999c-0.8,4.469 -2.573,7.967 -5.32,10.494c-2.746,2.527 -6.173,3.792 -10.279,3.792c-5.572,0 -9.821,-2.058 -12.739,-6.173c-2.918,-4.113 -4.381,-9.135 -4.381,-15.068c0,-6.145 1.542,-11.252 4.622,-15.328c3.077,-4.074 7.271,-6.111 12.577,-6.111c4.402,0 7.928,1.316 10.58,3.951c2.656,2.632 4.3,6.035 4.94,10.203l-5.664,1.08c-1.066,-6.67 -4.289,-10.011 -9.671,-10.011c-3.464,0 -6.127,1.473 -7.99,4.418c-1.866,2.948 -2.798,6.768 -2.798,11.459c0,5.174 0.925,9.19 2.774,12.057c1.855,2.864 4.458,4.298 7.815,4.298c5.193,0 8.485,-3.353 9.872,-10.058l0,-0.002Z" style="stroke:#000;stroke-width:0.24px;"/><path d="M548.804,215.301l5.859,1.203c-1.064,3.456 -3.145,6.321 -6.234,8.584c-3.088,2.266 -6.727,3.399 -10.91,3.399c-5.516,0 -9.978,-1.942 -13.389,-5.831c-3.41,-3.884 -5.114,-8.985 -5.114,-15.289c0,-6.439 1.771,-11.641 5.318,-15.609c3.542,-3.967 7.992,-5.951 13.349,-5.951c5.272,0 9.519,1.827 12.728,5.48c3.214,3.653 4.855,9.118 4.936,16.396l-29.348,0c0,6.116 1.278,10.238 3.833,12.376c2.559,2.134 5.257,3.203 8.11,3.203c5.135,0 8.758,-2.655 10.862,-7.961Zm-0.342,-12.304c-0.053,-2.266 -0.428,-4.282 -1.119,-6.044c-0.694,-1.759 -1.864,-3.26 -3.514,-4.501c-1.651,-1.239 -3.637,-1.859 -5.954,-1.859c-3.116,0 -5.759,1.119 -7.93,3.362c-2.169,2.242 -3.389,5.253 -3.653,9.04l22.17,0l0,0.002Z"/><path d="M548.804,215.301l5.859,1.203c-1.064,3.456 -3.145,6.321 -6.234,8.584c-3.088,2.266 -6.727,3.399 -10.91,3.399c-5.516,0 -9.978,-1.942 -13.389,-5.831c-3.41,-3.884 -5.114,-8.985 -5.114,-15.289c0,-6.439 1.771,-11.641 5.318,-15.609c3.542,-3.967 7.992,-5.951 13.349,-5.951c5.272,0 9.519,1.827 12.728,5.48c3.214,3.653 4.855,9.118 4.936,16.396l-29.348,0c0,6.116 1.278,10.238 3.833,12.376c2.559,2.134 5.257,3.203 8.11,3.203c5.135,0 8.758,-2.655 10.862,-7.961Zm-0.342,-12.304c-0.053,-2.266 -0.428,-4.282 -1.119,-6.044c-0.694,-1.759 -1.864,-3.26 -3.514,-4.501c-1.651,-1.239 -3.637,-1.859 -5.954,-1.859c-3.116,0 -5.759,1.119 -7.93,3.362c-2.169,2.242 -3.389,5.253 -3.653,9.04l22.17,0l0,0.002Z" style="stroke:#000;stroke-width:0.24px;"/><path d="M558.903,216.885l6.011,-1.241c1.332,5.079 5.549,7.618 12.649,7.618c2.617,0 4.832,-0.585 6.647,-1.758c1.815,-1.169 2.723,-2.82 2.723,-4.95c0,-3.167 -2.309,-5.176 -6.931,-6.027l-8.515,-1.621c-3.336,-0.64 -5.988,-1.895 -7.963,-3.764c-1.972,-1.868 -2.959,-4.337 -2.959,-7.407c0,-3.387 1.343,-6.224 4.039,-8.506c2.691,-2.282 6.317,-3.422 10.878,-3.422c8.772,0 14.184,3.429 16.237,10.284l-5.761,1.239c-1.653,-4.198 -5.05,-6.3 -10.191,-6.3c-2.56,0 -4.659,0.527 -6.296,1.575c-1.642,1.049 -2.46,2.515 -2.46,4.402c0,2.97 2.095,4.841 6.284,5.613l7.87,1.45c8.24,1.493 12.362,5.493 12.362,11.987c0,3.713 -1.533,6.717 -4.603,8.999c-3.068,2.289 -7.153,3.431 -12.249,3.431c-9.578,0 -15.504,-3.868 -17.772,-11.602Z"/><path d="M558.903,216.885l6.011,-1.241c1.332,5.079 5.549,7.618 12.649,7.618c2.617,0 4.832,-0.585 6.647,-1.758c1.815,-1.169 2.723,-2.82 2.723,-4.95c0,-3.167 -2.309,-5.176 -6.931,-6.027l-8.515,-1.621c-3.336,-0.64 -5.988,-1.895 -7.963,-3.764c-1.972,-1.868 -2.959,-4.337 -2.959,-7.407c0,-3.387 1.343,-6.224 4.039,-8.506c2.691,-2.282 6.317,-3.422 10.878,-3.422c8.772,0 14.184,3.429 16.237,10.284l-5.761,1.239c-1.653,-4.198 -5.05,-6.3 -10.191,-6.3c-2.56,0 -4.659,0.527 -6.296,1.575c-1.642,1.049 -2.46,2.515 -2.46,4.402c0,2.97 2.095,4.841 6.284,5.613l7.87,1.45c8.24,1.493 12.362,5.493 12.362,11.987c0,3.713 -1.533,6.717 -4.603,8.999c-3.068,2.289 -7.153,3.431 -12.249,3.431c-9.578,0 -15.504,-3.868 -17.772,-11.602Z" style="stroke:#000;stroke-width:0.24px;"/><path d="M416.919,100.513l0,-9.71c-0.001,-0.021 -0.001,-0.042 -0.001,-0.063c0,-1.317 1.083,-2.4 2.4,-2.4c0.021,0 0.042,0 0.063,0.001l43.53,-0.005c1.394,0 2.511,1.013 2.513,2.451l-0.002,8.332c-0.012,1.397 -1.188,3.221 -3.278,6.113l-22.547,32.194c8.369,-0.196 17.224,1.057 24.829,5.332c1.715,0.962 2.173,2.391 2.307,3.792l0,10.362c0,1.429 -1.561,3.08 -3.205,2.219c-13.398,-7.016 -31.179,-7.786 -45.992,0.086c-1.514,0.809 -3.098,-0.821 -3.098,-2.25l0,-9.851c0,-1.577 0.028,-4.273 1.618,-6.677l26.126,-37.477l-22.748,-0.003c-1.389,0 -2.504,-0.994 -2.513,-2.446m-155.785,60.66l-13.245,0c-1.26,-0.081 -2.266,-1.029 -2.367,-2.236l0.009,-67.972c0,-1.357 1.144,-2.446 2.555,-2.446l12.332,-0.003c1.292,0.065 2.328,1.041 2.409,2.282l0,8.876l0.25,0c3.213,-8.582 9.271,-12.589 17.427,-12.589c8.284,0 13.475,4.007 17.185,12.589c3.214,-8.582 10.506,-12.589 18.295,-12.589c5.563,0 11.62,2.289 15.329,7.438c4.203,5.72 3.338,14.017 3.338,21.312l-0.009,42.892c0,1.359 -1.144,2.448 -2.555,2.448l-13.227,0c-1.329,-0.085 -2.379,-1.14 -2.379,-2.441l0,-36.035c0,-2.86 0.245,-10.011 -0.374,-12.727c-0.99,-4.578 -3.954,-5.866 -7.787,-5.866c-3.214,0 -6.552,2.146 -7.912,5.579c-1.361,3.433 -1.237,9.153 -1.237,13.016l0,36.026c0,1.359 -1.144,2.448 -2.552,2.448l-13.229,0c-1.33,-0.085 -2.377,-1.14 -2.377,-2.441l-0.014,-36.035c0,-7.579 1.237,-18.736 -8.157,-18.736c-9.52,0 -9.148,10.871 -9.148,18.736l-0.007,36.028c0,1.359 -1.142,2.448 -2.553,2.448m236.265,-74.09c19.5,0 30.047,16.878 30.047,38.333c0,20.739 -11.65,37.188 -30.047,37.188c-19.131,0 -29.556,-16.877 -29.556,-37.902c0,-21.171 10.55,-37.617 29.556,-37.617l0,-0.002Zm0.123,15.625c-9.69,0 -10.302,13.3 -10.302,21.596c0,8.295 -0.123,24.283 10.179,24.283c10.18,0 10.67,-12.554 10.67,-21.277c0,-5.723 -0.242,-12.589 -1.96,-18.022c-1.475,-4.722 -4.416,-6.58 -8.587,-6.58Zm58.144,58.463l-13.192,0c-1.327,-0.083 -2.377,-1.138 -2.377,-2.439l-0.023,-67.996c0.114,-1.244 1.212,-2.219 2.546,-2.219l12.283,-0.003c1.156,0.058 2.111,0.849 2.354,1.903l0,10.397l0.25,0c3.708,-9.296 8.899,-13.731 18.047,-13.731c5.933,0 11.745,2.146 15.453,8.011c3.462,5.433 3.462,14.589 3.462,21.169l0,42.767c-0.148,1.207 -1.228,2.143 -2.537,2.143l-13.277,0c-1.226,-0.081 -2.215,-0.98 -2.359,-2.143l0,-36.904c0,-7.438 0.867,-18.309 -8.281,-18.309c-3.219,0 -6.183,2.146 -7.665,5.436c-1.854,4.148 -2.103,8.295 -2.103,12.873l0,36.599c-0.024,1.359 -1.168,2.448 -2.581,2.448m-171.95,-32.46c0,5.163 0.125,9.461 -2.473,14.048c-2.109,3.729 -5.454,6.02 -9.172,6.02c-5.077,0 -8.05,-3.87 -8.05,-9.604c0,-11.278 10.117,-13.331 19.698,-13.331l0,2.867l-0.003,0Zm13.354,32.289c-0.878,0.786 -2.14,0.839 -3.13,0.31c-4.397,-3.658 -5.186,-5.348 -7.59,-8.827c-7.271,7.407 -12.418,9.627 -21.835,9.627c-11.148,0 -19.82,-6.881 -19.82,-20.642c0,-10.75 5.821,-18.061 14.121,-21.644c7.186,-3.154 17.222,-3.727 24.9,-4.587l0,-1.721c0,-3.153 0.25,-6.88 -1.609,-9.604c-1.609,-2.436 -4.707,-3.44 -7.433,-3.44c-5.051,0 -9.541,2.59 -10.644,7.953c-0.229,1.193 -1.101,2.373 -2.301,2.433l-12.836,-1.388c-1.084,-0.245 -2.289,-1.114 -1.977,-2.767c2.951,-15.574 17.014,-20.278 29.617,-20.278c6.441,0 14.866,1.72 19.946,6.593c6.441,6.021 5.821,14.048 5.821,22.792l0,20.632c0,6.206 2.58,8.929 5.001,12.275c0.844,1.202 1.036,2.635 -0.046,3.516c-2.705,2.266 -7.51,6.444 -10.154,8.797l-0.031,-0.03Zm-185.458,-32.289c0,5.163 0.124,9.461 -2.477,14.048c-2.106,3.729 -5.451,6.02 -9.169,6.02c-5.079,0 -8.05,-3.87 -8.05,-9.604c0,-11.278 10.117,-13.331 19.696,-13.331l0,2.867Zm13.354,32.289c-0.879,0.786 -2.144,0.839 -3.131,0.31c-4.399,-3.658 -5.188,-5.348 -7.592,-8.827c-7.269,7.407 -12.418,9.627 -21.833,9.627c-11.15,0 -19.823,-6.881 -19.823,-20.642c0,-10.75 5.822,-18.061 14.124,-21.644c7.186,-3.154 17.222,-3.727 24.901,-4.587l0,-1.721c0,-3.153 0.247,-6.88 -1.61,-9.604c-1.611,-2.436 -4.709,-3.44 -7.433,-3.44c-5.051,0 -9.544,2.59 -10.646,7.953c-0.229,1.193 -1.099,2.373 -2.301,2.433l-12.834,-1.388c-1.084,-0.245 -2.289,-1.114 -1.976,-2.767c2.95,-15.574 17.011,-20.278 29.616,-20.278c6.441,0 14.866,1.72 19.946,6.593c6.441,6.021 5.821,14.048 5.821,22.792l0,20.632c0,6.206 2.578,8.929 4.999,12.275c0.846,1.202 1.036,2.635 -0.042,3.516c-2.705,2.266 -7.514,6.444 -10.156,8.797l-0.03,-0.03Z"/></g></svg>