<?xml version="1.0" encoding="UTF-8" standalone="no"?><!DOCTYPE svg PUBLIC "-//W3C//DTD SVG 1.1//EN" "http://www.w3.org/Graphics/SVG/1.1/DTD/svg11.dtd"><svg width="100%" height="100%" viewBox="0 0 742 217" version="1.1" xmlns="http://www.w3.org/2000/svg" xmlns:xlink="http://www.w3.org/1999/xlink" xml:space="preserve" xmlns:serif="http://www.serif.com/" style="fill-rule:evenodd;clip-rule:evenodd;stroke-linejoin:round;stroke-miterlimit:2;"><clipPath id="_clip1"><rect id="Microsoft_Azure_Logo" x="1.46" y="3.456" width="736.142" height="212.077"/></clipPath><g clip-path="url(#_clip1)"><g id="Layer-1" serif:id="Layer 1"><g id="Layer-11" serif:id="Layer 1"><path id="path21" d="M128.129,204.207c35.177,-6.214 64.232,-11.356 64.566,-11.427l0.606,-0.128l-33.211,-39.504c-18.266,-21.727 -33.211,-39.588 -33.211,-39.691c0,-0.195 34.293,-94.631 34.486,-94.967c0.065,-0.112 23.402,40.18 56.572,97.67c31.054,53.823 56.657,98.201 56.895,98.617l0.433,0.756l-105.548,-0.013l-105.548,-0.014l63.96,-11.299l0,0Zm404.762,-9.553c-16.066,-1.03 -25.411,-10.179 -27.887,-27.303c-0.658,-4.555 -0.661,-4.673 -0.728,-34.246l-0.066,-28.622l14.221,0l0.056,27.685c0.051,24.951 0.083,27.876 0.321,29.631c0.968,7.124 2.896,11.914 6.177,15.353c2.626,2.752 5.701,4.363 9.956,5.218c2.008,0.403 7.719,0.404 9.55,0.002c4.314,-0.95 7.772,-2.827 10.823,-5.877c3.477,-3.475 6.049,-8.406 7.293,-13.982l0.42,-1.88l0.047,-27.918l0.046,-27.919l14.519,0l0,87.778l-14.369,0l0,-6.964c0,-4.731 -0.052,-6.946 -0.162,-6.909c-0.089,0.03 -0.458,0.594 -0.82,1.254c-2.476,4.516 -6.601,8.645 -11.121,11.133c-5.418,2.982 -10.852,4.042 -18.276,3.566l0,0Zm163.075,-0.071c-5.671,-0.427 -11.643,-2.376 -16.524,-5.396c-10.287,-6.363 -16.374,-16.852 -18.156,-31.287c-0.617,-4.995 -0.691,-11.705 -0.177,-15.95c1.15,-9.483 4.877,-18.794 10.184,-25.44c1.36,-1.704 4.447,-4.791 6.151,-6.151c4.601,-3.673 9.982,-6.242 15.697,-7.492c3.329,-0.729 9.192,-1.071 12.729,-0.743c8.886,0.824 17.029,5.007 22.564,11.592c5.624,6.69 8.715,16.038 9.11,27.55c0.062,1.804 0.077,4.966 0.033,7.028l-0.079,3.749l-62.241,0.078l0,1.389c0,4.228 1.028,9.043 2.805,13.14c1.532,3.533 4.17,7.391 6.329,9.258c4.428,3.827 9.848,6.119 15.778,6.67c2.199,0.205 7.803,-0.011 10.308,-0.396c7.15,-1.098 13.946,-3.902 19.435,-8.018c0.646,-0.484 1.264,-0.936 1.374,-1.005c0.16,-0.1 0.198,1.165 0.194,6.482l-0.005,6.607l-1.471,0.909c-6.209,3.841 -13.323,6.307 -20.854,7.23c-2.248,0.275 -10.495,0.398 -13.183,0.196l-0.001,0Zm27.085,-55.722c0,-7.082 -2.985,-14.948 -7.208,-18.999c-3.014,-2.891 -6.657,-4.658 -10.988,-5.329c-2.049,-0.317 -6.368,-0.195 -8.529,0.242c-4.567,0.923 -8.344,2.93 -11.639,6.186c-3.468,3.426 -6.067,7.588 -7.702,12.33c-0.588,1.705 -1.276,4.504 -1.489,6.061l-0.102,0.742l47.657,0l0,-1.233Zm-422.145,53.517c0.036,-0.107 10.604,-27.869 23.484,-61.694l23.418,-61.498l7.524,-0.001l7.524,0l0.625,1.601c1.907,4.892 46.88,121.654 46.88,121.715c0,0.04 -3.602,0.072 -8.004,0.071l-8.005,-0.001l-6.482,-17.258l-6.482,-17.257l-26.099,0l-26.098,-0.001l-0.227,0.586c-0.125,0.322 -2.894,8.087 -6.154,17.256l-5.928,16.671l-8.021,0.002c-6.349,0.003 -8.008,-0.038 -7.955,-0.192l0,0Zm75.719,-47.492c0,-0.027 -4.363,-11.853 -9.694,-26.278c-9.974,-26.989 -10.532,-28.613 -11.32,-32.946c-0.369,-2.031 -0.556,-2.088 -0.776,-0.234c-0.157,1.325 -0.836,4.291 -1.36,5.935c-0.26,0.816 -4.752,13.144 -9.982,27.395c-5.229,14.251 -9.508,25.971 -9.508,26.044c0,0.074 9.594,0.134 21.32,0.134c11.726,0 21.32,-0.022 21.32,-0.05l0,0Zm38.578,47.687l0,-4.495l26.002,-35.745l26.003,-35.745l-47.085,-0.156l-0.082,-11.949l68.102,0l0,4.036l-26.005,35.94c-14.303,19.767 -26.006,35.973 -26.006,36.014c0,0.041 11.562,0.074 25.693,0.074l25.693,0l0,12.026l-72.315,0Zm190.81,-0.104c-0.057,-0.057 -0.104,-19.877 -0.104,-44.045l0,-43.941l14.213,0l0,9.059c0,4.982 0.061,9.059 0.135,9.059c0.074,0 0.42,-0.816 0.769,-1.812c1.597,-4.568 4.368,-8.836 7.938,-12.228c3.216,-3.056 6.892,-4.884 11.229,-5.583c1.218,-0.196 2.249,-0.234 4.685,-0.17c3.06,0.079 4.66,0.303 6.521,0.911l0.586,0.192l0,14.753l-1.679,-0.841c-2.966,-1.484 -5.893,-2.072 -9.411,-1.889c-2.289,0.119 -3.792,0.413 -5.622,1.1c-3.766,1.414 -6.821,3.908 -8.956,7.314c-3.09,4.93 -5.294,11.267 -5.944,17.091c-0.117,1.045 -0.186,9.558 -0.213,26.34l-0.04,24.794l-7.001,0c-3.851,0 -7.048,-0.046 -7.106,-0.104l0,0Zm-604.553,-0.308c0,-0.056 15.649,-27.221 34.775,-60.368l34.775,-60.266l40.527,-34.01c22.29,-18.705 40.587,-34.033 40.66,-34.061c0.073,-0.027 -0.22,0.71 -0.652,1.64c-0.431,0.93 -20.234,43.405 -44.006,94.389l-43.221,92.698l-31.429,0.039c-17.286,0.022 -31.429,-0.006 -31.429,-0.061l0,0Z" style="fill:#0089d6;fill-rule:nonzero;"/></g></g></g></svg>