<?xml version="1.0" encoding="UTF-8" standalone="no"?><!DOCTYPE svg PUBLIC "-//W3C//DTD SVG 1.1//EN" "http://www.w3.org/Graphics/SVG/1.1/DTD/svg11.dtd"><svg width="100%" height="100%" viewBox="0 0 205 284" version="1.1" xmlns="http://www.w3.org/2000/svg" xmlns:xlink="http://www.w3.org/1999/xlink" xml:space="preserve" xmlns:serif="http://www.serif.com/" style="fill-rule:evenodd;clip-rule:evenodd;stroke-linejoin:round;stroke-miterlimit:2;"><path d="M103.281,281.997l-81.414,-22.601l-18.143,-203.491l199.357,0l-18.162,203.46l-81.638,22.632Z" style="fill:#264de4;fill-rule:nonzero;"/><path d="M169.371,246.409l15.519,-173.866l-81.487,0l0,192.154l65.968,-18.288Z" style="fill:#2965f1;fill-rule:nonzero;"/><path d="M45.316,148.015l2.237,24.957l55.85,0l0,-24.957l-58.087,0Zm-4.495,-50.514l2.269,24.958l60.313,0l0,-24.958l-62.582,0Zm62.582,115.331l-0.11,0.029l-27.795,-7.505l-1.777,-19.904l-25.053,0l3.496,39.186l51.124,14.191l0.115,-0.031l0,-25.966Z" style="fill:#ebebeb;fill-rule:nonzero;"/><path d="M50.642,0.605l30.227,0l0,12.641l-17.586,0l0,12.641l17.587,0l0,12.64l-30.228,0l0,-37.922Zm36.272,0l30.228,0l0,10.992l-17.587,0l0,2.198l17.587,0l0,25.282l-30.227,0l0,-11.543l17.587,0l0,-2.198l-17.588,0l0,-24.731Zm36.275,0l30.227,0l0,10.992l-17.587,0l0,2.198l17.587,0l0,25.282l-30.228,0l0,-11.543l17.587,0l0,-2.198l-17.586,0l0,-24.731Z" style="fill-rule:nonzero;"/><path d="M161.329,148.015l4.505,-50.514l-62.517,0l0,24.958l35.167,0l-2.271,25.556l-32.896,0l0,24.957l30.732,0l-2.898,32.368l-27.835,7.513l0,25.965l51.164,-14.18l0.375,-4.216l5.866,-65.705l0.608,-6.702Z" style="fill:#fff;fill-rule:nonzero;"/></svg>