<?xml version="1.0" encoding="UTF-8" standalone="no"?><!DOCTYPE svg PUBLIC "-//W3C//DTD SVG 1.1//EN" "http://www.w3.org/Graphics/SVG/1.1/DTD/svg11.dtd"><svg width="100%" height="100%" viewBox="0 0 230 192" version="1.1" xmlns="http://www.w3.org/2000/svg" xmlns:xlink="http://www.w3.org/1999/xlink" xml:space="preserve" xmlns:serif="http://www.serif.com/" style="fill-rule:evenodd;clip-rule:evenodd;stroke-linejoin:round;stroke-miterlimit:2;"><g><path d="M36.077,152.275l0,-14.293c0,-1.878 1.174,-3.387 3.118,-3.387l0.539,0c1.943,0 3.112,1.51 3.112,3.387l0,30.091c0,7.338 -3.625,13.176 -9.943,16.896c-2.893,1.714 -6.197,2.615 -9.561,2.608l-1.342,0c-7.34,0 -13.171,-3.628 -16.896,-9.941c-1.717,-2.894 -2.618,-6.199 -2.607,-9.563l0,-1.341c0,-7.34 3.627,-13.176 9.939,-16.902c2.893,-1.718 6.199,-2.619 9.564,-2.608l1.342,0c4.967,0 9.181,1.925 12.735,5.053Zm-26.812,15.126c0,5.301 2.569,9.286 7.214,11.828c1.878,1.027 3.917,1.579 6.06,1.579c5.203,0 9.062,-2.454 11.724,-6.863c1.237,-2.051 1.814,-4.295 1.814,-6.681c0,-4.595 -2.175,-8.181 -5.878,-10.844c-2.245,-1.615 -4.772,-2.424 -7.528,-2.424c-5.671,0 -9.753,2.865 -12.202,7.954c-0.826,1.721 -1.204,3.548 -1.204,5.451Zm57.064,-20.179l0.938,0c7.843,0 13.807,3.804 17.587,10.65c1.511,2.739 2.32,5.728 2.32,8.86l0,1.341c0,7.338 -3.618,13.184 -9.945,16.897c-2.929,1.718 -6.165,2.607 -9.559,2.607l-1.341,0c-7.34,0 -13.173,-3.628 -16.896,-9.941c-1.718,-2.893 -2.62,-6.199 -2.61,-9.563l0,-1.341c0,-7.341 3.642,-13.157 9.939,-16.901c2.927,-1.739 6.165,-2.609 9.567,-2.609Zm-12.737,20.179c0,5.145 2.525,8.93 6.871,11.592c2.04,1.249 4.288,1.815 6.672,1.815c5.084,0 8.842,-2.578 11.457,-6.868c1.248,-2.046 1.812,-4.294 1.812,-6.676c0,-4.784 -2.304,-8.439 -6.244,-11.088c-2.159,-1.453 -4.562,-2.18 -7.161,-2.18c-5.671,0 -9.753,2.865 -12.201,7.954c-0.828,1.721 -1.206,3.548 -1.206,5.451Zm61.722,-12.865c-1.022,-0.478 -2.936,-0.637 -4.04,-0.679c-5.655,-0.213 -9.747,2.972 -12.147,7.96c-0.829,1.721 -1.207,3.543 -1.207,5.447c0,5.798 3.044,9.857 8.219,12.332c1.89,0.903 4.331,1.074 6.397,1.074c1.817,0 4.385,-1.113 5.997,-1.879l0.28,-0.133l1.252,0l0.138,0.028c1.539,0.321 2.701,1.297 2.701,2.953l0,0.67c0,4.121 -7.532,5.065 -10.406,5.266c-10.142,0.701 -17.727,-4.869 -20.618,-14.542c-0.502,-1.68 -0.729,-3.348 -0.729,-5.099l0,-1.339c0,-7.341 3.643,-13.155 9.939,-16.895c2.927,-1.738 6.164,-2.611 9.565,-2.611l1.342,0c3.607,0 6.93,1.024 9.909,3.059l0.245,0.169l0.154,0.255c0.322,0.533 0.599,1.15 0.599,1.784l0,0.67c0,1.728 -1.293,2.657 -2.853,2.958l-0.129,0.023l-0.401,0c-1.009,0 -3.306,-1.046 -4.207,-1.471Zm21.955,4.584c2.63,-2.633 5.268,-5.261 7.936,-7.85c0.744,-0.722 3.559,-3.78 4.668,-3.78l1.212,0l0.138,0.029c1.545,0.321 2.701,1.298 2.701,2.958l0,0.669c0,1.132 -1.326,2.448 -2.057,3.223c-1.555,1.648 -3.192,3.242 -4.783,4.857l-8.179,8.302c3.522,3.529 7.039,7.061 10.532,10.617c0.969,0.981 1.93,1.97 2.883,2.966c0.337,0.354 0.833,0.794 1.115,1.285c0.303,0.459 0.489,0.977 0.489,1.53l0,0.699l-0.039,0.161c-0.38,1.545 -1.36,2.791 -3.071,2.791l-0.539,0c-1.12,0 -2.385,-1.267 -3.152,-1.991c-1.581,-1.491 -3.107,-3.058 -4.657,-4.58l-5.197,-5.102l0,8.154c0,1.878 -1.176,3.387 -3.117,3.387l-0.533,0c-1.945,0 -3.119,-1.509 -3.119,-3.387l0,-45.945c0,-1.878 1.175,-3.381 3.119,-3.381l0.533,0c1.941,0 3.117,1.503 3.117,3.381l0,21.007Zm84.365,-11.63l0.672,0c2.03,0 3.385,1.368 3.385,3.387c0,2.802 -2.679,3.52 -4.996,3.52c-3.04,0 -5.943,1.84 -8.039,3.904c-2.613,2.576 -3.756,5.876 -3.756,9.503l0,16.387c0,1.878 -1.173,3.386 -3.119,3.386l-0.534,0c-1.946,0 -3.118,-1.507 -3.118,-3.386l0,-17.328c0,-6.654 3.239,-12.086 8.64,-15.895c3.224,-2.276 6.917,-3.477 10.865,-3.477l0,-0.001Zm-48.11,32.475c2.463,0.861 5.272,0.738 7.799,0.297c1.293,-0.549 4.598,-1.991 5.814,-1.78l0.19,0.032l0.175,0.086c0.742,0.36 1.451,0.869 1.83,1.625c0.885,1.77 0.46,3.551 -1.28,4.556l-0.579,0.335c-6.421,3.705 -13.25,3.192 -19.651,-0.269c-3.06,-1.655 -5.401,-4.11 -7.128,-7.104l-0.403,-0.7c-4.123,-7.138 -3.566,-14.647 1.083,-21.436c1.605,-2.346 3.702,-4.159 6.154,-5.576l0.928,-0.536c6.046,-3.491 12.527,-3.251 18.737,-0.188c3.34,1.648 6.045,4.103 7.909,7.333l0.336,0.582c1.354,2.346 -0.4,4.39 -2.211,5.788c-2.102,1.621 -4.224,3.573 -6.238,5.311c-4.492,3.878 -8.977,7.764 -13.465,11.644Zm-5.813,-4.083c5.022,-4.306 10.047,-8.617 15.057,-12.942c1.712,-1.476 3.589,-3.009 5.287,-4.561c-1.362,-1.717 -3.639,-2.955 -5.573,-3.693c-3.905,-1.488 -7.754,-0.988 -11.335,1.079c-4.686,2.706 -6.683,7.015 -6.508,12.378c0.07,2.112 0.638,4.147 1.759,5.944c0.394,0.634 0.836,1.228 1.313,1.795Zm-36.53,-135.641l19.974,0l0,20.419l10.099,0c4.665,0 9.462,-0.831 13.878,-2.327c2.171,-0.737 4.606,-1.76 6.747,-3.049c-2.819,-3.681 -4.259,-8.329 -4.682,-12.911c-0.576,-6.233 0.682,-14.344 4.899,-19.222l2.1,-2.429l2.502,2.012c6.299,5.061 11.597,12.133 12.531,20.195c7.585,-2.231 16.491,-1.704 23.176,2.155l2.743,1.583l-1.443,2.818c-5.655,11.034 -17.476,14.453 -29.033,13.848c-17.294,43.074 -54.945,63.466 -100.595,63.466c-23.586,0 -45.224,-8.817 -57.546,-29.742l-0.202,-0.341l-1.795,-3.653c-4.165,-9.21 -5.549,-19.301 -4.61,-29.383l0.282,-3.02l17.081,0l0,-20.419l19.974,0l0,-19.975l39.95,0l0,-19.974l23.97,0l0,39.949" style="fill:#364548;"/><path d="M195.895,47.795c1.339,-10.409 -6.451,-18.584 -11.281,-22.466c-5.567,6.436 -6.432,23.304 2.301,30.406c-4.874,4.329 -15.144,8.253 -25.661,8.253l-128.014,0c-1.022,10.978 0.905,21.088 5.307,29.74l1.456,2.664c0.923,1.564 1.93,3.076 3.019,4.529c5.263,0.338 10.115,0.454 14.555,0.356l0.001,0c8.724,-0.192 15.843,-1.223 21.238,-3.092c0.148,-0.046 0.302,-0.07 0.457,-0.07c0.844,0 1.538,0.695 1.538,1.539c0,0.636 -0.394,1.209 -0.988,1.436c-0.718,0.25 -1.466,0.482 -2.238,0.703l-0.002,0c-4.249,1.214 -8.804,2.03 -14.681,2.392c0.349,0.006 -0.364,0.053 -0.365,0.053c-0.2,0.013 -0.452,0.042 -0.653,0.052c-2.313,0.13 -4.81,0.157 -7.362,0.157c-2.792,0 -5.541,-0.052 -8.615,-0.209l-0.079,0.052c10.666,11.989 27.344,19.179 48.25,19.179c44.243,0 81.771,-19.613 98.389,-63.644c11.789,1.21 23.12,-1.797 28.274,-11.859c-8.21,-4.737 -18.767,-3.226 -24.846,-0.171" style="fill:#22a0c8;"/><path d="M195.895,47.795c1.339,-10.409 -6.451,-18.584 -11.281,-22.466c-5.567,6.436 -6.432,23.304 2.301,30.406c-4.874,4.329 -15.144,8.253 -25.661,8.253l-120.433,0c-0.522,16.812 5.717,29.574 16.755,37.289l0.002,0c8.724,-0.192 15.843,-1.223 21.238,-3.092c0.148,-0.046 0.302,-0.07 0.457,-0.07c0.844,0 1.538,0.695 1.538,1.539c0,0.636 -0.394,1.209 -0.988,1.436c-0.718,0.25 -1.466,0.482 -2.238,0.703l-0.002,0c-4.249,1.214 -9.195,2.135 -15.073,2.497c-0.001,0 -0.142,-0.135 -0.144,-0.135c15.058,7.724 36.89,7.696 61.922,-1.92c28.067,-10.783 54.185,-31.325 72.408,-54.821c-0.275,0.124 -0.542,0.251 -0.801,0.381" style="fill:#37b1d9;"/><path d="M33.481,77.326c0.795,5.881 2.516,11.387 5.066,16.402l1.456,2.664c0.922,1.564 1.93,3.076 3.019,4.529c5.264,0.338 10.116,0.454 14.556,0.356c8.724,-0.192 15.843,-1.223 21.238,-3.092c0.148,-0.046 0.302,-0.07 0.457,-0.07c0.844,0 1.538,0.695 1.538,1.539c0,0.636 -0.394,1.209 -0.988,1.436c-0.718,0.25 -1.466,0.482 -2.238,0.703l-0.002,0c-4.249,1.214 -9.169,2.082 -15.046,2.446c-0.202,0.012 -0.554,0.014 -0.758,0.026c-2.311,0.129 -4.782,0.209 -7.336,0.209c-2.791,0 -5.646,-0.054 -8.718,-0.21c10.666,11.988 27.447,19.205 48.353,19.205c37.877,0 70.83,-14.377 89.957,-46.143l-150.554,0" style="fill:#1b81a5;"/><path d="M41.973,77.326c2.265,10.326 7.706,18.431 15.605,23.951c8.724,-0.192 15.843,-1.223 21.238,-3.092c0.148,-0.046 0.302,-0.07 0.457,-0.07c0.844,0 1.538,0.695 1.538,1.539c0,0.636 -0.394,1.209 -0.988,1.436c-0.718,0.25 -1.466,0.482 -2.238,0.703l-0.002,0c-4.249,1.214 -9.273,2.082 -15.151,2.446c15.056,7.722 36.826,7.611 61.856,-2.004c15.142,-5.817 29.715,-14.478 42.789,-24.909l-125.104,0" style="fill:#1d91b4;"/><path d="M50.615,43.57l17.312,0l0,17.312l-17.312,0l0,-17.312Zm1.443,1.443l1.366,0l0,14.427l-1.366,0l0,-14.427Zm2.569,0l1.42,0l0,14.427l-1.42,0l0,-14.427Zm2.621,0l1.421,0l0,14.427l-1.421,0l0,-14.427Zm2.624,0l1.421,0l0,14.427l-1.421,0l0,-14.427Zm2.624,0l1.42,0l0,14.427l-1.42,0l0,-14.427Zm2.622,0l1.367,0l0,14.427l-1.367,0l0,-14.427Zm5.471,-21.418l17.314,0l0,17.311l-17.314,0l0,-17.311Zm1.444,1.444l1.365,0l0,14.425l-1.365,0l0,-14.425Zm2.569,0l1.419,0l0,14.425l-1.419,0l0,-14.425Zm2.621,0l1.421,0l0,14.425l-1.421,0l0,-14.425Zm2.624,0l1.42,0l0,14.425l-1.42,0l0,-14.425Zm2.623,0l1.421,0l0,14.425l-1.421,0l0,-14.425Zm2.622,0l1.368,0l0,14.425l-1.368,0l0,-14.425Z" style="fill:#23a3c2;"/><path d="M70.589,43.57l17.314,0l0,17.312l-17.314,0l0,-17.312Zm1.444,1.443l1.365,0l0,14.427l-1.365,0l0,-14.427Zm2.569,0l1.419,0l0,14.427l-1.419,0l0,-14.427Zm2.621,0l1.421,0l0,14.427l-1.421,0l0,-14.427Zm2.624,0l1.42,0l0,14.427l-1.42,0l0,-14.427Zm2.623,0l1.421,0l0,14.427l-1.421,0l0,-14.427Zm2.622,0l1.368,0l0,14.427l-1.368,0l0,-14.427Z" style="fill:#34bbde;"/><path d="M90.565,43.57l17.312,0l0,17.312l-17.312,0l0,-17.312Zm1.442,1.443l1.366,0l0,14.427l-1.366,0l0,-14.427Zm2.569,0l1.42,0l0,14.427l-1.42,0l0,-14.427Zm2.623,0l1.42,0l0,14.427l-1.42,0l0,-14.427Zm2.623,0l1.421,0l0,14.427l-1.421,0l0,-14.427Zm2.623,0l1.422,0l0,14.427l-1.422,0l0,-14.427Zm2.623,0l1.366,0l0,14.427l-1.366,0l0,-14.427Z" style="fill:#23a3c2;"/><path d="M90.565,23.595l17.312,0l0,17.311l-17.312,0l0,-17.311Zm1.442,1.444l1.366,0l0,14.425l-1.366,0l0,-14.425Zm2.569,0l1.42,0l0,14.425l-1.42,0l0,-14.425Zm2.623,0l1.42,0l0,14.425l-1.42,0l0,-14.425Zm2.623,0l1.421,0l0,14.425l-1.421,0l0,-14.425Zm2.623,0l1.422,0l0,14.425l-1.422,0l0,-14.425Zm2.623,0l1.366,0l0,14.425l-1.366,0l0,-14.425Zm5.472,18.531l17.312,0l0,17.312l-17.312,0l0,-17.312Zm1.443,1.443l1.365,0l0,14.427l-1.365,0l0,-14.427Zm2.568,0l1.42,0l0,14.427l-1.42,0l0,-14.427Zm2.622,0l1.421,0l0,14.427l-1.421,0l0,-14.427Zm2.624,0l1.421,0l0,14.427l-1.421,0l0,-14.427Zm2.623,0l1.421,0l0,14.427l-1.421,0l0,-14.427Zm2.623,0l1.366,0l0,14.427l-1.366,0l0,-14.427Z" style="fill:#34bbde;"/><path d="M110.54,23.595l17.312,0l0,17.311l-17.312,0l0,-17.311Zm1.443,1.444l1.365,0l0,14.425l-1.365,0l0,-14.425Zm2.568,0l1.42,0l0,14.425l-1.42,0l0,-14.425Zm2.622,0l1.421,0l0,14.425l-1.421,0l0,-14.425Zm2.624,0l1.421,0l0,14.425l-1.421,0l0,-14.425Zm2.623,0l1.421,0l0,14.425l-1.421,0l0,-14.425Zm2.623,0l1.366,0l0,14.425l-1.366,0l0,-14.425Z" style="fill:#23a3c2;"/><path d="M110.54,3.62l17.312,0l0,17.314l-17.312,0l0,-17.314Zm1.443,1.442l1.365,0l0,14.428l-1.365,0l0,-14.428Zm2.568,0l1.42,0l0,14.428l-1.42,0l0,-14.428Zm2.622,0l1.421,0l0,14.428l-1.421,0l0,-14.428Zm2.624,0l1.421,0l0,14.428l-1.421,0l0,-14.428Zm2.623,0l1.421,0l0,14.428l-1.421,0l0,-14.428Zm2.623,0l1.366,0l0,14.428l-1.366,0l0,-14.428Z" style="fill:#34bbde;"/><path d="M130.514,43.57l17.312,0l0,17.312l-17.312,0l0,-17.312Zm1.442,1.443l1.367,0l0,14.427l-1.367,0l0,-14.427Zm2.569,0l1.42,0l0,14.427l-1.42,0l0,-14.427Zm2.623,0l1.421,0l0,14.427l-1.421,0l0,-14.427Zm2.622,0l1.421,0l0,14.427l-1.421,0l0,-14.427Zm2.624,0l1.421,0l0,14.427l-1.421,0l0,-14.427Zm2.623,0l1.366,0l0,14.427l-1.366,0l0,-14.427Z" style="fill:#23a3c2;"/><path d="M86.819,88.95c0.021,-0.001 0.042,-0.001 0.063,-0.001c2.621,0 4.777,2.157 4.777,4.777c0,2.62 -2.156,4.776 -4.777,4.776c-0.022,0 -0.043,0 -0.065,0c-2.596,-0.036 -4.711,-2.181 -4.711,-4.776c0,-2.596 2.116,-4.742 4.713,-4.776" style="fill:#d3ecec;"/><path d="M86.819,90.305c0.436,0 0.853,0.082 1.237,0.231c-0.429,0.25 -0.695,0.71 -0.695,1.207c0,0.765 0.628,1.394 1.392,1.396c0.529,0 0.988,-0.292 1.225,-0.726c0.173,0.416 0.261,0.862 0.261,1.312c0,1.876 -1.543,3.419 -3.419,3.419c-1.877,0 -3.42,-1.543 -3.42,-3.419c0,-1.876 1.543,-3.42 3.419,-3.42m-84.476,-11.253l222.166,0c-4.836,-1.226 -15.304,-2.884 -13.578,-9.224c-8.797,10.178 -30.009,7.141 -35.363,2.123c-5.961,8.646 -40.667,5.359 -43.088,-1.377c-7.474,8.771 -30.632,8.771 -38.106,0c-2.423,6.736 -37.128,10.023 -43.09,1.376c-5.353,5.019 -26.564,8.056 -35.361,-2.121c1.726,6.339 -8.741,7.997 -13.58,9.224" style="fill:#364548;"/><path d="M99.514,123.366c-11.828,-5.613 -18.319,-13.243 -21.931,-21.572c-4.394,1.254 -9.675,2.056 -15.812,2.4c-2.311,0.129 -4.743,0.196 -7.294,0.196c-2.942,0 -6.042,-0.088 -9.297,-0.26c10.847,10.841 24.19,19.187 48.898,19.339c1.824,0 3.634,-0.035 5.436,-0.103" style="fill:#bdd9d7;"/><path d="M81.976,109.48c-1.637,-2.222 -3.224,-5.013 -4.391,-7.687c-4.394,1.255 -9.676,2.057 -15.814,2.402c4.216,2.288 10.244,4.408 20.205,5.285" style="fill:#d3ecec;"/></g></svg>