<?xml version="1.0" encoding="UTF-8" standalone="no"?><!DOCTYPE svg PUBLIC "-//W3C//DTD SVG 1.1//EN" "http://www.w3.org/Graphics/SVG/1.1/DTD/svg11.dtd"><svg width="100%" height="100%" viewBox="0 0 713 117" version="1.1" xmlns="http://www.w3.org/2000/svg" xmlns:xlink="http://www.w3.org/1999/xlink" xml:space="preserve" xmlns:serif="http://www.serif.com/" style="fill-rule:evenodd;clip-rule:evenodd;stroke-linejoin:round;stroke-miterlimit:2;"><clipPath id="_clip1"><rect id="Google_Cloud_Logo" x="2.002" y="4.029" width="707.352" height="110.816"/></clipPath><g clip-path="url(#_clip1)"><g><g><path d="M85.285,33.088l3.92,0l11.397,-11.397l0.559,-4.841c-21.212,-18.725 -53.586,-16.702 -72.311,4.511c-5.203,5.887 -8.973,12.9 -11.035,20.488c1.267,-0.52 2.676,-0.606 3.998,-0.236l22.795,-3.763c0,0 1.157,-1.92 1.763,-1.802c10.138,-11.138 27.202,-12.436 38.914,-2.96Z" style="fill:#ea4335;fill-rule:nonzero;"/><path d="M116.84,41.849c-2.621,-9.65 -7.997,-18.324 -15.474,-24.951l-15.994,15.994c6.753,5.517 10.602,13.837 10.437,22.558l0,2.841c7.863,0 14.238,6.376 14.238,14.239c0,7.863 -6.375,14.239 -14.238,14.239l-28.478,0l-2.841,2.88l0,17.081l2.841,2.841l28.478,0c20.449,0.157 37.159,-16.293 37.316,-36.742c0.095,-12.42 -6.021,-24.038 -16.285,-30.98Z" style="fill:#4285f4;fill-rule:nonzero;"/><path d="M38.815,109.39l28.477,0l0,-22.794l-28.477,0c-2.031,0 -4.03,-0.441 -5.88,-1.283l-3.998,1.243l-11.476,11.397l-1,3.999c6.431,4.864 14.286,7.477 22.354,7.438Z" style="fill:#34a853;fill-rule:nonzero;"/><path d="M38.815,35.45c-20.457,0.118 -36.931,16.796 -36.813,37.253c0.071,11.421 5.399,22.173 14.459,29.131l16.513,-16.514c-7.162,-3.235 -10.35,-11.672 -7.115,-18.835c3.235,-7.163 11.673,-10.35 18.835,-7.115c3.157,1.424 5.683,3.959 7.116,7.115l16.513,-16.513c-7.021,-9.194 -17.946,-14.57 -29.508,-14.522Z" style="fill:#fbbc05;fill-rule:nonzero;"/></g><g><g><path d="M208.939,93.475c-9.91,0.126 -19.434,-3.786 -26.392,-10.839c-7.186,-6.753 -11.2,-16.214 -11.074,-26.076c-0.118,-9.863 3.896,-19.316 11.074,-26.077c6.927,-7.123 16.458,-11.114 26.392,-11.035c9.461,-0.126 18.583,3.55 25.313,10.201l-7.116,7.241c-4.872,-4.715 -11.42,-7.296 -18.197,-7.202c-7.108,-0.086 -13.932,2.818 -18.796,7.997c-5.053,5.014 -7.84,11.877 -7.722,18.993c-0.063,7.036 2.724,13.798 7.722,18.756c10.295,10.264 26.895,10.461 37.434,0.441c3.141,-3.432 5.061,-7.808 5.478,-12.436l-23.998,0l0,-10.232l33.955,0c0.331,2.062 0.465,4.148 0.402,6.241c0.425,8.729 -2.739,17.254 -8.761,23.598c-6.698,6.966 -16.049,10.759 -25.714,10.429Zm78.946,-6.801c-9.469,9.076 -24.408,9.076 -33.877,0c-4.589,-4.447 -7.092,-10.61 -6.918,-16.993c-0.174,-6.384 2.337,-12.547 6.918,-16.994c9.477,-9.051 24.4,-9.051 33.877,0c4.581,4.447 7.092,10.61 6.919,16.994c0.165,6.391 -2.362,12.554 -6.958,16.993l0.039,0Zm-26.399,-6.674c4.887,5.226 13.089,5.494 18.315,0.598c0.205,-0.197 0.41,-0.394 0.599,-0.598c2.668,-2.763 4.108,-6.478 3.998,-10.319c0.118,-3.849 -1.322,-7.588 -3.998,-10.359c-5.03,-5.242 -13.357,-5.423 -18.607,-0.393c-0.134,0.126 -0.268,0.26 -0.394,0.393c-2.676,2.771 -4.117,6.51 -3.998,10.359c-0.103,3.841 1.353,7.564 4.037,10.319l0.048,0Zm78.466,6.674c-9.469,9.076 -24.408,9.076 -33.877,0c-4.589,-4.447 -7.092,-10.61 -6.919,-16.993c-0.173,-6.384 2.338,-12.547 6.919,-16.994c9.469,-9.075 24.408,-9.075 33.877,0c4.581,4.447 7.091,10.61 6.918,16.994c0.181,6.383 -2.329,12.546 -6.918,16.993Zm-26.392,-6.674c4.888,5.226 13.09,5.494 18.316,0.598c0.205,-0.197 0.409,-0.394 0.598,-0.598c2.669,-2.763 4.109,-6.478 3.999,-10.319c0.118,-3.849 -1.323,-7.588 -3.999,-10.359c-5.029,-5.242 -13.357,-5.423 -18.599,-0.393c-0.134,0.126 -0.268,0.26 -0.393,0.393c-2.677,2.771 -4.117,6.51 -3.999,10.359c-0.102,3.841 1.354,7.564 4.038,10.319l0.039,0Zm60.623,34.829c-4.794,0.149 -9.493,-1.346 -13.318,-4.243c-3.392,-2.55 -6.069,-5.942 -7.761,-9.838l9.115,-3.802c0.992,2.33 2.542,4.376 4.518,5.958c2.109,1.7 4.762,2.598 7.477,2.519c3.479,0.212 6.879,-1.102 9.32,-3.597c2.408,-2.904 3.597,-6.635 3.321,-10.398l0,-3.439l-0.362,0c-3.093,3.668 -7.729,5.667 -12.515,5.399c-6.068,0.016 -11.869,-2.503 -15.994,-6.958c-4.471,-4.415 -6.942,-10.468 -6.84,-16.757c-0.11,-6.321 2.362,-12.413 6.84,-16.876c4.117,-4.47 9.918,-7.013 15.994,-6.997c2.542,-0.008 5.061,0.559 7.359,1.637c1.992,0.866 3.763,2.165 5.203,3.802l0.362,0l0,-3.802l9.918,0l0,42.59c0.527,6.809 -1.771,13.538 -6.36,18.599c-4.368,4.18 -10.232,6.415 -16.277,6.203Zm0.724,-30.713c3.455,0.079 6.769,-1.393 9.036,-3.998c2.463,-2.826 3.77,-6.486 3.636,-10.241c0.15,-3.817 -1.149,-7.54 -3.636,-10.436c-2.267,-2.614 -5.581,-4.078 -9.036,-3.999c-3.55,-0.071 -6.958,1.385 -9.359,3.999c-2.644,2.794 -4.085,6.517 -3.998,10.358c-0.079,3.809 1.354,7.493 3.998,10.24c2.385,2.637 5.793,4.124 9.359,4.077Zm39.552,-61.984l0,69.902l-10.437,0l0,-69.902l10.437,0Zm28.634,71.343c-6.32,0.165 -12.42,-2.314 -16.836,-6.84c-4.478,-4.487 -6.926,-10.618 -6.761,-16.954c-0.236,-6.352 2.117,-12.531 6.517,-17.12c4.156,-4.376 9.965,-6.8 15.994,-6.682c2.747,-0.032 5.463,0.504 7.997,1.558c2.283,0.921 4.361,2.283 6.116,3.999c1.511,1.456 2.849,3.077 3.998,4.84c0.929,1.488 1.716,3.054 2.362,4.676l1.078,2.723l-31.988,13.16c1.984,4.55 6.557,7.415 11.516,7.202c4.793,0.016 9.24,-2.495 11.72,-6.595l7.996,5.399c-2.038,2.92 -4.651,5.4 -7.682,7.281c-3.589,2.267 -7.776,3.431 -12.027,3.353Zm-13.357,-24.518l21.276,-8.84c-0.654,-1.558 -1.826,-2.841 -3.322,-3.636c-1.669,-0.944 -3.558,-1.425 -5.478,-1.401c-3.251,0.087 -6.344,1.448 -8.595,3.802c-2.731,2.613 -4.156,6.304 -3.881,10.075Z" style="fill:#5f6368;fill-rule:nonzero;"/></g><g><path d="M518.238,93.475c-18.198,0.315 -33.2,-14.184 -33.515,-32.382c-0.008,-0.44 -0.008,-0.889 0.008,-1.33c-0.425,-18.198 13.987,-33.286 32.177,-33.711c0.441,-0.008 0.889,-0.008 1.33,-0.008c9.099,-0.284 17.836,3.605 23.715,10.555l-5.761,5.596c-4.321,-5.439 -10.98,-8.485 -17.915,-8.201c-6.651,-0.15 -13.081,2.424 -17.796,7.115c-4.904,4.935 -7.525,11.688 -7.241,18.638c-0.292,6.951 2.337,13.704 7.241,18.639c4.715,4.699 11.145,7.265 17.796,7.115c7.745,0.087 15.105,-3.36 19.993,-9.358l5.761,5.761c-3.014,3.605 -6.8,6.486 -11.074,8.438c-4.613,2.141 -9.642,3.211 -14.719,3.133Z" style="fill:#5f6368;fill-rule:nonzero;"/><rect x="551.225" y="27.445" width="8.28" height="64.59" style="fill:#5f6368;fill-rule:nonzero;"/><path d="M573.028,53.159c9.028,-8.965 23.605,-8.965 32.633,0c4.282,4.526 6.588,10.571 6.399,16.797c0.189,6.226 -2.117,12.271 -6.399,16.797c-9.028,8.965 -23.605,8.965 -32.633,0c-4.282,-4.526 -6.588,-10.571 -6.399,-16.797c-0.189,-6.226 2.109,-12.271 6.399,-16.797Zm6.155,28.399c5.297,5.596 14.129,5.84 19.733,0.543c0.189,-0.173 0.37,-0.362 0.543,-0.543c2.92,-3.133 4.463,-7.312 4.282,-11.594c0.189,-4.282 -1.354,-8.461 -4.282,-11.594c-5.297,-5.596 -14.128,-5.84 -19.733,-0.543c-0.189,0.173 -0.37,0.362 -0.543,0.543c-2.92,3.133 -4.463,7.312 -4.282,11.594c-0.165,4.274 1.394,8.438 4.322,11.555l-0.04,0.039Z" style="fill:#5f6368;fill-rule:nonzero;"/><path d="M657.933,92.034l-8.005,0l0,-6.115l-0.236,0c-1.425,2.322 -3.44,4.226 -5.841,5.517c-2.487,1.441 -5.32,2.204 -8.201,2.196c-4.738,0.323 -9.359,-1.535 -12.554,-5.037c-3.031,-3.833 -4.55,-8.643 -4.282,-13.515l0,-27.194l8.28,0l0,25.675c0,8.241 3.637,12.358 10.917,12.358c3.282,0.102 6.407,-1.386 8.399,-3.999c2.148,-2.715 3.29,-6.092 3.242,-9.555l0,-24.479l8.281,0l0,44.148Z" style="fill:#5f6368;fill-rule:nonzero;"/><path d="M686.04,93.475c-5.683,0.016 -11.09,-2.448 -14.797,-6.761c-4.148,-4.581 -6.368,-10.579 -6.203,-16.758c-0.165,-6.179 2.055,-12.176 6.203,-16.757c3.707,-4.306 9.114,-6.777 14.797,-6.761c3.149,-0.048 6.258,0.692 9.036,2.156c2.448,1.228 4.518,3.094 5.998,5.4l0.362,0l-0.362,-6.116l0,-20.433l8.28,0l0,64.589l-7.997,0l0,-6.115l-0.362,0c-1.48,2.306 -3.55,4.171 -5.998,5.399c-2.755,1.448 -5.832,2.196 -8.957,2.157Zm1.362,-7.556c3.786,0.055 7.414,-1.519 9.957,-4.322c2.81,-3.203 4.25,-7.383 3.998,-11.641c0.252,-4.25 -1.188,-8.438 -3.998,-11.641c-5.022,-5.525 -13.57,-5.927 -19.095,-0.897c-0.315,0.283 -0.614,0.59 -0.898,0.897c-2.818,3.18 -4.258,7.351 -3.998,11.594c-0.26,4.242 1.18,8.414 3.998,11.594c2.55,2.865 6.21,4.471 10.036,4.416Z" style="fill:#5f6368;fill-rule:nonzero;"/></g></g></g></g></svg>