<?xml version="1.0" encoding="UTF-8" standalone="no"?><!DOCTYPE svg PUBLIC "-//W3C//DTD SVG 1.1//EN" "http://www.w3.org/Graphics/SVG/1.1/DTD/svg11.dtd"><svg width="100%" height="100%" viewBox="0 0 525 221" version="1.1" xmlns="http://www.w3.org/2000/svg" xmlns:xlink="http://www.w3.org/1999/xlink" xml:space="preserve" xmlns:serif="http://www.serif.com/" style="fill-rule:evenodd;clip-rule:evenodd;stroke-linejoin:round;stroke-miterlimit:2;"><path d="M313.313,76.309c-11.325,0 -19.758,5.56 -19.758,18.943c0,10.082 5.558,17.083 19.147,17.083c11.519,0 19.344,-6.789 19.344,-17.502c0,-12.141 -7.001,-18.524 -18.733,-18.524Zm-22.641,94.493c-2.681,3.288 -5.352,6.785 -5.352,10.906c0,8.229 10.493,10.706 24.907,10.706c11.938,0 28.202,-0.838 28.202,-11.938c0,-6.598 -7.824,-7.005 -17.71,-7.624l-30.047,-2.05Zm60.929,-93.872c3.699,4.735 7.616,11.325 7.616,20.792c0,22.848 -17.908,36.227 -43.84,36.227c-6.594,0 -12.563,-0.822 -16.264,-1.85l-6.796,10.906l20.171,1.234c35.615,2.271 56.604,3.303 56.604,30.669c0,23.677 -20.785,37.05 -56.604,37.05c-37.257,0 -51.461,-9.47 -51.461,-25.729c0,-9.263 4.118,-14.194 11.323,-20.999c-6.795,-2.871 -9.057,-8.015 -9.057,-13.577c0,-4.532 2.262,-8.646 5.973,-12.561c3.703,-3.905 7.819,-7.82 12.76,-12.349c-10.085,-4.941 -17.705,-15.644 -17.705,-30.88c0,-23.668 15.647,-39.924 47.135,-39.924c8.854,0 14.208,0.814 18.943,2.058l40.143,0l0,17.49l-18.941,1.443Zm55.156,-37.406c-11.736,0 -18.528,-6.799 -18.528,-18.537c0,-11.721 6.79,-18.109 18.528,-18.109c11.938,0 18.732,6.388 18.732,18.109c0,11.738 -6.792,18.537 -18.732,18.537Zm-26.559,123.703l0,-16.254l10.501,-1.437c2.884,-0.414 3.292,-1.029 3.292,-4.123l0,-60.519c0,-2.258 -0.615,-3.707 -2.681,-4.318l-11.112,-3.916l2.262,-16.668l42.614,0l0,85.421c0,3.298 0.199,3.709 3.296,4.125l10.498,1.437l0,16.252l-58.67,0Zm140.072,-7.98c-8.854,4.32 -21.822,8.231 -33.56,8.231c-24.495,0 -33.753,-9.87 -33.753,-33.143l0,-53.925c0,-1.234 0,-2.058 -1.654,-2.058l-14.406,0l0,-18.326c18.119,-2.064 25.318,-11.12 27.583,-33.557l19.558,0l0,29.237c0,1.437 0,2.058 1.649,2.058l29.021,0l0,20.584l-30.67,0l0,49.194c0,12.145 2.885,16.875 13.995,16.875c5.771,0 11.734,-1.436 16.673,-3.29l5.564,18.118" style="fill:#2f2707;fill-rule:nonzero;"/><path d="M215.27,101.229l-94.119,-94.114c-2.602,-2.603 -6.136,-4.067 -9.816,-4.067c-3.681,0 -7.215,1.464 -9.817,4.067l-19.544,19.546l24.793,24.79c5.935,-2.018 12.529,-0.482 16.962,3.952c4.457,4.463 5.981,11.106 3.917,17.065l23.89,23.894c5.781,-1.991 12.452,-0.702 17.067,3.922c3.098,3.095 4.84,7.3 4.84,11.68c0,4.379 -1.742,8.584 -4.84,11.68c-3.097,3.1 -7.304,4.843 -11.686,4.843c-9.062,0 -16.519,-7.457 -16.519,-16.519c0,-2.158 0.423,-4.296 1.246,-6.292l-22.282,-22.281l-0.002,58.637c1.616,0.799 3.091,1.854 4.369,3.124c3.097,3.097 4.839,7.302 4.839,11.682c0,4.38 -1.742,8.585 -4.839,11.682c-6.455,6.455 -16.916,6.455 -23.36,0c-3.099,-3.097 -4.843,-7.303 -4.843,-11.685c0,-6.688 4.062,-12.744 10.249,-15.283l0,-59.183c-2.025,-0.828 -3.864,-2.054 -5.406,-3.606c-4.889,-4.882 -6.064,-12.055 -3.559,-18.059l-24.439,-24.442l-64.533,64.53c-2.604,2.603 -4.068,6.137 -4.068,9.819c0,3.682 1.464,7.216 4.068,9.819l94.119,94.116c5.386,5.384 14.247,5.384 19.633,0l93.68,-93.677c5.385,-5.388 5.385,-14.252 0,-19.64" style="fill:#de4c36;fill-rule:nonzero;"/></svg>