<?xml version="1.0" encoding="UTF-8" standalone="no"?><!DOCTYPE svg PUBLIC "-//W3C//DTD SVG 1.1//EN" "http://www.w3.org/Graphics/SVG/1.1/DTD/svg11.dtd"><svg width="100%" height="100%" viewBox="0 0 455 175" version="1.1" xmlns="http://www.w3.org/2000/svg" xmlns:xlink="http://www.w3.org/1999/xlink" xml:space="preserve" xmlns:serif="http://www.serif.com/" style="fill-rule:evenodd;clip-rule:evenodd;stroke-linejoin:round;stroke-miterlimit:2;"><g><path d="M36.421,56.617c-0.874,0 -1.092,-0.437 -0.655,-1.092l4.585,-5.895c0.437,-0.655 1.529,-1.092 2.402,-1.092l77.951,0c0.874,0 1.092,0.655 0.655,1.31l-3.712,5.677c-0.436,0.655 -1.528,1.31 -2.183,1.31l-79.043,-0.218Z" style="fill:#00acd7;"/><path d="M3.45,76.705c-0.874,0 -1.092,-0.437 -0.655,-1.092l4.585,-5.895c0.437,-0.655 1.529,-1.092 2.402,-1.092l99.568,0c0.873,0 1.31,0.655 1.092,1.31l-1.747,5.241c-0.218,0.873 -1.092,1.31 -1.965,1.31l-103.28,0.218Z" style="fill:#00acd7;"/><path d="M56.291,96.793c-0.874,0 -1.092,-0.655 -0.655,-1.31l3.057,-5.458c0.436,-0.656 1.31,-1.311 2.183,-1.311l43.67,0c0.874,0 1.31,0.655 1.31,1.529l-0.436,5.24c0,0.874 -0.874,1.529 -1.529,1.529l-47.6,-0.219Z" style="fill:#00acd7;"/><g><path d="M282.939,52.687c-13.756,3.493 -23.145,6.113 -36.683,9.607c-3.275,0.873 -3.494,1.092 -6.332,-2.184c-3.275,-3.712 -5.677,-6.113 -10.263,-8.297c-13.756,-6.769 -27.075,-4.804 -39.521,3.275c-14.848,9.608 -22.49,23.801 -22.272,41.487c0.218,17.468 12.228,31.879 29.477,34.281c14.848,1.965 27.294,-3.275 37.12,-14.411c1.965,-2.402 3.712,-5.022 5.896,-8.079l-42.142,0c-4.586,0 -5.677,-2.839 -4.149,-6.551c2.839,-6.768 8.079,-18.123 11.136,-23.8c0.655,-1.31 2.184,-3.493 5.459,-3.493l79.48,0c-0.437,5.895 -0.437,11.791 -1.311,17.686c-2.401,15.721 -8.297,30.132 -17.904,42.797c-15.722,20.743 -36.247,33.626 -62.23,37.119c-21.399,2.839 -41.269,-1.31 -58.737,-14.411c-16.158,-12.227 -25.328,-28.385 -27.73,-48.474c-2.839,-23.8 4.148,-45.198 18.56,-63.976c15.502,-20.307 36.027,-33.19 61.138,-37.775c20.525,-3.712 40.176,-1.31 57.863,10.699c11.572,7.642 19.87,18.123 25.328,30.788c1.311,1.965 0.437,3.056 -2.183,3.712Z" style="fill:#00acd7;"/><path d="M355.213,173.435c-19.87,-0.437 -37.993,-6.114 -53.278,-19.215c-12.882,-11.136 -20.961,-25.329 -23.581,-42.142c-3.931,-24.674 2.838,-46.509 17.686,-65.942c15.94,-20.962 35.155,-31.879 61.138,-36.465c22.272,-3.93 43.234,-1.746 62.23,11.136c17.25,11.791 27.949,27.731 30.788,48.693c3.712,29.477 -4.804,53.496 -25.111,74.021c-14.411,14.629 -32.097,23.8 -52.404,27.948c-5.895,1.092 -11.791,1.311 -17.468,1.966Zm51.968,-88.214c-0.219,-2.839 -0.219,-5.022 -0.655,-7.206c-3.931,-21.617 -23.801,-33.844 -44.544,-29.04c-20.307,4.585 -33.408,17.468 -38.211,37.993c-3.931,17.031 4.367,34.281 20.088,41.268c12.009,5.24 24.018,4.585 35.591,-1.31c17.25,-8.953 26.639,-22.927 27.731,-41.705Z" style="fill:#00acd7;fill-rule:nonzero;"/></g></g></svg>