<?xml version="1.0" encoding="UTF-8" standalone="no"?><!DOCTYPE svg PUBLIC "-//W3C//DTD SVG 1.1//EN" "http://www.w3.org/Graphics/SVG/1.1/DTD/svg11.dtd"><svg width="100%" height="100%" viewBox="0 0 205 284" version="1.1" xmlns="http://www.w3.org/2000/svg" xmlns:xlink="http://www.w3.org/1999/xlink" xml:space="preserve" xmlns:serif="http://www.serif.com/" style="fill-rule:evenodd;clip-rule:evenodd;stroke-linejoin:round;stroke-miterlimit:2;"><path d="M201.883,55.905l-18.162,203.46l-81.638,22.632l-81.414,-22.601l-18.143,-203.491l199.357,0Z" style="fill:#e44d26;fill-rule:nonzero;"/><path d="M102.205,264.697l65.968,-18.288l15.519,-173.866l-81.487,0l0,192.154Z" style="fill:#f16529;fill-rule:nonzero;"/><path d="M66.899,122.459l35.306,0l0,-24.958l-62.581,0l0.597,6.696l6.134,68.775l55.85,0l0,-24.957l-33.025,0l-2.281,-25.556Zm5.624,62.993l-25.053,0l3.496,39.186l51.124,14.191l0.115,-0.031l0,-25.966l-0.11,0.029l-27.794,-7.505l-1.778,-19.904Z" style="fill:#ebebeb;fill-rule:nonzero;"/><path d="M21.075,0.605l12.682,0l0,12.531l11.602,0l0,-12.531l12.684,0l0,37.946l-12.683,0l0,-12.707l-11.602,0l0,12.707l-12.683,0l0,-37.946Zm53.648,12.584l-11.166,0l0,-12.584l35.02,0l0,12.584l-11.171,0l0,25.362l-12.683,0l0,-25.362Zm29.412,-12.584l13.224,0l8.135,13.333l8.127,-13.333l13.23,0l0,37.946l-12.631,0l0,-18.808l-8.726,13.492l-0.219,0l-8.731,-13.492l0,18.808l-12.409,0l0,-37.946Zm49.027,0l12.688,0l0,25.403l17.836,0l0,12.543l-30.524,0l0,-37.946Z" style="fill-rule:nonzero;"/><path d="M102.119,172.972l30.732,0l-2.898,32.368l-27.835,7.513l0,25.965l51.164,-14.18l0.375,-4.216l5.866,-65.705l0.608,-6.702l-58.012,0l0,24.957Zm0,-75.471l0,24.958l60.283,0l0.5,-5.61l1.138,-12.652l0.597,-6.696l-62.518,0Z" style="fill:#fff;fill-rule:nonzero;"/></svg>