<?xml version="1.0" encoding="UTF-8" standalone="no"?><!DOCTYPE svg PUBLIC "-//W3C//DTD SVG 1.1//EN" "http://www.w3.org/Graphics/SVG/1.1/DTD/svg11.dtd"><svg width="100%" height="100%" viewBox="0 0 800 209" version="1.1" xmlns="http://www.w3.org/2000/svg" xmlns:xlink="http://www.w3.org/1999/xlink" xml:space="preserve" xmlns:serif="http://www.serif.com/" style="fill-rule:evenodd;clip-rule:evenodd;stroke-linejoin:round;stroke-miterlimit:2;"><g><g id="logo"><rect id="background" x="1.793" y="0.571" width="196.069" height="196.069" style="fill:#f7df1e;"/><path id="j" d="M53.347,164.421l15.004,-9.081c2.895,5.133 5.528,9.475 11.845,9.475c6.054,0 9.871,-2.368 9.871,-11.58l0,-62.649l18.426,0l0,62.909c0,19.084 -11.187,27.771 -27.508,27.771c-14.74,0 -23.295,-7.634 -27.638,-16.846" style="fill-rule:nonzero;"/><path id="s" d="M118.501,162.447l15.002,-8.687c3.95,6.45 9.083,11.188 18.164,11.188c7.634,0 12.503,-3.817 12.503,-9.082c0,-6.317 -5.001,-8.555 -13.425,-12.239l-4.605,-1.976c-13.294,-5.658 -22.112,-12.765 -22.112,-27.769c0,-13.819 10.529,-24.349 26.981,-24.349c11.713,0 20.137,4.08 26.19,14.741l-14.346,9.213c-3.159,-5.659 -6.58,-7.896 -11.844,-7.896c-5.396,0 -8.819,3.422 -8.819,7.896c0,5.528 3.423,7.765 11.319,11.188l4.606,1.974c15.662,6.712 24.48,13.556 24.48,28.954c0,16.584 -13.029,25.665 -30.533,25.665c-17.11,0 -28.166,-8.16 -33.561,-18.821" style="fill-rule:nonzero;"/></g><path d="M256.233,180.993c16.281,0 27.442,-8.666 27.442,-27.705l0,-62.761l-18.382,0l0,62.499c0,9.191 -3.808,11.554 -9.848,11.554c-6.302,0 -8.928,-4.333 -11.817,-9.453l-14.968,9.059c4.333,9.191 12.868,16.807 27.573,16.807Z" style="fill-rule:nonzero;"/><path d="M330.024,146.592l-12.999,0c-13.786,0 -22.846,4.858 -22.846,16.807c0,12.998 9.453,17.594 19.695,17.594c7.484,0 12.342,-2.495 16.544,-8.929l-0.394,7.747l17.594,0l0,-31.775c0,-17.594 -10.898,-25.34 -25.21,-25.34c-13.13,0 -19.038,4.07 -24.29,9.191l9.847,10.504c2.495,-2.233 6.04,-5.121 12.736,-5.121c5.909,0 9.06,2.888 9.323,9.322Zm0,10.504l0,2.232c0,4.727 -3.677,7.878 -10.898,7.878c-4.99,0 -7.616,-1.838 -7.616,-4.989c0,-3.151 1.97,-5.121 6.434,-5.121l12.08,0Z" style="fill-rule:nonzero;"/><path d="M383.069,180.993l1.707,0l29.936,-57.116l-17.988,0l-7.615,16.675c-2.495,5.646 -4.333,14.837 -4.333,14.837c0,0 -1.97,-9.191 -4.596,-14.837l-7.878,-16.675l-19.563,0l30.33,57.116Z" style="fill-rule:nonzero;"/><path d="M452.527,146.592l-12.999,0c-13.787,0 -22.846,4.858 -22.846,16.807c0,12.998 9.453,17.594 19.695,17.594c7.484,0 12.342,-2.495 16.544,-8.929l-0.394,7.747l17.594,0l0,-31.775c0,-17.594 -10.898,-25.34 -25.21,-25.34c-13.13,0 -19.038,4.07 -24.29,9.191l9.847,10.504c2.495,-2.233 6.04,-5.121 12.736,-5.121c5.909,0 9.06,2.888 9.323,9.322Zm0,10.504l0,2.232c0,4.727 -3.677,7.878 -10.898,7.878c-4.99,0 -7.616,-1.838 -7.616,-4.989c0,-3.151 1.97,-5.121 6.434,-5.121l12.08,0Z" style="fill-rule:nonzero;"/><path d="M505.047,180.993c17.594,0 22.977,-8.403 22.977,-18.645c0,-11.817 -10.241,-15.625 -18.382,-17.463c-7.615,-1.707 -11.16,-2.101 -11.16,-5.252c0,-2.232 1.969,-3.282 6.039,-3.282c4.202,0 8.141,1.969 10.767,4.201l9.454,-10.11c-4.596,-4.727 -11.161,-7.746 -20.352,-7.746c-11.948,0 -21.664,5.12 -21.664,17.725c0,11.686 8.534,15.887 16.15,17.857c9.059,2.363 12.604,2.363 12.604,5.383c0,2.364 -1.838,3.414 -7.615,3.414c-5.252,0 -10.11,-2.232 -13.918,-5.909l-10.373,9.192c4.859,5.777 12.474,10.635 25.473,10.635Z" style="fill-rule:nonzero;"/><path d="M567.546,180.993c11.16,0 17.725,-3.939 23.24,-10.11l-11.949,-10.504c-2.626,2.626 -5.646,5.252 -11.291,5.252c-8.01,0 -12.474,-5.778 -12.474,-13.918c0,-7.878 4.464,-13.524 12.474,-13.524c4.464,0 8.797,2.495 10.897,5.908l12.605,-10.241c-5.646,-7.09 -12.342,-11.16 -23.502,-11.16c-17.463,0 -30.593,12.079 -30.593,29.017c0,17.2 13.13,29.28 30.593,29.28Z" style="fill-rule:nonzero;"/><path d="M601.552,179.811l17.726,0l0,-24.816c0,-11.948 4.333,-15.624 12.342,-15.624c2.495,0 4.595,0.656 6.828,1.707l5.645,-16.15c-2.232,-1.182 -4.989,-2.232 -8.665,-2.232c-5.778,0 -12.343,2.1 -16.413,11.291l0.263,-10.11l-17.726,0l0,55.934Z" style="fill-rule:nonzero;"/><path d="M662.607,114.555c6.04,0 11.16,-4.596 11.16,-11.161c0,-6.433 -5.12,-11.029 -11.16,-11.029c-6.04,0 -11.292,4.596 -11.292,11.029c0,6.565 5.252,11.161 11.292,11.161Zm-8.929,65.256l17.726,0l0,-55.934l-17.726,0l0,55.934Z" style="fill-rule:nonzero;"/><path d="M685.978,207.647l17.726,0l0,-35.32c2.888,5.121 8.665,8.666 17.2,8.666c13.655,0 25.341,-12.08 25.341,-29.28c0,-17.2 -11.423,-29.017 -24.947,-29.017c-8.666,0 -14.574,3.807 -17.988,9.847l0.394,-8.666l-17.726,0l0,83.77Zm29.805,-42.148c-7.615,0 -12.605,-4.989 -12.605,-13.786c0,-8.272 4.99,-13.393 12.605,-13.393c7.484,0 12.211,5.121 12.211,13.393c0,8.797 -4.727,13.786 -12.211,13.786Z" style="fill-rule:nonzero;"/><path d="M781.171,181.255c8.14,0 12.867,-2.888 15.624,-5.12l-6.696,-12.343c-1.182,0.788 -3.282,2.364 -6.171,2.364c-2.757,0 -4.596,-1.182 -4.596,-6.828l0,-20.745l14.312,0l0,-14.706l-14.312,0l0,-29.148l-17.594,0l0,29.148l-8.272,0l0,14.706l8.272,0l0,20.22c0,16.807 8.141,22.452 19.433,22.452Z" style="fill-rule:nonzero;"/></g></svg>