<?xml version="1.0" encoding="UTF-8" standalone="no"?><!DOCTYPE svg PUBLIC "-//W3C//DTD SVG 1.1//EN" "http://www.w3.org/Graphics/SVG/1.1/DTD/svg11.dtd"><svg width="100%" height="100%" viewBox="0 0 913 284" version="1.1" xmlns="http://www.w3.org/2000/svg" xmlns:xlink="http://www.w3.org/1999/xlink" xml:space="preserve" xmlns:serif="http://www.serif.com/" style="fill-rule:evenodd;clip-rule:evenodd;"><clipPath id="_clip1"><rect id="jenkins" x="1.208" y="1.176" width="908.79" height="278.453"/></clipPath><g clip-path="url(#_clip1)"><path d="M199.601,135.355c0,55.169 -43.723,99.892 -97.66,99.892c-53.935,0 -97.658,-44.723 -97.658,-99.892c0,-55.169 43.723,-99.892 97.658,-99.892c53.937,0 97.66,44.724 97.66,99.893" style="fill:#d33833;fill-rule:nonzero;"/><path d="M8.263,160.096c0,0 -7.069,-104.172 88.917,-107.147l-6.696,-11.161l-52.084,17.484l-14.883,17.115l-13.022,24.927l-7.441,29.019l2.232,19.345" style="fill:#ef3d3a;fill-rule:nonzero;"/><path d="M35.053,67.211c-17.134,17.532 -27.738,41.738 -27.738,68.518c0,26.771 10.604,50.981 27.738,68.511c17.144,17.528 40.769,28.345 66.887,28.345c26.12,0 49.747,-10.816 66.89,-28.345c17.132,-17.529 27.737,-41.738 27.737,-68.511c0,-26.78 -10.606,-50.986 -27.737,-68.518c-17.143,-17.525 -40.769,-28.34 -66.89,-28.343c-26.118,0.002 -49.743,10.818 -66.887,28.343Zm-4.336,141.269c-18.21,-18.623 -29.469,-44.36 -29.469,-72.751c0,-28.396 11.259,-54.131 29.467,-72.756c18.206,-18.629 43.407,-30.174 71.225,-30.171c27.817,-0.003 53.02,11.542 71.223,30.171c18.212,18.625 29.472,44.363 29.469,72.756c0.002,28.39 -11.257,54.127 -29.469,72.751c-18.203,18.627 -43.406,30.172 -71.223,30.172c-27.817,0 -53.019,-11.545 -71.223,-30.172" style="fill:#231f20;fill-rule:nonzero;"/><path d="M143.052,135.909l-14.883,2.232l-20.09,2.232l-13.021,0.372l-12.65,-0.372l-9.672,-2.976l-8.557,-9.301l-6.696,-18.974l-1.489,-4.093l-8.929,-2.975l-5.208,-8.557l-3.721,-12.278l4.092,-10.789l9.674,-3.349l7.813,3.722l3.72,8.184l4.464,-0.744l1.488,-1.859l-1.488,-8.558l-0.371,-10.79l2.232,-14.88l-0.087,-8.501l6.783,-10.844l11.905,-8.557l20.834,-8.929l23.067,3.348l20.09,14.509l9.3,14.882l5.954,10.789l1.488,26.787l-4.465,23.067l-8.184,20.461l-7.813,10.79" style="fill:#f0d6b7;fill-rule:nonzero;"/><path d="M130.401,200.271l-53.201,2.232l0,8.929l4.465,31.252l-2.233,2.604l-37.204,-12.649l-2.603,-4.465l-3.721,-42.04l-8.557,-25.299l-1.86,-5.952l29.763,-20.461l9.301,-3.721l8.185,10.045l7.069,6.325l8.184,2.604l3.721,1.116l4.464,19.346l3.348,4.092l8.557,-2.976l-5.952,11.534l32.367,15.253l-4.093,2.232" style="fill:#335061;fill-rule:nonzero;"/><path d="M42.228,70.43l9.674,-3.349l7.813,3.722l3.72,8.184l4.464,-0.744l1.116,-4.465l-2.232,-8.556l2.232,-20.463l-1.861,-11.161l6.697,-7.813l14.509,-11.532l-4.091,-5.581l-20.463,10.045l-8.556,6.697l-4.837,10.416l-7.44,10.045l-2.232,11.906l1.487,12.649" style="fill:#6d6b6d;fill-rule:nonzero;"/><path d="M57.482,35.459c0,0 5.58,-13.765 27.902,-20.462c22.323,-6.696 1.117,-4.837 1.117,-4.837l-24.183,9.303l-9.301,9.299l-4.093,7.441l8.558,-0.744m-11.162,32.367c0,0 -7.812,-26.043 21.95,-29.764l-1.117,-4.464l-20.461,4.838l-5.952,19.345l1.487,12.649l4.093,-2.604" style="fill:#dcd9d8;fill-rule:nonzero;"/><path d="M58.225,102.426l4.871,-4.72c0,0 2.198,0.255 2.57,2.859c0.371,2.605 1.487,26.044 17.486,38.693c1.458,1.155 -11.906,-1.861 -11.906,-1.861l-11.905,-18.6m67.341,-23.439c0,0 0.868,-11.278 3.906,-10.411c3.037,0.867 3.037,3.905 3.037,3.905c0,0 -7.377,4.771 -6.943,6.506m30.878,-41.297c0,0 -6.134,1.295 -6.696,6.697c-0.566,5.403 6.696,1.116 7.812,0.743m-46.132,-7.067c0,0 -8.185,1.116 -8.185,6.324c0,5.207 9.301,4.837 11.906,2.605m-54.319,15.253c0,0 -14.138,-8.558 -15.626,-0.373c-1.489,8.186 -4.837,14.138 2.233,22.695l-4.838,-1.489l-4.464,-11.533l-1.488,-11.161l8.557,-8.93l9.672,0.745l5.581,4.464l0.373,5.581m6.697,-23.438c0,0 6.323,-32.74 38.319,-39.064c26.343,-5.206 40.179,1.117 45.389,7.069c0,0 -23.438,-27.902 -45.76,-19.346c-22.323,8.556 -38.693,24.181 -38.321,34.226c0.633,17.108 0.373,17.115 0.373,17.115m86.313,-28.276c0,0 -10.788,-0.371 -11.161,9.302c0,0 -0.001,1.488 0.744,2.976c0,0 8.559,-9.673 13.765,-4.465" style="fill:#f7e4cd;fill-rule:nonzero;"/><path d="M107.712,40.187c0,0 -1.857,-14.848 -14.515,-6.216c-8.186,5.581 -7.441,13.394 -5.954,14.881c1.49,1.49 1.084,4.486 2.217,2.429c1.132,-2.057 0.759,-8.754 4.853,-10.613c4.092,-1.861 10.801,-3.939 13.399,-0.481" style="fill:#f7e4cd;fill-rule:nonzero;"/><path d="M72.734,140.745l-34.971,15.626c0,0 14.509,57.666 7.068,75.524l-5.207,-1.859l-0.373,-21.951l-9.672,-41.668l-4.093,-11.534l36.46,-24.554l10.788,10.416m3.597,31.896l4.96,6.052l0,22.322l-5.952,0c0,0 -0.744,-15.626 -0.744,-17.485c0,-1.86 0.744,-8.557 0.744,-8.557m1.117,29.392l-16.742,0.743l4.836,3.348l11.906,1.86" style="fill:#49728b;fill-rule:nonzero;"/><path d="M133.75,200.644l13.766,-0.373l3.349,34.227l-14.138,1.86l-2.977,-35.714" style="fill:#335061;fill-rule:nonzero;"/><path d="M137.47,200.644l20.833,-1.117c0,0 8.558,-21.578 8.558,-22.694c0,-1.116 7.441,-31.251 7.441,-31.251l-16.742,-17.485l-3.348,-2.976l-8.929,8.929l0,34.6l-7.813,31.994" style="fill:#335061;fill-rule:nonzero;"/><path d="M146.771,198.039l-13.022,2.605l1.861,10.418c4.835,2.232 13.021,-3.722 13.021,-3.722m-1.488,-74.406l26.044,19.346l0.743,-8.929l-19.717,-18.23l-7.07,7.813" style="fill:#49728b;fill-rule:nonzero;"/><path d="M89.367,273.939l-7.702,-31.257l-3.831,-23.062l-0.634,-17.118l34.861,-1.856l21.689,-0.003l-1.971,39.067l3.348,30.135l-0.373,5.581l-28.273,2.232l-17.114,-3.719" style="fill:#fff;fill-rule:nonzero;"/><path d="M128.913,200.271c0,0 -1.861,38.692 3.72,66.223c0,0 -11.161,7.07 -27.532,8.929l31.252,-1.116l3.721,-2.232l-4.464,-61.013l-1.117,-13.023" style="fill:#dcd9d8;fill-rule:nonzero;"/><path d="M151.497,231.527l14.509,-4.093l27.531,-1.488l4.093,-12.65l-7.442,-21.949l-8.555,-1.116l-11.906,3.719l-11.423,5.577l-6.063,-1.112l-4.727,1.856" style="fill:#fff;fill-rule:nonzero;"/><path d="M151.235,224.082c0,0 9.672,-4.464 11.161,-4.091l-4.093,-20.464l4.837,-1.859c0,0 3.348,19.346 3.348,21.578c0,0 20.834,1.116 22.695,1.116c0,0 4.464,-8.556 3.348,-17.485l4.092,11.905l0.373,6.696l-5.953,8.929l-6.697,1.489l-11.161,-0.373l-3.721,-4.836l-13.02,1.859l-4.093,1.49" style="fill:#dcd9d8;fill-rule:nonzero;"/><path d="M136.615,197.671l-8.184,-20.833l-8.558,-12.277c0,0 1.86,-5.209 4.465,-5.209l8.557,0l8.184,2.977l-0.742,13.765l-3.722,21.577" style="fill:#fff;fill-rule:nonzero;"/><path d="M138.214,190.599c0,0 -10.416,-20.09 -10.416,-23.066c0,0 1.86,-4.464 4.464,-3.348c2.604,1.116 8.184,4.091 8.184,4.091l0,-7.068l-12.648,-2.605l-8.558,1.116l14.51,34.228l2.977,0.373" style="fill:#dcd9d8;fill-rule:nonzero;"/><path d="M92.715,141.494l-10.307,-1.121l-9.673,-2.976l0,3.348l4.727,5.213l14.882,6.696" style="fill:#fff;fill-rule:nonzero;"/><path d="M76.085,142.609c0,0 11.533,4.837 15.254,3.721l0.369,4.46l-10.415,-2.228l-6.324,-4.464l1.116,-1.489" style="fill:#dcd9d8;fill-rule:nonzero;"/><path d="M151.457,160.618c-6.313,-0.186 -12.016,-0.936 -17.01,-2.344c0.339,-2.047 -0.296,-4.056 0.214,-5.531c1.391,-1.003 3.725,-0.987 5.828,-1.222c-1.82,-0.894 -4.374,-1.247 -6.474,-0.732c-0.05,-1.421 -0.688,-2.301 -1.073,-3.413c3.549,-1.267 11.928,-9.571 16.641,-6.821c2.246,1.308 3.2,8.779 3.375,12.411c0.145,3.015 -0.273,6.056 -1.501,7.652" style="fill:#d33833;fill-rule:nonzero;"/><path d="M151.457,160.618c-6.313,-0.186 -12.016,-0.936 -17.01,-2.344c0.339,-2.047 -0.296,-4.056 0.214,-5.531c1.391,-1.003 3.725,-0.987 5.828,-1.222c-1.82,-0.894 -4.374,-1.247 -6.474,-0.732c-0.05,-1.421 -0.688,-2.301 -1.073,-3.413c3.549,-1.267 11.928,-9.571 16.641,-6.821c2.246,1.308 3.2,8.779 3.375,12.411c0.145,3.015 -0.273,6.056 -1.501,7.652l0,0Z" style="fill:none;fill-rule:nonzero;stroke:#d33833;stroke-width:2.23px;"/><path d="M121.27,150.298c-0.017,0.478 -0.038,0.959 -0.057,1.441c-1.97,1.295 -5.152,1.279 -7.316,2.367c3.19,0.139 5.699,0.907 7.871,1.99l-0.14,3.609c-3.613,2.474 -6.913,6.157 -11.167,8.477c-2.011,1.097 -9.071,3.919 -11.21,3.42c-1.21,-0.281 -1.32,-1.783 -1.804,-3.2c-1.031,-3.031 -3.405,-7.857 -3.613,-12.424c-0.263,-5.766 -0.846,-15.428 5.368,-14.24c5.013,0.955 10.844,3.265 14.725,5.386c2.372,1.294 3.744,2.897 7.343,3.174" style="fill:#d33833;fill-rule:nonzero;"/><path d="M121.27,150.298c-0.017,0.478 -0.038,0.959 -0.057,1.441c-1.97,1.295 -5.152,1.279 -7.316,2.367c3.19,0.139 5.699,0.907 7.871,1.99l-0.14,3.609c-3.613,2.474 -6.913,6.157 -11.167,8.477c-2.011,1.097 -9.071,3.919 -11.21,3.42c-1.21,-0.281 -1.32,-1.783 -1.804,-3.2c-1.031,-3.031 -3.405,-7.857 -3.613,-12.424c-0.263,-5.766 -0.846,-15.428 5.368,-14.24c5.013,0.955 10.844,3.265 14.725,5.386c2.372,1.294 3.744,2.897 7.343,3.174Z" style="fill:none;fill-rule:nonzero;stroke:#d33833;stroke-width:2.23px;"/><path d="M124.858,157.178c-0.553,-3.141 -1.19,-4.037 -0.944,-6.778c8.378,-5.584 9.951,9.594 0.943,6.778" style="fill:#d33833;fill-rule:nonzero;"/><path d="M124.858,157.178c-0.553,-3.141 -1.19,-4.037 -0.944,-6.778c8.378,-5.584 9.951,9.594 0.943,6.778l0.001,0Z" style="fill:none;fill-rule:nonzero;stroke:#d33833;stroke-width:2.23px;"/><path d="M136.986,159.723c0,0 -2.604,-3.72 -0.742,-4.836c1.859,-1.117 3.72,0 4.836,-1.86c1.116,-1.859 0,-2.975 0.372,-5.208c0.373,-2.232 2.235,-2.605 4.093,-2.977c1.86,-0.371 7.07,-1.116 7.813,0.745l-2.233,-6.697l-4.464,-1.489l-14.138,8.186l-0.743,4.091l0,8.186m-33.858,14.137c-0.447,-5.806 -0.919,-11.604 -1.446,-17.405c-0.787,-8.661 2.08,-7.15 9.589,-7.15c1.146,0 7.06,1.368 7.483,2.232c2.03,4.145 -3.393,3.224 2.338,6.349c4.836,2.637 13.383,-1.601 11.429,-7.465c-1.094,-1.303 -5.7,-0.406 -7.35,-1.261l-8.719,-4.52c-3.698,-1.92 -12.244,-4.715 -16.188,-2.034c-9.989,6.795 0.631,23.768 4.195,30.855" style="fill:#ef3d3a;fill-rule:nonzero;"/><path d="M107.712,40.187c-10.14,-2.362 -15.178,4.244 -18.252,11.094c-2.744,-0.665 -1.651,-4.398 -0.958,-6.299c1.815,-4.992 9.129,-11.636 15.105,-10.735c2.572,0.387 6.052,2.739 4.105,5.94m49.407,11.547l0.482,0.018c2.291,4.761 4.274,9.804 7.163,14.006c-1.935,4.51 -14.662,8.501 -14.466,0.403c2.751,-1.203 7.503,-0.246 9.943,-1.782c-1.41,-3.872 -3.446,-7.168 -3.122,-12.645m-44.215,0.124c2.174,3.986 2.882,8.173 5.973,11.186c1.392,1.356 4.098,3.009 2.756,6.78c-0.313,0.89 -2.604,2.873 -3.929,3.262c-4.831,1.426 -16.089,0.295 -12.277,-5.73c3.998,0.187 9.367,2.595 12.353,-0.304c-2.292,-3.667 -6.38,-10.92 -4.876,-15.194m42.401,40.508c-7.274,4.675 -15.386,9.755 -27.306,8.577c-2.548,-2.215 -3.518,-7.143 -1.044,-10.397c1.288,2.214 0.478,6.287 4.068,6.9c6.763,1.157 14.636,-4.138 19.502,-5.99c3.016,-5.085 -0.261,-6.956 -2.978,-10.229c-5.563,-6.708 -13.028,-15.021 -12.757,-25.061c2.25,-1.631 2.443,2.489 2.766,3.239c2.906,6.799 10.217,15.495 15.553,21.314c1.31,1.434 3.467,2.809 3.708,3.756c0.692,2.757 -1.8,6.058 -1.511,7.891m-95.906,-4.92c-2.28,-1.301 -2.824,-7.034 -5.501,-7.196c-3.824,-0.233 -3.127,7.435 -3.112,11.92c-2.633,-2.389 -3.096,-9.751 -1.162,-13.531c-2.205,-1.082 -3.19,1.195 -4.412,1.997c1.572,-11.418 16.703,-5.295 14.187,6.81m100.537,9.675c-3.386,6.446 -8.176,13.544 -18.113,13.75c-0.202,-2.081 -0.357,-5.249 0.011,-6.503c7.597,-0.729 12.286,-4.595 18.102,-7.247m-47.605,4.179c6.337,3.334 17.984,3.691 26.599,3.438c0.462,1.888 0.451,4.219 0.469,6.521c-11.074,0.552 -24.165,-2.188 -27.068,-9.959m-1.206,6.214c4.384,11.004 19.447,9.737 32.149,9.434c-0.559,1.428 -1.771,3.116 -3.278,3.727c-4.071,1.656 -15.298,2.912 -20.95,-0.09c-3.584,-1.904 -5.885,-6.209 -7.849,-8.732c-0.947,-1.219 -5.67,-4.333 -0.072,-4.34" style="fill:#231f20;fill-rule:nonzero;"/><path d="M154.776,168.21c-5.143,8.809 -10.063,17.856 -16.165,25.626c2.558,-7.522 3.652,-20.11 4.039,-29.708c5.352,-2.504 9.934,0.564 12.126,4.082" style="fill:#81b0c4;fill-rule:nonzero;"/><path d="M182.451,199.87c-5.758,1.153 -9.803,6.75 -15.421,6.39c3.087,-4.352 8.497,-6.187 15.421,-6.39m2.541,9.011c-4.693,0.498 -10.206,1.257 -14.966,0.865c2.253,-3.442 10.935,-2.255 14.966,-0.865m1.626,7.77c-5.275,0.115 -11.831,0.009 -16.843,-0.41c2.965,-3.186 13.422,-1.183 16.843,0.41" style="fill:#231f20;fill-rule:nonzero;"/><path d="M144.852,237.912c0.755,6.624 3.381,13.336 3.054,20.591c-2.917,0.983 -4.593,1.844 -8.501,1.839c-0.276,-6.166 -1.101,-15.591 -0.853,-21.469c1.922,0.127 4.756,-1.373 6.3,-0.961" style="fill:#dcd9d8;fill-rule:nonzero;"/><path d="M136.348,140.283c-2.648,1.729 -4.904,3.889 -7.448,5.734c-5.641,0.28 -8.719,-0.39 -12.863,-3.629c0.068,-0.259 0.484,-0.143 0.5,-0.463c6.038,2.69 13.714,-1.098 19.811,-1.643" style="fill:#f0d6b7;fill-rule:nonzero;"/><path d="M104.65,181.443c1.659,-7.188 8.16,-10.911 14.062,-14.871c6.094,7.732 9.799,17.677 13.88,27.273c-9.642,-2.906 -19.492,-7.622 -27.942,-12.402" style="fill:#81b0c4;fill-rule:nonzero;"/><path d="M138.553,238.873c-0.247,5.878 0.577,15.303 0.853,21.469c3.909,0.006 5.583,-0.854 8.5,-1.839c0.33,-7.255 -2.297,-13.967 -3.053,-20.591c-1.545,-0.412 -4.378,1.088 -6.3,0.961Zm-60.844,-33.427c2.577,23.688 6.308,43.599 13.152,64.575c15.194,4.613 33.507,5.015 46.935,0.853c-2.464,-11.839 -1.388,-26.252 -2.828,-38.886c-1.087,-9.496 -0.533,-19.05 -2.022,-28.738c-16.271,-3.384 -39.269,-0.79 -55.237,2.196Zm59.083,-2.045c-0.137,10.172 0.455,20.206 1.232,30.392c3.907,-0.586 6.558,-0.978 10.186,-1.773c-1.178,-9.806 -1.033,-20.84 -3.434,-29.515c-2.773,0.026 -5.217,-0.032 -7.983,0.896l-0.001,0Zm19.817,-1.641c-1.854,-0.424 -4.012,-0.017 -5.784,0.018c0.833,8.293 2.853,17.445 3.564,26.149c2.787,0.086 4.276,-1.228 6.569,-1.67c0.122,-7.641 -0.67,-18.168 -4.349,-24.497Zm30.006,27.415c5.809,-1.41 9.461,-8.525 7.837,-15.834c-1.09,-4.91 -3.032,-14.157 -5.111,-17.299c-1.536,-2.322 -5.699,-5.365 -9.024,-3.237c-5.41,3.464 -14.938,4.469 -18.881,8.661c1.977,6.585 2.591,15.63 3.407,23.974c6.756,0.422 15.069,-1.859 20.689,0.563c-3.923,1.269 -9.014,1.279 -12.402,3.131c2.77,1.338 9.255,1.068 13.485,0.041Zm-54.023,-35.33c-4.081,-9.596 -7.787,-19.541 -13.88,-27.273c-5.902,3.96 -12.403,7.682 -14.062,14.871c8.45,4.78 18.3,9.496 27.942,12.402Zm10.058,-29.715c-0.387,9.597 -1.481,22.185 -4.039,29.706c6.102,-7.768 11.022,-16.816 16.165,-25.624c-2.192,-3.52 -6.774,-6.588 -12.126,-4.083l0,0.001Zm-11.402,-4.052c-2.312,-0.25 -4.274,2.657 -7.281,1.4c-0.687,0.761 -1.313,1.587 -2.015,2.33c6.639,8.001 9.655,19.351 14.783,28.754c2.751,-9.032 2.434,-18.926 3.04,-28.783c-3.781,0.238 -5.878,-3.42 -8.527,-3.701Zm-7.332,-9.677c-0.247,2.74 0.39,3.637 0.943,6.778c9.006,2.815 7.433,-12.363 -0.943,-6.777l0,-0.001Zm-9.989,-3.279c-3.88,-2.121 -9.711,-4.431 -14.724,-5.387c-6.214,-1.189 -5.631,8.476 -5.367,14.241c0.207,4.566 2.58,9.393 3.612,12.424c0.485,1.417 0.593,2.919 1.804,3.201c2.139,0.498 9.198,-2.325 11.21,-3.422c4.254,-2.319 7.554,-6.002 11.167,-8.475c0.047,-1.204 0.093,-2.407 0.141,-3.61c-2.173,-1.081 -4.683,-1.85 -7.871,-1.99c2.162,-1.089 5.345,-1.073 7.316,-2.368c0.018,-0.482 0.039,-0.961 0.056,-1.44c-3.6,-0.275 -4.971,-1.878 -7.344,-3.174Zm-37.069,-6.735c-3.221,3.271 9.034,7.727 12.937,7.968c-0.022,-2.071 1.179,-4.02 0.938,-5.505c-4.636,-0.813 -10.726,-0.276 -13.876,-2.463l0.001,0Zm39.68,1.536c-0.016,0.319 -0.432,0.203 -0.5,0.464c4.144,3.238 7.223,3.908 12.863,3.629c2.544,-1.846 4.8,-4.005 7.448,-5.734c-6.098,0.544 -13.773,4.332 -19.811,1.641Zm36.421,11.045c-0.174,-3.634 -1.128,-11.104 -3.374,-12.411c-4.713,-2.753 -13.091,5.553 -16.641,6.821c0.386,1.111 1.024,1.991 1.072,3.413c2.1,-0.516 4.656,-0.164 6.475,0.732c-2.103,0.235 -4.437,0.22 -5.828,1.221c-0.511,1.474 0.125,3.483 -0.214,5.531c4.993,1.409 10.697,2.159 17.009,2.344c1.227,-1.598 1.646,-4.639 1.5,-7.652l0.001,0.001Zm-81.523,-9.418c-1.011,-0.721 -7.854,-9.624 -8.791,-9.254c-12.382,4.883 -23.959,13.327 -34.306,21.312c9.865,21.166 13.847,47.097 14.55,72.09c11.3,5.286 21.225,12.905 36.559,13.7c-1.775,-12.554 -3.396,-23.755 -4.402,-35.574c-3.853,-1.625 -9.38,0.073 -12.986,-0.504c-0.029,-4.344 5.508,-1.904 5.968,-4.825c0.348,-2.21 -3.047,-2.376 -1.942,-5.857c2.82,1.025 4.3,3.287 7.305,4.138c2.748,-6.009 -0.037,-16.642 0.357,-21.665c0.075,-0.942 0.472,-5.223 2.583,-4.473c1.87,0.664 -0.106,11.387 0.099,16.141c0.186,4.38 -0.53,8.616 1.244,11.366c14.818,-2.018 29.874,-3.321 45.906,-3.76c-3.527,-1.514 -7.717,-2.945 -12.311,-5.535c-2.491,-1.403 -10.341,-4.325 -11.06,-6.69c-1.145,-3.769 3.008,-5.777 3.719,-9.008c-7.479,4.08 -8.939,-3.909 -10.708,-9.569c-1.602,-5.126 -2.516,-8.955 -2.909,-11.912c-6.442,-3.071 -13.33,-6.182 -18.875,-10.121Zm74.979,-8.178c10.317,-5.002 12.176,18.697 8.132,26.331c0.625,2.277 2.775,3.148 3.652,5.196c-5.757,10.312 -12.151,19.94 -18.025,30.13c4.37,-2.72 10.611,-0.486 15.753,-2.521c1.88,-0.744 3.24,-5.046 4.663,-8.488c3.914,-9.471 8.023,-21.41 9.852,-30.448c0.413,-2.058 1.538,-6.545 1.286,-8.378c-0.45,-3.281 -4.902,-5.714 -7.166,-7.743c-4.173,-3.748 -6.8,-7.045 -11.153,-10.549c-1.763,2.602 -5.551,4.352 -6.994,6.47Zm-98.573,-91.484c-4.917,5.407 -3.888,15.543 -3.292,22.753c8.886,-5.591 20.678,0.44 20.567,9.949c4.242,-0.114 1.585,-5.299 0.818,-8.64c-2.508,-10.911 4.225,-22.765 0.305,-32.743c-7.61,0.578 -13.862,3.686 -18.398,8.681Zm35.173,-31.392c-11.127,3.154 -25.391,11.24 -29.963,21.238c3.541,-0.515 5.998,-2.301 9.491,-2.522c1.322,-0.085 3.051,0.553 4.568,0.176c3.023,-0.75 5.574,-7.529 7.855,-10.051c2.224,-2.464 4.897,-3.516 6.726,-5.762c1.175,-0.567 2.912,-0.527 2.979,-2.292c-0.51,-0.545 -1.046,-0.96 -1.656,-0.787Zm57.93,2.967c-11.551,-6.516 -31.102,-11.418 -43.389,-5.294c-9.913,4.944 -23.315,13.122 -27.885,23.486c4.268,10.003 -1.264,19.167 -1.617,29.321c-0.187,5.402 2.544,10.119 2.753,16.001c-1.462,2.41 -5.922,2.707 -9.012,2.542c-1.039,-5.203 -2.859,-11.052 -8.218,-11.639c-7.582,-0.83 -13.124,5.446 -13.469,12.003c-0.408,7.711 5.922,20.492 14.895,19.605c3.464,-0.343 4.318,-3.817 8.093,-3.781c2.047,4.084 -3.157,5.366 -3.693,8.287c-0.139,0.754 0.432,3.703 0.764,5.086c1.629,6.733 5.262,15.447 8.838,20.574c4.538,6.504 13.456,7.483 23.049,8.12c1.713,-3.691 8.025,-3.386 12.137,-2.42c-4.928,-1.953 -9.511,-6.685 -13.308,-10.874c-4.362,-4.805 -8.78,-9.961 -9.003,-16.242c8.243,11.435 15.054,21.424 30.042,26.452c11.342,3.805 24.588,-1.743 33.301,-7.862c3.617,-2.544 5.776,-6.58 8.345,-10.274c9.617,-13.835 14.105,-33.582 13.12,-52.719c-0.407,-7.894 -0.39,-15.76 -3.037,-21.07c-2.768,-5.553 -12.13,-10.521 -17.611,-5.498c-1.015,-5.399 4.558,-8.74 11.103,-6.796c-4.666,-6.027 -9.564,-13.265 -16.198,-17.008Zm21.519,178.095c9.026,-4.487 25.89,-12.078 31.55,0.017c2.088,4.458 4.537,11.993 5.619,16.596c1.527,6.491 -1.656,20.138 -8.33,22.317c-5.893,1.924 -12.771,1.808 -19.871,0.38c-0.835,-0.696 -1.767,-1.907 -2.418,-3.171c-5.069,-0.196 -9.816,0.274 -13.821,2.357c0.38,3.748 -2.156,4.35 -4.533,5.122c-1.762,6.988 3.526,16.115 2.26,22.487c-0.903,4.539 -6.488,5.241 -10.593,6.09c-0.134,2.523 0.18,4.629 0.46,6.763c-0.938,3.459 -5.149,5.428 -9.139,5.91c-13.123,1.576 -33.051,2.286 -45.674,-2.255c-3.523,-8.641 -6.299,-19.152 -9.233,-29.017c-12.312,1.316 -22.27,-5.312 -31.657,-9.654c-3.25,-1.507 -7.748,-2.337 -8.96,-4.924c-1.178,-2.506 -0.697,-7.306 -0.989,-11.841c-0.743,-11.581 -1.379,-22.753 -4.437,-34.612c-1.374,-5.321 -3.768,-10.018 -5.438,-15.145c-1.543,-4.752 -4.239,-10.625 -4.943,-15.364c-1.042,-7.023 5.571,-7.414 9.799,-10.458c6.539,-4.706 11.67,-7.309 18.75,-11.557c2.098,-1.259 8.42,-4.442 9.14,-5.909c1.429,-2.907 -2.455,-7.007 -3.493,-9.286c-1.643,-3.604 -2.499,-6.666 -2.735,-10.223c-5.94,-0.937 -10.442,-4.473 -13.161,-8.458c-4.5,-6.596 -7.62,-18.8 -3.727,-28.083c0.305,-0.731 1.828,-2.168 2.053,-3.291c0.442,-2.21 -0.834,-5.152 -0.913,-7.503c-0.409,-12.064 2.041,-22.459 10.163,-26.099c3.297,-13.136 15.099,-17.503 26.218,-24.031c4.156,-2.44 8.738,-3.999 13.47,-5.74c16.974,-6.247 43.016,-5.071 57.104,5.584c5.973,4.518 15.521,14.057 18.936,20.964c9.021,18.233 8.38,48.707 2.072,70.886c-0.848,2.979 -2.079,7.356 -3.797,10.934c-1.197,2.497 -4.92,7.496 -4.468,9.701c0.465,2.28 8.488,8.371 10.207,10.029c3.098,2.988 8.982,6.954 9.458,10.725c0.513,4.011 -1.768,9.5 -2.924,13.373c-3.858,12.922 -7.626,24.866 -12.005,36.386" style="fill:#231f20;fill-rule:nonzero;"/><path d="M102.247,104.114c0.489,-0.652 3.181,-1.641 6.948,0.172c0,0 -4.464,0.743 -4.092,8.188l-1.86,-0.373c-0.001,0 -1.924,-6.748 -0.996,-7.987" style="fill:#f7e4cd;fill-rule:nonzero;"/><path d="M134.866,168.091c0,1.123 -0.924,2.046 -2.046,2.046c-1.122,0 -2.045,-0.923 -2.045,-2.046c0,-1.122 0.923,-2.045 2.045,-2.045c1.122,0 2.046,0.923 2.046,2.045m2.046,9.487c0,1.123 -0.924,2.047 -2.047,2.047c-1.123,0 -2.047,-0.925 -2.047,-2.047c0,-0.001 0,-0.001 0,-0.001c0.001,-1.123 0.925,-2.046 2.047,-2.046c1.123,0 2.046,0.924 2.046,2.047c0,0 0,0 0,0" style="fill:#1d1919;fill-rule:nonzero;"/><g><path d="M351.361,94.349c-2.093,0.263 -3.872,0.524 -5.336,0.786c-1.661,0.305 -3.31,0.672 -4.944,1.098c-2.147,0.576 -3.52,1.599 -4.12,3.063c-0.602,1.467 -0.903,3.142 -0.903,5.027l0,61.413c0,5.656 -1.138,10.839 -3.414,15.551c-2.276,4.711 -5.403,8.664 -9.378,11.857c-4.029,3.143 -8.528,5.512 -13.498,7.108c-4.972,1.596 -10.281,2.395 -15.93,2.395c-9.784,0 -17.67,-2.353 -23.662,-7.063c-5.991,-4.709 -8.985,-11.169 -8.985,-19.383c0,-4.866 1.373,-8.893 4.12,-12.086c2.746,-3.191 6.526,-4.786 11.34,-4.786c4.551,0 8.172,1.334 10.868,4.002c2.695,2.669 4.041,5.964 4.041,9.887c0,3.35 -1.165,6.448 -3.491,9.3c-2.329,2.852 -4.984,5.481 -7.967,7.887l0,1.02c0.473,1.047 1.495,1.936 3.07,2.668c1.572,0.733 3.173,1.099 4.8,1.099c6.295,0 11.239,-2.251 14.833,-6.754c3.594,-4.502 5.392,-11.31 5.392,-20.421l0,-62.908c0,-1.885 -0.289,-3.456 -0.868,-4.712c-0.58,-1.256 -1.973,-2.357 -4.178,-3.298c-1.578,-0.682 -3.483,-1.258 -5.718,-1.728c-2.234,-0.472 -4.088,-0.812 -5.559,-1.022l0,-6.12l59.486,0l0,6.12l0.001,0Zm93.073,86.482c-1.832,2.983 -4.041,5.795 -6.631,8.438c-2.589,2.641 -5.534,4.905 -8.831,6.788c-3.505,1.988 -7.05,3.491 -10.632,4.512c-3.584,1.02 -7.705,1.53 -12.361,1.53c-7.744,0 -14.429,-1.098 -20.05,-3.296c-5.625,-2.197 -10.268,-5.152 -13.93,-8.867c-3.662,-3.714 -6.396,-8.096 -8.201,-13.145c-1.804,-5.048 -2.707,-10.527 -2.707,-16.44c0,-5.336 0.982,-10.449 2.943,-15.343c1.933,-4.845 4.769,-9.279 8.358,-13.065c3.558,-3.715 8.045,-6.724 13.459,-9.026c5.415,-2.301 11.47,-3.452 18.167,-3.452c7.324,0 13.341,0.89 18.05,2.668c4.709,1.779 8.606,4.238 11.693,7.377c2.982,2.982 5.153,6.5 6.514,10.554c1.36,4.055 2.04,8.306 2.04,12.753l0,5.101l-53.05,0c0,10.725 2.067,18.888 6.2,24.485c4.133,5.598 10.699,8.396 19.697,8.396c4.918,0 9.339,-1.345 13.263,-4.041c3.924,-2.694 7.273,-6.107 10.045,-10.241l5.964,4.314Zm-29.978,-29.821c0,-3.138 -0.157,-6.357 -0.471,-9.652c-0.313,-3.294 -0.863,-5.991 -1.649,-8.083c-0.889,-2.459 -2.107,-4.316 -3.648,-5.572c-1.544,-1.255 -3.493,-1.884 -5.848,-1.884c-4.028,0 -7.246,2.041 -9.652,6.121c-2.406,4.081 -3.714,10.543 -3.924,19.384l25.192,-0.314Zm141.101,48.576l-47.165,0l0,-5.728c0.994,-0.104 2.198,-0.236 3.61,-0.393c1.413,-0.157 2.484,-0.417 3.217,-0.785c1.099,-0.574 1.884,-1.413 2.355,-2.511c0.47,-1.098 0.705,-2.72 0.705,-4.865l0,-36.727c0,-5.336 -0.984,-9.351 -2.951,-12.047c-1.967,-2.693 -4.866,-4.041 -8.696,-4.041c-2.099,0 -4.052,0.314 -5.861,0.942c-1.809,0.628 -3.581,1.544 -5.313,2.747c-1.522,1.047 -2.741,2.119 -3.659,3.218c-0.799,0.948 -1.573,1.917 -2.322,2.904l0,42.141c0,1.832 0.262,3.363 0.785,4.591c0.523,1.23 1.385,2.159 2.59,2.785c0.835,0.472 1.884,0.891 3.138,1.256c1.255,0.368 2.484,0.627 3.689,0.786l0,5.727l-47.714,0l0,-5.728c1.325,-0.106 2.646,-0.25 3.963,-0.433c1.334,-0.183 2.473,-0.431 3.414,-0.745c1.674,-0.574 2.825,-1.464 3.454,-2.668c0.627,-1.203 0.942,-2.772 0.942,-4.709l0,-45.675c0,-1.621 -0.42,-3.217 -1.256,-4.786c-0.837,-1.57 -1.935,-2.851 -3.295,-3.846c-0.943,-0.627 -2.132,-1.15 -3.572,-1.569c-1.439,-0.418 -3.02,-0.706 -4.747,-0.863l0,-5.729l37.433,-2.04l1.177,1.178l0,11.378l0.315,0c1.771,-1.578 3.55,-3.147 5.335,-4.708c2.092,-1.831 4.028,-3.322 5.808,-4.474c1.934,-1.256 4.473,-2.327 7.612,-3.218c3.138,-0.889 6.487,-1.334 10.045,-1.334c8.527,0 14.922,2.421 19.187,7.26c4.264,4.839 6.395,11.262 6.395,19.266l0,38.454c0,1.937 0.287,3.481 0.862,4.63c0.576,1.152 1.65,2.067 3.218,2.747c0.836,0.368 1.871,0.734 3.1,1.098c1.229,0.368 2.628,0.628 4.199,0.786l0,5.728l0.003,0Zm107.983,0l-36.99,0c-4.547,-7.982 -8.703,-14.755 -12.464,-20.311c-3.509,-5.185 -7.064,-10.339 -10.665,-15.46l-4.624,3.91l0,17.108c0,1.884 0.275,3.427 0.824,4.63c0.549,1.203 1.609,2.094 3.178,2.668c0.942,0.419 2.041,0.786 3.297,1.098c1.256,0.313 2.511,0.525 3.766,0.628l0,5.729l-48.734,0l0,-5.729c1.321,-0.105 2.638,-0.249 3.95,-0.432c1.317,-0.183 2.476,-0.433 3.476,-0.746c1.684,-0.575 2.832,-1.464 3.438,-2.669c0.606,-1.202 0.908,-2.772 0.908,-4.708l0,-87.502c0,-1.726 -0.38,-3.518 -1.138,-5.375c-0.759,-1.856 -1.872,-3.256 -3.335,-4.198c-0.994,-0.628 -2.485,-1.15 -4.474,-1.57c-1.988,-0.419 -3.793,-0.679 -5.415,-0.785l0,-5.728l39.079,-2.041l1.179,1.256l0,80.985c3.866,-3.454 8.216,-7.456 13.049,-12.007c4.834,-4.55 8.713,-8.317 11.641,-11.299c1.727,-1.778 2.679,-3.125 2.863,-4.041c0.183,-0.915 0.275,-1.477 0.275,-1.687c0,-0.942 -0.826,-1.727 -2.477,-2.354c-1.653,-0.628 -4.139,-1.179 -7.459,-1.649l0,-5.572l39.868,0l0,5.416c-5.225,1.466 -9.208,2.839 -11.95,4.119c-2.741,1.283 -5.732,2.996 -8.971,5.14c-2.129,1.404 -4.205,2.885 -6.226,4.441c-2.008,1.548 -4.316,3.477 -6.924,5.786c5.118,7.427 9.844,14.301 14.179,20.629c4.335,6.327 8.878,13.02 13.631,20.079c1.619,2.458 3.63,4.105 6.033,4.941c2.404,0.839 4.808,1.362 7.212,1.57l0,5.73Zm50.462,0l-49.598,0l0,-5.728c1.36,-0.104 2.694,-0.236 4.002,-0.393c1.307,-0.157 2.433,-0.417 3.374,-0.785c1.674,-0.627 2.852,-1.53 3.531,-2.707c0.679,-1.178 1.021,-2.733 1.021,-4.67l0,-45.675c0,-1.831 -0.42,-3.439 -1.256,-4.826c-0.837,-1.384 -1.884,-2.498 -3.138,-3.335c-0.942,-0.627 -2.368,-1.229 -4.277,-1.804c-1.911,-0.576 -3.65,-0.943 -5.219,-1.098l0,-5.73l38.453,-2.04l1.178,1.178l0,62.31c0,1.831 0.393,3.387 1.177,4.67c0.785,1.282 1.91,2.237 3.375,2.863c1.046,0.472 2.196,0.892 3.453,1.256c1.255,0.368 2.562,0.628 3.924,0.786l0,5.728Zm-11.46,-107.04c0,3.977 -1.53,7.363 -4.59,10.162c-3.061,2.799 -6.683,4.199 -10.868,4.199c-4.239,0 -7.887,-1.4 -10.949,-4.199c-3.06,-2.799 -4.59,-6.187 -4.59,-10.162c0,-3.976 1.53,-7.376 4.59,-10.202c3.06,-2.826 6.71,-4.239 10.948,-4.239c4.238,0 7.875,1.414 10.908,4.239c3.034,2.826 4.551,6.226 4.551,10.202Zm122.268,107.04l-47.165,0l0,-5.728c0.994,-0.104 2.199,-0.236 3.61,-0.393c1.412,-0.157 2.484,-0.417 3.218,-0.785c1.098,-0.574 1.884,-1.413 2.354,-2.511c0.47,-1.098 0.706,-2.72 0.706,-4.865l0,-36.727c0,-5.336 -0.984,-9.351 -2.952,-12.047c-1.966,-2.693 -4.865,-4.041 -8.696,-4.041c-2.098,0 -4.051,0.314 -5.861,0.942c-1.809,0.628 -3.581,1.544 -5.313,2.747c-1.522,1.047 -2.741,2.119 -3.658,3.218c-0.799,0.948 -1.573,1.917 -2.322,2.904l0,42.141c0,1.832 0.261,3.363 0.784,4.591c0.522,1.23 1.386,2.159 2.59,2.785c0.836,0.472 1.884,0.891 3.138,1.256c1.256,0.368 2.485,0.627 3.689,0.786l0,5.727l-47.714,0l0,-5.728c1.325,-0.106 2.647,-0.25 3.964,-0.433c1.334,-0.183 2.472,-0.431 3.414,-0.745c1.674,-0.574 2.824,-1.464 3.453,-2.668c0.628,-1.203 0.942,-2.772 0.942,-4.709l0,-45.675c0,-1.621 -0.42,-3.217 -1.255,-4.786c-0.838,-1.57 -1.936,-2.851 -3.296,-3.846c-0.942,-0.627 -2.132,-1.15 -3.571,-1.569c-1.44,-0.418 -3.021,-0.706 -4.747,-0.863l0,-5.729l37.432,-2.04l1.178,1.178l0,11.378l0.313,0c1.772,-1.578 3.551,-3.147 5.337,-4.708c2.091,-1.831 4.027,-3.322 5.807,-4.474c1.935,-1.256 4.473,-2.327 7.612,-3.218c3.138,-0.889 6.486,-1.334 10.045,-1.334c8.527,0 14.923,2.421 19.187,7.26c4.264,4.839 6.396,11.262 6.396,19.266l0,38.454c0,1.937 0.285,3.481 0.862,4.63c0.576,1.152 1.649,2.067 3.218,2.747c0.836,0.368 1.871,0.734 3.099,1.098c1.229,0.368 2.629,0.628 4.199,0.786l0,5.728l0.003,0Zm43.633,2.669c-5.041,0.005 -10.054,-0.749 -14.871,-2.236c-4.839,-1.492 -8.592,-3.073 -11.261,-4.748l-2.354,5.336l-6.12,0l-1.021,-29.273l5.729,0c0.786,2.354 2.092,5.01 3.924,7.966c1.832,2.955 3.924,5.611 6.279,7.966c2.458,2.354 5.27,4.342 8.436,5.965c3.165,1.622 6.554,2.433 10.163,2.433c4.76,0 8.305,-0.929 10.632,-2.786c2.328,-1.857 3.493,-4.721 3.493,-8.593c0,-2.092 -0.523,-3.818 -1.569,-5.18c-1.047,-1.36 -2.486,-2.537 -4.317,-3.531c-2.04,-1.047 -4.276,-1.936 -6.71,-2.67c-2.433,-0.73 -5.427,-1.62 -8.985,-2.668c-3.558,-1.045 -6.605,-2.106 -9.142,-3.178c-2.539,-1.072 -5.167,-2.76 -7.886,-5.062c-2.355,-2.041 -4.239,-4.498 -5.65,-7.376c-1.414,-2.876 -2.119,-6.303 -2.119,-10.281c0,-7.375 3.1,-13.34 9.3,-17.892c6.2,-4.552 14.322,-6.828 24.367,-6.828c4.759,0 9.142,0.485 13.144,1.453c4.002,0.969 7.364,2.027 10.085,3.179l1.648,-4.63l5.965,0l1.255,26.76l-5.493,0c-1.833,-5.44 -4.972,-10.134 -9.418,-14.085c-4.447,-3.951 -9.234,-5.927 -14.362,-5.927c-4.028,0 -7.193,0.838 -9.495,2.512c-2.302,1.675 -3.453,4.002 -3.453,6.984c0,3.977 1.684,6.855 5.053,8.633c3.368,1.78 8.08,3.453 14.139,5.022c9.349,2.407 16.19,5.69 20.527,9.849c4.335,4.16 6.502,9.456 6.502,15.891c0,8.58 -3.363,15.225 -10.084,19.933c-6.725,4.708 -15.501,7.062 -26.33,7.062l-0.001,0Z" style="fill-rule:nonzero;"/></g></g></svg>