<?xml version="1.0" encoding="UTF-8" standalone="no"?><!DOCTYPE svg PUBLIC "-//W3C//DTD SVG 1.1//EN" "http://www.w3.org/Graphics/SVG/1.1/DTD/svg11.dtd"><svg width="100%" height="100%" viewBox="0 0 713 163" version="1.1" xmlns="http://www.w3.org/2000/svg" xmlns:xlink="http://www.w3.org/1999/xlink" xml:space="preserve" xmlns:serif="http://www.serif.com/" style="fill-rule:evenodd;clip-rule:evenodd;stroke-linejoin:round;stroke-miterlimit:2;"><g><path d="M198.299,8.854l32.599,0l0,64.775l60.118,-64.775l39.373,0l-60.329,62.869l63.081,85.31l-39.162,0l-45.934,-63.081l-17.147,17.78l0,45.3l-32.599,0l0,-148.178Z" style="fill:#000400;fill-rule:nonzero;"/><path d="M315.816,100.935l0,-0.421c0,-32.6 26.249,-59.061 61.6,-59.061c35.14,0 61.177,26.038 61.177,58.637l0,0.424c0,32.599 -26.249,59.058 -61.6,59.058c-35.139,0 -61.177,-26.037 -61.177,-58.637Zm91.024,0l0,-0.421c0,-16.725 -12.066,-31.33 -29.847,-31.33c-18.417,0 -29.424,14.181 -29.424,30.906l0,0.424c0,16.723 12.066,31.328 29.847,31.328c18.417,0 29.424,-14.182 29.424,-30.907Z" style="fill:#000400;fill-rule:nonzero;"/><path d="M447.475,124.857l0,-53.768l-13.548,0l0,-27.518l13.548,0l0,-29.002l32.176,0l0,29.001l26.672,0l0,27.519l-26.672,0l0,48.476c0,7.408 3.175,11.008 10.373,11.008c5.547,0.027 11.011,-1.358 15.875,-4.024l0,25.826c-6.774,4.022 -14.605,6.562 -25.401,6.562c-19.686,0 -33.023,-7.832 -33.023,-34.08Zm68.084,-122.354l32.176,0l0,154.529l-32.176,0l0,-154.529Zm43.806,0l33.869,0l0,28.577l-33.869,0l0,-28.577Zm0.849,41.067l32.175,0l0,113.462l-32.176,0l0.001,-113.462Zm44.414,0l32.176,0l0,16.087c7.41,-9.525 16.936,-18.204 33.234,-18.204c24.345,0 38.527,16.088 38.527,42.126l0,73.453l-32.176,0l0,-63.293c0,-15.241 -7.198,-23.073 -19.476,-23.073c-12.278,0 -20.109,7.832 -20.109,23.073l0,63.293l-32.177,0l0.001,-113.462Z" style="fill:#000400;fill-rule:nonzero;"/></g><path d="M76.809,8.78l-74.383,78.222l0,69.928l74.275,-74.406l73.876,-73.744l-73.768,0Z" style="fill:url(#_Linear1);fill-rule:nonzero;"/><path d="M2.426,156.93l74.275,-74.406l73.876,74.406l-148.151,0Z" style="fill:url(#_Linear2);fill-rule:nonzero;"/><path d="M2.426,8.78l74.383,0l-74.383,78.222l0,-78.222Z" style="fill:url(#_Linear3);fill-rule:nonzero;"/><defs><linearGradient id="_Linear1" x1="0" y1="0" x2="1" y2="0" gradientUnits="userSpaceOnUse" gradientTransform="matrix(137.861,-137.862,137.862,137.861,-22.5161,144.989)"><stop offset="0" style="stop-color:#c757bc;stop-opacity:1"/><stop offset="0.11" style="stop-color:#c757bc;stop-opacity:1"/><stop offset="0.17" style="stop-color:#cd5ca9;stop-opacity:1"/><stop offset="0.49" style="stop-color:#e8744f;stop-opacity:1"/><stop offset="0.72" style="stop-color:#f88316;stop-opacity:1"/><stop offset="0.82" style="stop-color:#ff8900;stop-opacity:1"/><stop offset="1" style="stop-color:#ff8900;stop-opacity:1"/></linearGradient><linearGradient id="_Linear2" x1="0" y1="0" x2="1" y2="0" gradientUnits="userSpaceOnUse" gradientTransform="matrix(67.196,-67.1971,67.1971,67.196,49.7083,183.659)"><stop offset="0" style="stop-color:#00afff;stop-opacity:1"/><stop offset="0.3" style="stop-color:#00afff;stop-opacity:1"/><stop offset="0.69" style="stop-color:#5282ff;stop-opacity:1"/><stop offset="1" style="stop-color:#945dff;stop-opacity:1"/></linearGradient><linearGradient id="_Linear3" x1="0" y1="0" x2="1" y2="0" gradientUnits="userSpaceOnUse" gradientTransform="matrix(47.1394,-47.1394,47.1394,47.1394,0.647372,49.6699)"><stop offset="0" style="stop-color:#00afff;stop-opacity:1"/><stop offset="0.3" style="stop-color:#00afff;stop-opacity:1"/><stop offset="0.69" style="stop-color:#5282ff;stop-opacity:1"/><stop offset="1" style="stop-color:#945dff;stop-opacity:1"/></linearGradient></defs></svg>