<?xml version="1.0" encoding="UTF-8" standalone="no"?><!DOCTYPE svg PUBLIC "-//W3C//DTD SVG 1.1//EN" "http://www.w3.org/Graphics/SVG/1.1/DTD/svg11.dtd"><svg width="100%" height="100%" viewBox="0 0 1275 230" version="1.1" xmlns="http://www.w3.org/2000/svg" xmlns:xlink="http://www.w3.org/1999/xlink" xml:space="preserve" xmlns:serif="http://www.serif.com/" style="fill-rule:evenodd;clip-rule:evenodd;stroke-linejoin:round;stroke-miterlimit:2;"><path id="path10349" d="M209.316,56.213c-1.254,-4.011 -4.262,-7.27 -8.023,-9.276l-76.469,-36.605c-2.006,-1.003 -4.263,-1.254 -6.268,-1.254c-2.006,0 -4.262,0 -6.268,0.502l-76.47,36.855c-3.76,1.755 -6.518,5.015 -7.521,9.277l-18.804,82.487c-0.752,4.262 0.251,8.524 2.758,12.034l52.902,65.438c3.008,3.008 7.27,5.014 11.533,5.265l84.241,0c4.513,0.501 8.775,-1.505 11.533,-5.265l52.902,-65.438c2.507,-3.51 3.51,-7.772 3.009,-12.034l-19.055,-81.986Z" style="fill:#326de6;fill-rule:nonzero;"/><path id="path10351" d="M197.532,134.939c-0.25,0 -0.501,0 -0.501,-0.251c0,-0.25 -0.502,-0.25 -1.003,-0.25c-1.003,-0.251 -2.006,-0.251 -3.009,-0.251c-0.501,0 -1.003,0 -1.504,-0.251l-0.251,0c-2.758,-0.25 -5.766,-0.752 -8.524,-1.504c-0.752,-0.251 -1.505,-1.003 -1.755,-1.755l-2.006,-0.501c1.003,-7.271 0.501,-14.793 -1.003,-22.064c-1.755,-7.271 -4.764,-14.291 -8.775,-20.559l1.504,-1.504l0,-0.251c0,-0.752 0.251,-1.755 0.752,-2.256c2.257,-2.006 4.513,-3.51 7.021,-5.015c0.501,-0.25 1.002,-0.501 1.504,-0.752c1.003,-0.501 1.755,-1.003 2.758,-1.504c0.251,-0.251 0.501,-0.251 0.752,-0.502c0.251,-0.25 0,-0.25 0,-0.501c2.256,-1.755 2.758,-4.764 1.003,-7.02c-0.752,-1.003 -2.257,-1.755 -3.51,-1.755c-1.254,0 -2.507,0.501 -3.51,1.253l-0.251,0.251c-0.251,0.251 -0.501,0.502 -0.752,0.502c-0.752,0.752 -1.504,1.504 -2.006,2.256c-0.251,0.502 -0.752,0.752 -1.003,1.003c-1.755,2.006 -4.011,4.011 -6.268,5.516c-0.501,0.251 -1.003,0.501 -1.504,0.501c-0.251,0 -0.752,0 -1.003,-0.25l-0.251,0l-2.005,1.253c-2.006,-2.006 -4.263,-4.011 -6.268,-6.017c-9.277,-7.271 -20.81,-11.784 -32.594,-13.038l-0.251,-2.005l0,0.25c-0.752,-0.501 -1.002,-1.253 -1.253,-2.005c0,-2.758 0,-5.516 0.501,-8.525l0,-0.25c0,-0.502 0.251,-1.003 0.251,-1.505c0.251,-1.003 0.251,-2.006 0.501,-3.008l0,-1.505c0.251,-2.507 -1.755,-5.014 -4.262,-5.265c-1.504,-0.251 -3.008,0.502 -4.262,1.755c-1.003,1.003 -1.504,2.257 -1.504,3.51l0,1.254c0,1.003 0.25,2.006 0.501,3.008c0.251,0.502 0.251,1.003 0.251,1.505l0,0.251c0.501,2.757 0.501,5.515 0.501,8.524c-0.25,0.752 -0.501,1.504 -1.253,2.006l0,0.501l-0.251,2.006c-2.758,0.251 -5.516,0.752 -8.525,1.253c-11.783,2.508 -22.564,8.776 -30.838,17.551l-1.504,-1.003l-0.251,0c-0.251,0 -0.501,0.251 -1.003,0.251c-0.501,0 -1.003,-0.251 -1.504,-0.502c-2.257,-1.755 -4.513,-3.761 -6.268,-5.766c-0.251,-0.502 -0.752,-0.752 -1.003,-1.003c-0.752,-0.752 -1.254,-1.505 -2.006,-2.257c-0.251,-0.25 -0.501,-0.25 -0.752,-0.501l-0.251,-0.251c-1.003,-0.752 -2.256,-1.253 -3.51,-1.253c-1.504,0 -2.758,0.501 -3.51,1.755c-1.504,2.256 -1.003,5.265 1.003,7.02c0.251,0 0.251,0.25 0.251,0.25c0,0 0.501,0.502 0.752,0.502c0.752,0.501 1.755,1.003 2.758,1.504c0.501,0.251 1.003,0.502 1.504,0.752c2.507,1.505 5.015,3.009 7.02,5.015c0.502,0.501 1.003,1.504 0.752,2.256l0,-0.25l1.505,1.504c-0.251,0.501 -0.502,0.752 -0.752,1.253c-7.773,12.286 -11.032,26.827 -8.776,41.118l-2.005,0.502c0,0.251 -0.251,0.251 -0.251,0.251c-0.251,0.752 -1.003,1.253 -1.755,1.755c-2.758,0.752 -5.516,1.253 -8.525,1.504c-0.501,0 -1.002,0 -1.504,0.251c-1.003,0 -2.006,0.25 -3.008,0.25c-0.251,0 -0.502,0.251 -1.003,0.251c-0.251,0 -0.251,0 -0.502,0.251c-2.758,0.501 -4.513,3.008 -4.011,5.766c0.501,2.257 2.758,3.761 5.014,3.51c0.502,0 0.752,0 1.254,-0.25c0.25,0 0.25,0 0.25,-0.251c0,-0.251 0.753,0 1.003,0c1.003,-0.251 2.006,-0.752 2.758,-1.003c0.502,-0.251 1.003,-0.501 1.505,-0.501l0.25,0c2.758,-1.003 5.265,-1.755 8.274,-2.257l0.251,0c0.752,0 1.504,0.251 2.005,0.752c0.251,0 0.251,0.251 0.251,0.251l2.257,-0.251c3.76,11.533 10.781,21.813 20.559,29.334c2.256,1.755 4.262,3.26 6.769,4.513l-1.254,1.755c0,0.251 0.251,0.251 0.251,0.251c0.502,0.752 0.502,1.755 0.251,2.507c-1.003,2.507 -2.507,5.015 -4.012,7.271l0,0.251c-0.25,0.501 -0.501,0.752 -1.003,1.253c-0.501,0.502 -1.002,1.505 -1.755,2.508c-0.25,0.25 -0.25,0.501 -0.501,0.752c0,0 0,0.251 -0.251,0.251c-1.253,2.507 -0.25,5.515 2.006,6.769c0.501,0.251 1.254,0.501 1.755,0.501c2.006,0 3.761,-1.253 4.764,-3.008c0,0 0,-0.251 0.25,-0.251c0,-0.251 0.251,-0.501 0.502,-0.752c0.251,-1.003 0.752,-1.755 1.003,-2.758l0.501,-1.504c0.752,-2.758 2.006,-5.265 3.26,-7.773c0.501,-0.752 1.253,-1.253 2.005,-1.504c0.251,0 0.251,0 0.251,-0.251l1.003,-2.005c7.02,2.757 14.291,4.011 21.812,4.011c4.513,0 9.026,-0.501 13.539,-1.755c2.758,-0.501 5.516,-1.504 8.023,-2.256l1.003,1.755c0.251,0 0.251,0 0.251,0.25c0.752,0.251 1.504,0.752 2.006,1.505c1.253,2.507 2.507,5.014 3.259,7.772l0,0.251l0.501,1.504c0.251,1.003 0.502,2.006 1.003,2.758c0.251,0.251 0.251,0.501 0.502,0.752c0,0 0,0.251 0.25,0.251c1.003,1.755 2.758,3.008 4.764,3.008c0.752,0 1.254,-0.25 2.006,-0.501c1.003,-0.502 2.006,-1.504 2.256,-2.758c0.251,-1.254 0.251,-2.507 -0.25,-3.761c0,-0.25 -0.251,-0.25 -0.251,-0.25c0,-0.251 -0.251,-0.502 -0.502,-0.753c-0.501,-1.003 -1.002,-1.755 -1.755,-2.507c-0.25,-0.501 -0.501,-0.752 -1.002,-1.253l0,-0.502c-1.755,-2.256 -3.009,-4.764 -4.012,-7.271c-0.251,-0.752 -0.251,-1.755 0.251,-2.507c0,-0.251 0.25,-0.251 0.25,-0.251l-0.752,-2.005c12.787,-7.773 22.565,-19.807 27.078,-34.098l2.006,0.251c0.25,0 0.25,-0.251 0.25,-0.251c0.502,-0.502 1.254,-0.752 2.006,-0.752l0.251,0c2.758,0.501 5.516,1.253 8.023,2.256l0.251,0c0.501,0.251 1.003,0.502 1.504,0.502c1.003,0.501 1.755,1.002 2.758,1.253c0.251,0 0.501,0.251 1.003,0.251c0.25,0 0.25,0 0.501,0.251c0.502,0.25 0.752,0.25 1.254,0.25c2.256,0 4.262,-1.504 5.014,-3.51c-0.251,-2.758 -2.256,-4.763 -4.513,-5.265Zm-72.458,-7.772l-6.769,3.259l-6.769,-3.259l-1.755,-7.271l4.763,-6.017l7.522,0l4.763,6.017l-1.755,7.271Zm40.868,-16.297c1.253,5.265 1.504,10.53 1.003,15.795l-23.819,-6.769c-2.256,-0.501 -3.51,-2.758 -3.008,-5.014c0.25,-0.753 0.501,-1.254 1.002,-1.755l18.804,-17.049c2.758,4.513 4.764,9.527 6.018,14.792Zm-13.539,-24.069l-20.559,14.542c-1.755,1.003 -4.262,0.752 -5.516,-1.003c-0.501,-0.501 -0.752,-1.003 -0.752,-1.755l-1.504,-25.323c11.031,1.254 20.809,6.018 28.331,13.539Zm-45.38,-12.787l5.014,-1.002l-1.254,25.071c0,2.257 -2.005,4.012 -4.262,4.012c-0.752,0 -1.253,-0.251 -2.006,-0.501l-20.809,-14.793c6.518,-6.268 14.541,-10.781 23.317,-12.787Zm-30.588,22.064l18.553,16.547c1.755,1.504 2.006,4.012 0.502,5.767c-0.502,0.752 -1.003,1.003 -2.006,1.253l-24.32,7.02c-0.752,-10.53 1.755,-21.311 7.271,-30.587Zm-4.262,42.371l24.821,-4.262c2.006,0 4.011,1.254 4.262,3.259c0.251,0.753 0.251,1.755 -0.251,2.508l-9.527,23.066c-8.775,-5.767 -15.795,-14.542 -19.305,-24.571Zm56.913,31.089c-3.51,0.753 -7.02,1.254 -10.781,1.254c-5.265,0 -10.781,-1.003 -15.795,-2.507l12.285,-22.314c1.254,-1.505 3.259,-2.006 5.014,-1.003c0.752,0.501 1.254,1.003 2.006,1.755l12.035,21.813c-1.505,0.25 -3.009,0.501 -4.764,1.002Zm30.588,-21.812c-3.761,6.017 -9.026,11.282 -15.043,15.043l-9.779,-23.568c-0.501,-2.005 0.502,-4.011 2.257,-4.763c0.752,-0.251 1.504,-0.502 2.256,-0.502l25.072,4.263c-1.253,3.51 -2.758,6.769 -4.763,9.527Z" style="fill:#fff;fill-rule:nonzero;"/><path id="path3003" d="M1223.98,165.778c3.51,0.25 7.271,-0.251 10.53,-1.505c2.006,-1.003 3.26,-3.259 3.009,-5.516c-0.251,-2.507 -1.755,-4.763 -4.012,-5.515c-3.76,-2.257 -8.023,-4.263 -12.285,-5.516c-4.262,-1.504 -8.023,-3.26 -11.533,-5.015c-3.259,-1.504 -6.017,-3.51 -8.775,-6.017c-2.507,-2.507 -4.262,-5.265 -5.516,-8.524c-1.504,-3.761 -2.006,-7.773 -2.006,-11.784c-0.25,-8.274 3.51,-16.297 10.029,-21.311c6.77,-5.265 15.795,-7.772 27.328,-7.772c5.516,0 11.283,0.501 16.799,1.755c4.262,0.752 8.524,1.755 12.786,3.259l-4.763,21.311c-3.51,-1.254 -6.77,-2.006 -10.28,-3.009c-4.011,-1.002 -8.274,-1.253 -12.285,-1.253c-8.524,0 -12.787,2.256 -12.787,7.02c0,1.003 0.251,2.006 0.502,3.009c0.501,1.002 1.253,1.755 2.256,2.507c1.003,0.752 2.507,1.504 4.262,2.507c1.755,1.003 4.263,2.006 7.271,3.009c5.015,1.755 10.029,4.011 14.542,6.518c3.51,1.755 6.519,4.012 9.026,7.02c2.256,2.257 3.761,5.015 4.764,8.274c1.002,3.51 1.504,7.02 1.504,10.53c0.501,8.525 -3.51,16.799 -10.781,21.562c-7.02,4.764 -17.049,7.271 -30.086,7.271c-7.271,0.251 -14.291,-0.501 -21.311,-2.256c-4.012,-1.003 -7.773,-2.257 -11.534,-3.51l4.513,-22.064c4.513,1.755 9.277,3.26 14.041,4.262c5.014,0.251 9.778,0.753 14.792,0.753m-138.146,-27.579c-0.251,-7.522 1.253,-15.044 3.761,-22.064c2.256,-6.017 5.766,-11.282 10.279,-16.046c4.262,-4.262 9.026,-7.521 14.542,-9.527c5.516,-2.257 11.282,-3.259 17.049,-3.259c13.539,0 24.319,4.262 32.092,12.536c7.772,8.273 11.784,20.558 11.784,36.604c0,1.505 0,3.26 -0.251,5.266c0,2.005 -0.251,3.51 -0.251,5.014l-61.175,0c0.501,5.265 3.259,10.279 7.772,13.288c5.516,3.51 12.034,5.265 18.553,5.014c4.764,0 9.778,-0.501 14.542,-1.253c4.011,-0.752 8.023,-2.006 11.784,-3.761l3.76,22.063c-1.755,1.003 -3.76,1.505 -5.766,2.257c-2.758,0.752 -5.516,1.504 -8.274,1.755c-3.008,0.501 -6.017,1.003 -9.527,1.504c-3.259,0.251 -6.77,0.502 -10.28,0.502c-7.772,0.25 -15.293,-1.003 -22.564,-3.761c-6.018,-2.257 -11.283,-5.767 -15.796,-10.28c-4.262,-4.513 -7.27,-10.028 -9.276,-15.795c-1.755,-6.769 -2.758,-13.539 -2.758,-20.057m63.432,-10.28c0,-2.256 -0.502,-4.513 -1.254,-6.769c-0.501,-2.257 -1.755,-4.012 -3.008,-5.767c-1.505,-1.755 -3.26,-3.259 -5.266,-4.262c-2.507,-1.254 -5.014,-1.755 -7.772,-1.755c-2.758,0 -5.265,0.501 -7.772,1.755c-2.006,1.003 -4.012,2.256 -5.516,4.011c-1.504,1.755 -2.758,3.761 -3.51,6.018c-0.752,2.256 -1.254,4.513 -1.504,6.769l35.602,0m-136.893,-62.178l27.078,-4.263l0,28.081l32.593,0l0,22.565l-32.593,0l0,33.596c-0.251,4.764 0.752,9.527 3.008,13.539c2.006,3.259 6.018,5.014 12.286,5.014c3.008,0 6.017,-0.25 8.775,-0.752c3.008,-0.501 5.766,-1.253 8.524,-2.256l3.761,21.06c-3.51,1.504 -7.271,2.507 -11.032,3.51c-4.763,1.003 -9.778,1.504 -14.792,1.504c-6.268,0.251 -12.536,-0.752 -18.302,-3.008c-4.513,-1.755 -8.525,-4.764 -11.534,-8.274c-3.008,-3.761 -5.014,-8.274 -6.268,-13.037c-1.253,-5.516 -1.755,-11.283 -1.504,-16.798l0,-80.481m-109.564,72.458c-0.251,-7.522 1.254,-15.044 3.761,-22.064c2.256,-6.017 5.766,-11.282 10.279,-16.046c4.262,-4.262 9.026,-7.521 14.542,-9.527c5.516,-2.257 11.282,-3.259 17.049,-3.259c13.539,0 24.32,4.262 32.092,12.536c7.772,8.273 11.784,20.558 11.784,36.604c0,1.505 0,3.26 -0.251,5.266c-0.251,2.005 -0.251,3.51 -0.251,5.014l-61.426,0c0.501,5.265 3.259,10.279 7.772,13.288c5.516,3.51 12.035,5.265 18.554,5.014c4.763,0 9.778,-0.501 14.541,-1.253c4.012,-0.752 8.023,-2.006 12.035,-3.761l3.761,22.063c-1.755,1.003 -3.761,1.505 -5.767,2.257c-2.758,0.752 -5.516,1.504 -8.274,1.755c-3.008,0.501 -6.017,1.003 -9.527,1.504c-3.259,0.251 -6.769,0.502 -10.28,0.502c-7.772,0.25 -15.293,-1.003 -22.564,-3.761c-6.017,-2.257 -11.283,-5.767 -15.796,-10.28c-4.262,-4.513 -7.27,-10.028 -9.276,-15.795c-2.006,-6.769 -3.009,-13.539 -2.758,-20.057m63.432,-10.28c0,-2.256 -0.502,-4.513 -1.254,-6.769c-0.501,-2.257 -1.755,-4.012 -3.008,-5.767c-1.505,-1.755 -3.26,-3.259 -5.265,-4.262c-2.508,-1.254 -5.015,-1.755 -7.773,-1.755c-2.758,0 -5.265,0.501 -7.772,1.755c-2.006,1.003 -3.761,2.256 -5.265,4.011c-1.504,1.755 -2.758,3.761 -3.51,6.018c-0.752,2.256 -1.254,4.513 -1.505,6.769l35.352,0m-166.227,-35.101c5.767,-1.504 11.784,-2.758 17.801,-3.76c7.522,-1.254 15.294,-1.755 22.816,-1.755c6.769,-0.251 13.538,1.002 20.057,3.259c5.015,1.755 9.527,4.764 12.787,8.775c3.259,4.012 5.516,8.775 6.769,13.79c1.505,5.766 2.006,11.783 2.006,17.801l0,53.904l-26.827,0l0,-50.394c0,-8.775 -1.254,-14.793 -3.51,-18.553c-2.256,-3.511 -6.519,-5.516 -12.787,-5.516c-2.005,0 -4.011,0 -6.268,0.25c-2.256,0 -4.011,0.251 -5.766,0.502l0,73.711l-27.078,0l0,-92.014m-19.055,20.81c-2.507,-0.501 -5.265,-1.254 -8.524,-1.755c-3.51,-0.752 -7.02,-1.003 -10.53,-1.003c-2.006,0 -4.012,0.251 -6.268,0.502c-1.755,0.25 -3.51,0.501 -5.265,1.002l0,72.96l-27.078,0l0,-90.761c5.516,-2.005 11.282,-3.51 17.049,-4.763c7.271,-1.755 14.792,-2.507 22.063,-2.257c1.755,0 3.51,0.251 5.265,0.251c2.006,0 4.012,0.251 6.268,0.752c2.006,0.251 4.012,0.502 6.268,1.003c1.755,0.251 3.51,0.752 5.265,1.504l-4.513,22.565m-168.232,24.571c-0.251,-7.522 1.254,-15.044 3.761,-22.064c2.256,-6.017 5.766,-11.282 10.279,-16.046c4.262,-4.262 9.026,-7.521 14.542,-9.527c5.516,-2.257 11.282,-3.259 17.049,-3.259c13.539,0 24.32,4.262 32.092,12.536c7.772,8.273 11.784,20.558 11.784,36.354c0,1.504 0,3.259 -0.251,5.265c-0.251,2.006 -0.251,3.51 -0.251,5.014l-61.426,0c0.502,5.265 3.259,10.28 7.772,13.288c5.516,3.51 12.035,5.265 18.554,5.015c4.763,0 9.778,-0.502 14.541,-1.254c4.012,-0.752 8.023,-2.006 11.784,-3.51l3.761,22.063c-1.755,1.003 -3.761,1.505 -5.767,2.257c-2.758,0.752 -5.515,1.504 -8.273,1.755c-3.009,0.501 -6.018,1.003 -9.528,1.504c-3.259,0.251 -6.769,0.502 -10.279,0.502c-7.772,0.25 -15.294,-1.003 -22.565,-3.761c-6.017,-2.257 -11.282,-5.767 -15.795,-10.28c-4.262,-4.513 -7.271,-10.028 -9.277,-15.795c-1.504,-6.769 -2.507,-13.288 -2.507,-20.057m63.683,-10.28c0,-2.256 -0.502,-4.513 -1.254,-6.769c-0.501,-2.257 -1.755,-4.012 -3.009,-5.767c-1.504,-1.755 -3.259,-3.259 -5.265,-4.262c-2.507,-1.254 -5.014,-1.755 -7.772,-1.755c-2.758,0 -5.265,0.501 -7.772,1.755c-2.006,1.003 -4.012,2.256 -5.516,4.011c-1.504,1.755 -2.758,3.761 -3.51,6.018c-0.752,2.256 -1.254,4.513 -1.504,6.769l35.602,0m-107.559,8.775c0,-17.55 -6.519,-26.075 -19.305,-26.075c-2.758,0 -5.516,0.251 -8.274,1.003c-2.256,0.502 -4.513,1.505 -6.519,2.758l0,49.141c1.254,0.251 3.009,0.502 5.015,0.752c2.006,0.251 4.262,0.251 6.769,0.251c6.519,0.501 12.787,-2.256 16.798,-7.522c3.761,-6.017 5.767,-13.037 5.516,-20.308m27.579,1.003c0,7.02 -1.003,14.04 -3.51,20.81c-2.006,6.017 -5.265,11.282 -9.527,15.795c-4.513,4.513 -9.778,8.023 -15.545,10.28c-6.769,2.507 -13.789,3.51 -21.06,3.51c-3.259,0 -6.77,-0.251 -10.28,-0.502c-3.51,-0.251 -7.02,-0.752 -10.53,-1.003c-3.259,-0.501 -6.518,-1.003 -9.778,-1.755c-3.259,-0.501 -6.017,-1.253 -8.274,-2.256l0,-134.135l27.078,-4.262l0,47.636c3.009,-1.253 6.268,-2.256 9.527,-3.008c3.51,-0.752 7.021,-1.003 10.531,-1.003c6.268,0 12.285,1.003 18.051,3.761c5.015,2.256 9.528,5.766 13.038,10.029c3.761,4.763 6.518,10.028 8.023,15.795c1.504,6.268 2.256,13.288 2.256,20.308m-114.328,44.127c-5.766,1.504 -11.783,2.758 -17.801,3.51c-7.521,1.253 -15.294,1.755 -22.815,1.755c-7.02,0.25 -13.79,-1.003 -20.308,-3.26c-5.015,-2.005 -9.277,-5.014 -12.787,-9.025c-3.259,-4.263 -5.516,-9.026 -6.769,-14.291c-1.505,-5.767 -2.006,-12.035 -2.006,-18.052l0,-52.902l27.077,0l0,49.893c0,8.775 1.254,15.043 3.511,18.804c2.256,3.761 6.518,5.767 12.786,5.767c2.006,0 4.012,0 6.268,-0.251c2.257,-0.251 4.012,-0.251 5.767,-0.752l0,-73.461l27.077,0l0,92.265m-157.953,-57.666c2.758,-3.008 5.265,-6.017 8.274,-9.026c2.758,-3.259 5.516,-6.268 8.274,-9.276c2.758,-3.26 5.265,-6.017 7.521,-8.775c2.257,-2.758 4.513,-5.266 6.268,-7.271l32.092,0c-6.518,7.271 -12.786,14.541 -18.804,21.311c-6.267,6.769 -12.786,13.789 -20.057,20.81c4.011,3.76 7.772,7.521 11.282,11.783c3.761,4.513 7.522,9.026 11.283,14.041c3.51,4.763 7.02,9.778 10.028,14.541c3.009,4.764 5.516,9.277 7.522,13.288l-31.089,0c-2.006,-3.259 -4.262,-6.518 -6.77,-10.279c-2.507,-3.761 -5.265,-7.522 -7.772,-11.533c-2.758,-3.761 -5.766,-7.522 -9.026,-11.032c-2.758,-3.259 -5.766,-6.268 -9.026,-8.775l0,41.87l-27.077,0l0,-137.394l27.077,-4.262l0,79.979" style="fill-rule:nonzero;"/></svg>