<?xml version="1.0" encoding="UTF-8" standalone="no"?><!DOCTYPE svg PUBLIC "-//W3C//DTD SVG 1.1//EN" "http://www.w3.org/Graphics/SVG/1.1/DTD/svg11.dtd"><svg width="100%" height="100%" viewBox="0 0 763 242" version="1.1" xmlns="http://www.w3.org/2000/svg" xmlns:xlink="http://www.w3.org/1999/xlink" xml:space="preserve" xmlns:serif="http://www.serif.com/" style="fill-rule:evenodd;clip-rule:evenodd;stroke-linejoin:round;stroke-miterlimit:2;"><g id="Layer-1" serif:id="Layer 1"><g id="g3154"><g id="g4389"><g id="g4391"><path id="path4393" d="M607.291,126.138l0,56.919l-7.181,0l0,-9.754c-6.504,7.789 -13.935,11.683 -22.297,11.683c-8.36,0 -15.435,-2.965 -21.224,-8.896c-5.716,-6.003 -8.575,-13.114 -8.575,-21.332c0,-8.289 2.894,-15.364 8.683,-21.224c5.788,-5.931 12.72,-8.897 20.795,-8.897c9.29,0 16.829,3.966 22.618,11.899l0,-10.398l7.181,0m-6.753,28.727c0,-6.502 -2.179,-11.969 -6.538,-16.4c-4.36,-4.502 -9.719,-6.753 -16.079,-6.753c-6.289,0 -11.613,2.323 -15.972,6.967c-4.359,4.574 -6.539,10.005 -6.539,16.294c0,6.288 2.216,11.755 6.646,16.4c4.431,4.574 9.719,6.86 15.865,6.86c6.217,0 11.541,-2.215 15.971,-6.646c4.431,-4.43 6.646,-10.004 6.646,-16.722" style="fill:#a57242;fill-rule:nonzero;"/></g><g id="g4395"><path id="path4397" d="M623.66,183.057l0,-76.964l15.972,0c10.934,0 18.937,0.822 24.011,2.465c5.145,1.573 9.576,4.11 13.292,7.611c3.716,3.43 6.574,7.647 8.575,12.649c2.001,5.002 3.002,10.862 3.002,17.579c0,6.646 -1.573,12.935 -4.717,18.866c-3.073,5.86 -7.289,10.291 -12.649,13.292c-5.288,3.001 -12.934,4.502 -22.938,4.502l-24.548,0m7.397,-7.289l8.897,0c9.29,0 16.007,-0.465 20.152,-1.394c4.216,-0.929 7.896,-2.751 11.04,-5.466c3.145,-2.787 5.539,-6.146 7.182,-10.076c1.644,-3.931 2.466,-8.433 2.466,-13.507c0,-5.073 -0.965,-9.754 -2.894,-14.042c-1.858,-4.287 -4.538,-7.825 -8.04,-10.612c-3.501,-2.787 -7.646,-4.645 -12.434,-5.574c-4.717,-1 -11.684,-1.5 -20.903,-1.5l-5.466,0l0,62.171" style="fill:#a57242;fill-rule:nonzero;"/></g><g id="g4399"><path id="path4401" d="M524.421,110.274c0,-1.644 0.571,-3.073 1.715,-4.288c1.215,-1.215 2.644,-1.822 4.287,-1.822c1.715,0 3.145,0.607 4.288,1.822c1.215,1.143 1.822,2.573 1.822,4.288c0,1.643 -0.607,3.072 -1.822,4.287c-1.143,1.144 -2.573,1.715 -4.288,1.715c-1.643,0 -3.072,-0.607 -4.287,-1.822c-1.144,-1.215 -1.715,-2.608 -1.715,-4.18m2.358,15.864l7.396,0l0,56.919l-7.396,0l0,-56.919" style="fill:#a57242;fill-rule:nonzero;"/></g><g id="g4403"><path id="path4405" d="M320.553,183.057l10.934,-76.964l1.179,0l31.3,63.136l31.086,-63.136l1.179,0l11.041,76.964l-7.611,0l-7.503,-55.097l-27.227,55.097l-1.93,0l-27.548,-55.525l-7.503,55.525l-7.397,0" style="fill:#a57242;fill-rule:nonzero;"/></g><g id="g4407"><path id="path4409" d="M477.657,126.138l0,56.919l-7.182,0l0,-9.754c-6.503,7.789 -13.935,11.683 -22.296,11.683c-8.361,0 -15.436,-2.965 -21.224,-8.896c-5.717,-6.003 -8.575,-13.114 -8.575,-21.332c0,-8.289 2.894,-15.364 8.682,-21.224c5.788,-5.931 12.72,-8.897 20.795,-8.897c9.29,0 16.83,3.966 22.618,11.899l0,-10.398l7.182,0m-6.753,28.727c0,-6.502 -2.18,-11.969 -6.539,-16.4c-4.359,-4.502 -9.719,-6.753 -16.079,-6.753c-6.288,0 -11.612,2.323 -15.971,6.967c-4.36,4.574 -6.539,10.005 -6.539,16.294c0,6.288 2.215,11.755 6.646,16.4c4.43,4.574 9.718,6.86 15.864,6.86c6.217,0 11.541,-2.215 15.972,-6.646c4.43,-4.43 6.646,-10.004 6.646,-16.722" style="fill:#a57242;fill-rule:nonzero;"/></g><g id="g4411"><path id="path4413" d="M490.06,126.138l7.503,0l0,8.254c2.001,-3.359 3.931,-5.824 5.789,-7.396c1.929,-1.573 4.037,-2.359 6.324,-2.359c2.358,0 4.716,0.644 7.075,1.93l-3.859,6.217c-1.072,-0.643 -2.18,-0.965 -3.323,-0.965c-2.216,0 -4.324,1.144 -6.325,3.43c-1.929,2.287 -3.358,5.253 -4.287,8.897c-0.929,3.573 -1.394,10.112 -1.394,19.616l0,19.295l-7.503,0l0,-56.919" style="fill:#a57242;fill-rule:nonzero;"/></g><g id="g4415"><path id="path4417" d="M704.562,106.093l15.221,0c8.075,0 14.185,1.644 18.33,4.931c4.216,3.216 6.324,7.861 6.324,13.935c0,3.359 -0.857,6.467 -2.573,9.326c-1.643,2.787 -4.073,5.038 -7.288,6.753c5.288,1.715 9.289,4.287 12.005,7.718c2.787,3.43 4.18,7.503 4.181,12.219c-0.001,6.361 -2.323,11.649 -6.968,15.865c-4.645,4.145 -10.648,6.217 -18.008,6.217l-21.224,0l0,-76.964m7.61,7.504l0,24.654l4.395,0c6.718,0 11.72,-1.072 15.007,-3.216c3.287,-2.144 4.931,-5.503 4.931,-10.076c0,-7.575 -5.145,-11.362 -15.436,-11.362l-8.897,0m0,32.372l0,29.585l9.541,0c5.502,0 9.539,-0.536 12.112,-1.608c2.644,-1.144 4.788,-2.859 6.432,-5.146c1.643,-2.358 2.465,-4.752 2.465,-7.181c0,-2.43 -0.464,-4.574 -1.393,-6.432c-0.929,-1.858 -2.323,-3.502 -4.181,-4.931c-1.786,-1.429 -3.966,-2.501 -6.539,-3.216c-2.501,-0.714 -7.217,-1.071 -14.149,-1.071l-4.288,0" style="fill:#a57242;fill-rule:nonzero;"/></g></g><g id="Layer-11" serif:id="Layer 1"><g id="g3392"><path id="path9" d="M333.697,12.5c-5.067,0.162 -3.464,1.622 -14.413,4.316c-11.056,2.721 -24.561,1.887 -36.467,6.88c-35.54,14.905 -42.671,65.848 -74.981,84.097c-24.15,13.642 -48.516,14.73 -70.422,21.594c-14.397,4.515 -30.145,13.773 -43.189,25.013c-10.124,8.728 -10.388,16.402 -20.967,27.348c-11.315,11.709 -44.971,0.198 -60.224,18.119c4.914,4.968 7.068,6.36 16.751,5.071c-2.005,3.8 -13.822,7.002 -11.509,12.592c2.434,5.881 31.005,9.868 56.976,-5.812c12.096,-7.302 21.73,-17.828 40.568,-20.34c24.376,-3.25 52.458,2.083 80.678,6.153c-4.184,12.476 -12.585,20.774 -19.315,30.71c-2.084,2.245 4.186,2.496 11.338,1.14c12.867,-3.182 22.14,-5.743 31.85,-11.396c11.93,-6.944 13.738,-24.749 28.375,-28.602c8.155,12.535 30.336,15.496 44.099,5.47c-12.077,-3.419 -15.415,-29.125 -11.338,-40.453c3.862,-10.723 7.677,-27.875 11.566,-42.049c4.175,-15.222 5.716,-34.408 10.769,-42.162c7.602,-11.666 16.002,-15.673 23.295,-22.251c7.293,-6.578 13.968,-12.982 13.749,-28.034c-0.07,-4.849 -2.577,-7.551 -7.189,-7.404Z" style="fill:#002b64;"/><path id="path3352" d="M23.525,216.457c18.495,2.649 29.743,0 44.595,-6.441c12.637,-5.481 24.841,-16.78 39.765,-21.569c21.917,-7.033 45.951,0.009 69.38,1.413c5.705,0.342 11.373,0.346 16.969,-0.263c8.728,-5.364 8.547,-25.429 17.042,-27.267c-0.25,28.151 -11.791,45.018 -23.861,61.351c25.438,-4.493 40.66,-19.206 50.941,-38.857c3.12,-5.959 5.784,-12.369 8.139,-19.088c3.641,2.795 1.577,11.299 3.408,15.906c17.521,-9.76 27.555,-32.034 34.198,-54.562c7.687,-26.073 10.834,-52.473 15.792,-60.187c4.838,-7.53 12.368,-12.172 19.242,-16.993c7.811,-5.481 14.778,-11.193 15.981,-21.636c-8.238,-0.763 -10.143,-2.668 -11.361,-6.819c-4.124,2.324 -7.916,2.822 -12.201,2.95c-3.718,0.113 -7.802,-0.053 -12.79,0.459c-41.255,4.237 -46.496,49.707 -72.939,75.484c-1.923,1.875 -4.004,3.623 -6.203,5.264c-9.26,6.901 -20.621,11.833 -31.068,15.826c-16.91,6.461 -32.988,6.921 -48.854,12.498c-11.646,4.093 -23.481,10.032 -33.048,16.579c-2.392,1.635 -4.645,3.311 -6.718,5.007c-5.614,4.592 -9.299,9.688 -12.863,14.93c-3.676,5.402 -7.226,10.96 -12.637,16.269c-8.766,8.607 -41.523,2.511 -53.055,10.493c-1.285,0.888 -2.306,1.954 -3.001,3.234c6.292,2.859 10.495,1.105 17.733,1.905c0.95,6.869 -14.934,10.951 -12.586,14.114Z" style="fill:#c49a6c;fill-rule:nonzero;"/><path id="path3873" d="M273.463,166.974c0.492,7.88 5.066,23.515 9.105,27.314c-7.909,1.924 -21.535,-1.254 -25.03,-6.833c1.796,-8.055 11.142,-15.419 15.925,-20.481Z" style="fill:#c49a6c;"/><path id="path3880" d="M285.049,41.915c5.84,5.07 18.094,1.001 15.904,-9.088c-9.074,-0.751 -14.33,2.329 -15.904,9.088Z" style="fill:#002b64;"/><path id="path3882" d="M325.764,30.125c-1.553,3.259 -4.527,7.459 -4.527,15.753c-0.013,1.424 -1.081,2.4 -1.099,0.204c0.08,-8.106 2.226,-11.61 4.505,-16.215c1.059,-1.888 1.697,-1.109 1.121,0.258Z" style="fill:#002b64;fill-rule:nonzero;"/><path id="path3884" d="M324.2,28.898c-1.833,3.109 -6.245,8.779 -6.974,17.042c-0.135,1.417 -1.287,2.294 -1.112,0.104c0.795,-8.066 4.321,-13.114 6.997,-17.503c1.215,-1.785 1.785,-0.954 1.089,0.357Z" style="fill:#002b64;fill-rule:nonzero;"/><path id="path3886" d="M322.774,27.272c-2.088,2.943 -8.879,9.753 -10.299,17.926c-0.256,1.399 -1.477,2.179 -1.118,0.011c1.469,-7.973 7.324,-14.239 10.36,-18.384c1.36,-1.679 1.857,-0.802 1.057,0.447Z" style="fill:#002b64;fill-rule:nonzero;"/><path id="path3888" d="M321.501,25.458c-2.479,2.62 -10.576,11.304 -13.129,19.195c-0.452,1.349 -1.77,1.951 -1.108,-0.146c2.574,-7.687 9.665,-15.966 13.253,-19.642c1.584,-1.471 1.953,-0.532 0.984,0.593Z" style="fill:#002b64;fill-rule:nonzero;"/></g></g></g></g></svg>