<?xml version="1.0" encoding="UTF-8" standalone="no"?><!DOCTYPE svg PUBLIC "-//W3C//DTD SVG 1.1//EN" "http://www.w3.org/Graphics/SVG/1.1/DTD/svg11.dtd"><svg width="100%" height="100%" viewBox="0 0 634 184" version="1.1" xmlns="http://www.w3.org/2000/svg" xmlns:xlink="http://www.w3.org/1999/xlink" xml:space="preserve" xmlns:serif="http://www.serif.com/" style="fill-rule:evenodd;clip-rule:evenodd;stroke-linejoin:round;stroke-miterlimit:2;"><clipPath id="_clip1"><rect id="mongodb" x="3.765" y="3.086" width="626.432" height="178.658"/></clipPath><g clip-path="url(#_clip1)"><g><path d="M587.024,77.076c-0.563,0.112 -1.129,1.354 -1.129,2.031c-0.112,4.517 -0.225,16.485 -0.225,24.614c0,0.226 0.338,0.678 0.677,0.678c1.693,0.112 5.758,0.225 9.258,0.225c4.855,0 7.678,-0.677 9.26,-1.353c4.063,-2.034 5.982,-6.437 5.982,-11.293c0,-10.95 -7.677,-15.129 -19.081,-15.129c-0.791,-0.112 -3.047,-0.112 -4.742,0.227Zm29.131,50.469c0,-11.178 -8.243,-17.388 -23.146,-17.388c-0.678,0 -5.42,-0.113 -6.55,0.112c-0.338,0.114 -0.789,0.34 -0.789,0.679c0,8.015 -0.113,20.775 0.225,25.743c0.226,2.145 1.808,5.193 3.727,6.096c2.031,1.13 6.661,1.355 9.822,1.355c8.92,0 16.711,-4.968 16.711,-16.597Zm-52.163,-56.679c1.128,0 4.515,0.338 13.209,0.338c8.243,0 14.791,-0.225 22.808,-0.225c9.822,0 23.371,3.499 23.371,18.178c0,7.226 -5.081,12.985 -11.742,15.807c-0.338,0.113 -0.338,0.338 0,0.45c9.483,2.373 17.84,8.243 17.84,19.307c0,10.84 -6.775,17.728 -16.598,22.018c-5.984,2.597 -13.436,3.5 -21,3.5c-5.759,0 -21.227,-0.677 -29.807,-0.451c-0.903,-0.34 0.79,-4.404 1.579,-5.081c2.034,-0.114 3.613,-0.226 5.759,-0.904c3.049,-0.789 3.387,-1.693 3.838,-6.322c0.227,-3.952 0.227,-17.954 0.227,-27.888c0,-13.662 0.113,-22.92 0,-27.436c-0.113,-3.499 -1.355,-4.63 -3.838,-5.308c-1.921,-0.337 -5.082,-0.79 -7.679,-1.128c-0.565,-0.565 1.354,-4.404 2.033,-4.855Zm-65.149,70.228c2.712,2.144 8.018,3.047 12.76,3.047c6.097,0 12.194,-1.127 18.065,-6.436c5.984,-5.418 10.161,-13.773 10.161,-27.096c0,-12.759 -4.854,-23.147 -14.79,-29.242c-5.646,-3.502 -12.872,-4.968 -21.227,-4.968c-2.484,0 -4.855,0.113 -6.322,0.789c-0.34,0.227 -1.129,1.242 -1.129,1.806c-0.226,2.259 -0.226,19.646 -0.226,29.808c0,10.5 0,25.179 0.226,26.872c0,1.695 0.789,4.291 2.484,5.42l-0.002,0Zm-25.629,-70.229c2.146,0 10.387,0.339 14.339,0.339c7.115,0 12.195,-0.338 25.63,-0.338c11.29,0 20.775,3.048 27.549,8.806c8.242,7.113 12.534,16.937 12.534,28.904c0,17.049 -7.791,26.873 -15.583,32.518c-7.788,5.758 -17.951,9.145 -32.403,9.145c-7.677,0 -20.887,-0.226 -31.84,-0.339l-0.113,0c-0.564,-1.016 0.903,-4.968 1.806,-5.08c2.937,-0.339 3.727,-0.453 5.195,-1.016c2.37,-0.904 2.823,-2.146 3.162,-6.323c0.337,-7.791 0.225,-17.162 0.225,-27.776c0,-7.563 0.112,-22.356 -0.114,-27.098c-0.338,-3.951 -2.031,-4.967 -5.419,-5.645c-1.693,-0.338 -3.952,-0.79 -7.112,-1.128c-0.453,-0.792 1.58,-4.291 2.144,-4.968l0,-0.001Z" style="fill:#8e714e;"/><path d="M336.598,145.496c-2.823,-0.339 -4.855,-0.789 -7.339,-1.918c-0.339,-0.227 -0.904,-1.355 -0.904,-1.807c-0.225,-3.952 -0.225,-15.243 -0.225,-22.806c0,-6.098 -1.016,-11.405 -3.613,-15.13c-3.049,-4.292 -7.451,-6.775 -13.098,-6.775c-4.967,0 -11.629,3.387 -17.162,8.129c-0.112,0.113 -1.015,0.904 -0.903,-0.339c0,-1.241 0.227,-3.725 0.339,-5.42c0.114,-1.58 -0.79,-2.37 -0.79,-2.37c-3.613,1.806 -13.774,4.177 -17.501,4.515c-2.709,0.567 -3.387,3.163 -0.563,4.066l0.113,0c3.046,0.903 5.08,1.919 6.659,2.936c1.129,0.903 1.017,2.145 1.017,3.162c0.112,8.466 0.112,21.451 -0.225,28.565c-0.113,2.822 -0.903,3.838 -2.937,4.289l0.227,-0.112c-1.581,0.339 -2.823,0.676 -4.743,0.903c-0.677,0.678 -0.677,4.291 0,5.081c1.242,0 7.79,-0.339 13.212,-0.339c7.451,0 11.29,0.339 13.209,0.339c0.79,-0.903 1.016,-4.291 0.565,-5.081c-2.146,-0.113 -3.727,-0.338 -5.194,-0.791c-2.032,-0.452 -2.597,-1.467 -2.711,-3.838c-0.224,-5.985 -0.224,-18.63 -0.224,-27.21c0,-2.372 0.677,-3.501 1.353,-4.179c2.598,-2.257 6.776,-3.838 10.501,-3.838c3.613,0 5.983,1.129 7.79,2.598c2.484,2.031 3.275,4.967 3.613,7.112c0.564,4.855 0.339,14.452 0.339,22.807c0,4.516 -0.339,5.645 -2.031,6.209c-0.791,0.339 -2.823,0.792 -5.195,1.016c-0.79,0.792 -0.564,4.292 0,5.082c3.274,0 7.114,-0.339 12.759,-0.339c7,0 11.517,0.339 13.324,0.339c0.563,-0.677 0.789,-3.952 0.338,-4.856Zm31.275,-43.128c-5.983,0 -9.71,4.628 -9.71,11.853c0,7.34 3.274,15.808 12.532,15.808c1.581,0 4.517,-0.678 5.871,-2.259c2.146,-2.031 3.614,-6.096 3.614,-10.387c0,-9.371 -4.63,-15.016 -12.307,-15.016l0,0.001Zm-0.791,49.903c-2.257,0 -3.839,0.678 -4.855,1.243c-4.742,3.046 -6.887,5.983 -6.887,9.484c0,3.273 1.242,5.87 3.952,8.128c3.274,2.823 7.79,4.178 13.548,4.178c11.517,0 16.598,-6.21 16.598,-12.306c0,-4.292 -2.146,-7.114 -6.548,-8.694c-3.162,-1.355 -8.919,-2.033 -15.808,-2.033Zm0.791,29.356c-6.887,0 -11.856,-1.468 -16.146,-4.742c-4.178,-3.161 -5.984,-7.904 -5.984,-11.178c0,-0.903 0.227,-3.388 2.259,-5.645c1.24,-1.356 3.952,-3.952 10.387,-8.355c0.226,-0.113 0.338,-0.225 0.338,-0.453c0,-0.225 -0.226,-0.451 -0.451,-0.563c-5.307,-2.032 -6.887,-5.307 -7.34,-7.113l0,-0.227c-0.112,-0.677 -0.338,-1.354 0.679,-2.032c0.79,-0.564 1.92,-1.242 3.16,-2.031c1.92,-1.13 3.952,-2.372 5.194,-3.389c0.226,-0.225 0.226,-0.45 0.226,-0.676c0,-0.227 -0.226,-0.453 -0.452,-0.564c-7.902,-2.598 -11.854,-8.47 -11.854,-17.276c0,-5.758 2.597,-10.952 7.225,-14.226c3.162,-2.484 11.065,-5.533 16.259,-5.533l0.339,0c5.306,0.113 8.242,1.242 12.419,2.71c2.258,0.791 4.404,1.129 7.341,1.129c4.402,0 6.321,-1.355 7.901,-2.934c0.114,0.225 0.34,0.79 0.453,2.257c0.112,1.468 -0.339,3.613 -1.469,5.194c-0.903,1.242 -2.935,2.146 -4.967,2.146l-0.565,0c-2.032,-0.227 -2.937,-0.453 -2.937,-0.453l-0.45,0.226c-0.112,0.227 0,0.452 0.113,0.791l0.113,0.226c0.226,1.016 0.677,4.063 0.677,4.855c0,9.258 -3.725,13.321 -7.677,16.37c-3.84,2.823 -8.242,4.629 -13.211,5.082c-0.112,0 -0.562,0 -1.58,0.112c-0.564,0 -1.355,0.114 -1.468,0.114l-0.113,0c-0.903,0.225 -3.16,1.354 -3.16,3.273c0,1.693 1.015,3.727 5.87,4.065c1.016,0.113 2.031,0.113 3.162,0.227c6.435,0.45 14.452,1.015 18.177,2.257c5.194,1.919 8.468,6.548 8.468,12.081c0,8.356 -5.983,16.146 -15.919,21c-4.855,2.146 -9.711,3.275 -15.017,3.275Zm64.356,-78.695c-2.37,0 -4.516,0.563 -6.097,1.692c-4.402,2.71 -6.661,8.13 -6.661,16.033c0,14.792 7.451,25.179 18.065,25.179c3.162,0 5.646,-0.904 7.79,-2.71c3.274,-2.711 4.969,-8.13 4.969,-15.695c0,-14.677 -7.34,-24.5 -18.065,-24.5l-0.001,0.001Zm2.033,48.323c-19.194,0 -26.081,-14.113 -26.081,-27.323c0,-9.258 3.725,-16.372 11.177,-21.453c5.307,-3.274 11.63,-5.08 17.275,-5.08c14.677,0 24.952,10.5 24.952,25.63c0,10.274 -4.064,18.403 -11.855,23.371c-3.726,2.484 -10.161,4.855 -15.469,4.855l0.001,0Zm-201.199,-48.324c-2.371,0 -4.516,0.564 -6.098,1.693c-4.402,2.71 -6.661,8.13 -6.661,16.033c0,14.792 7.451,25.179 18.065,25.179c3.161,0 5.645,-0.904 7.791,-2.71c3.273,-2.711 4.968,-8.13 4.968,-15.695c0,-14.677 -7.226,-24.5 -18.065,-24.5Zm2.032,48.324c-19.194,0 -26.081,-14.113 -26.081,-27.323c0,-9.258 3.725,-16.372 11.176,-21.453c5.308,-3.274 11.631,-5.08 17.276,-5.08c14.678,0 24.952,10.5 24.952,25.63c0,10.274 -4.064,18.403 -11.856,23.371c-3.613,2.484 -10.048,4.855 -15.467,4.855Zm-129.052,-1.129c-0.227,-0.338 -0.453,-1.354 -0.339,-2.596c0,-0.904 0.226,-1.468 0.339,-1.694c2.371,-0.34 3.613,-0.679 4.967,-1.016c2.259,-0.566 3.162,-1.806 3.274,-4.629c0.34,-6.774 0.34,-19.647 0.226,-28.566l0,-0.226c0,-1.016 0,-2.259 -1.241,-3.162c-1.808,-1.128 -3.952,-2.144 -6.775,-2.936c-1.015,-0.337 -1.693,-0.902 -1.581,-1.579c0,-0.677 0.678,-1.468 2.146,-1.694c3.726,-0.339 13.434,-2.709 17.274,-4.404c0.226,0.226 0.565,0.905 0.565,1.808l-0.113,1.24c-0.113,1.243 -0.226,2.711 -0.226,4.178c0,0.452 0.453,0.791 0.903,0.791c0.226,0 0.453,-0.113 0.678,-0.227c7.226,-5.645 13.774,-7.677 17.161,-7.677c5.533,0 9.824,2.597 13.098,8.016c0.226,0.34 0.452,0.453 0.791,0.453c0.225,0 0.563,-0.113 0.676,-0.339c6.662,-5.081 13.324,-8.13 17.726,-8.13c10.501,0 16.711,7.791 16.711,21.001c0,3.726 0,8.581 -0.113,12.985c0,3.951 -0.112,7.564 -0.112,10.161c0,0.563 0.789,2.37 2.031,2.709c1.581,0.791 3.727,1.13 6.549,1.581l0.113,0c0.226,0.79 -0.225,3.726 -0.677,4.291c-0.678,0 -1.694,0 -2.822,-0.113c-2.859,-0.149 -5.72,-0.224 -8.582,-0.226c-7,0 -10.613,0.113 -14.114,0.339c-0.224,-0.903 -0.338,-3.613 0,-4.291c2.033,-0.338 3.049,-0.678 4.292,-1.015c2.258,-0.678 2.822,-1.695 2.936,-4.63c0,-2.145 0.45,-20.436 -0.227,-24.84c-0.677,-4.516 -4.065,-9.822 -11.517,-9.822c-2.823,0 -7.225,1.129 -11.516,4.402c-0.225,0.227 -0.453,0.791 -0.453,1.13l0,0.113c0.453,2.37 0.453,5.082 0.453,9.259l0,7.338c0,5.081 -0.114,9.824 0,13.435c0,2.485 1.468,3.049 2.71,3.502c0.678,0.111 1.128,0.225 1.694,0.338c1.015,0.226 2.032,0.452 3.613,0.79c0.226,0.453 0.226,1.92 -0.113,3.162c-0.114,0.677 -0.34,1.015 -0.453,1.129c-3.838,-0.113 -7.79,-0.226 -13.548,-0.226c-1.693,0 -4.629,0.113 -7.113,0.113c-2.033,0 -3.952,0.113 -5.08,0.113c-0.114,-0.226 -0.34,-1.016 -0.34,-2.259c0,-1.015 0.226,-1.806 0.453,-2.032c0.564,-0.112 1.015,-0.225 1.58,-0.225c1.354,-0.226 2.484,-0.453 3.612,-0.678c1.921,-0.564 2.598,-1.581 2.71,-4.064c0.339,-5.646 0.678,-21.791 -0.112,-25.857c-1.355,-6.548 -5.08,-9.822 -11.066,-9.822c-3.499,0 -7.903,1.694 -11.515,4.405c-0.565,0.45 -1.017,1.578 -1.017,2.595l0,6.662c0,8.129 0,18.291 0.113,22.694c0.113,1.354 0.564,2.936 3.161,3.5c0.565,0.112 1.468,0.339 2.598,0.452l2.031,0.338c0.227,0.678 0.113,3.388 -0.338,4.291c-1.129,0 -2.484,-0.113 -4.066,-0.113c-2.37,-0.113 -5.419,-0.226 -8.805,-0.226c-3.952,0 -6.775,0.113 -9.033,0.226c-1.581,-0.226 -2.823,-0.226 -4.177,-0.226Z" style="fill:#442d22;"/><path d="M46.653,177.224l-4.629,-1.582c0,0 0.565,-23.596 -7.904,-25.29c-5.644,-6.549 0.906,-277.75 21.228,-0.904c0,0 -7.001,3.499 -8.243,9.485c-1.355,5.871 -0.452,18.291 -0.452,18.291Z" style="fill:#fff;"/><path d="M46.653,177.224l-4.629,-1.582c0,0 0.565,-23.596 -7.904,-25.29c-5.644,-6.549 0.906,-277.75 21.228,-0.904c0,0 -7.001,3.499 -8.243,9.485c-1.355,5.871 -0.452,18.291 -0.452,18.291Z" style="fill:#a6a385;"/><path d="M49.138,154.417c0,0 40.534,-26.647 31.048,-82.085c-9.144,-40.306 -30.709,-53.516 -33.081,-58.597c-2.596,-3.613 -5.081,-9.935 -5.081,-9.935l1.695,112.114c0,0.114 -3.501,34.325 5.42,38.504" style="fill:#fff;"/><path d="M49.138,154.417c0,0 40.534,-26.647 31.048,-82.085c-9.144,-40.306 -30.709,-53.516 -33.081,-58.597c-2.596,-3.613 -5.081,-9.935 -5.081,-9.935l1.695,112.114c0,0.114 -3.501,34.325 5.42,38.504" style="fill:#499d4a;"/><path d="M39.654,155.884c0,0 -38.051,-25.969 -35.792,-71.695c2.145,-45.727 29.017,-68.195 34.21,-72.26c3.388,-3.613 3.501,-4.968 3.727,-8.581c2.371,5.081 1.92,75.986 2.257,84.34c1.016,32.178 -1.805,62.1 -4.402,68.196Z" style="fill:#fff;"/><path d="M39.654,155.884c0,0 -38.051,-25.969 -35.792,-71.695c2.145,-45.727 29.017,-68.195 34.21,-72.26c3.388,-3.613 3.501,-4.968 3.727,-8.581c2.371,5.081 1.92,75.986 2.257,84.34c1.016,32.178 -1.805,62.1 -4.402,68.196Z" style="fill:#58aa50;"/></g></g></svg>