<?xml version="1.0" encoding="UTF-8" standalone="no"?><!DOCTYPE svg PUBLIC "-//W3C//DTD SVG 1.1//EN" "http://www.w3.org/Graphics/SVG/1.1/DTD/svg11.dtd"><svg width="100%" height="100%" viewBox="0 0 580 305" version="1.1" xmlns="http://www.w3.org/2000/svg" xmlns:xlink="http://www.w3.org/1999/xlink" xml:space="preserve" xmlns:serif="http://www.serif.com/" style="fill-rule:evenodd;clip-rule:evenodd;stroke-linejoin:round;stroke-miterlimit:2;"><g><path d="M0.557,274.572l19.049,0l0,-75.476l29.754,65.805c3.371,7.91 8.209,10.844 17.587,10.844c9.382,0 13.925,-2.934 17.443,-10.844l29.606,-65.805l0,75.476l19.201,0l0,-75.476c0,-7.325 -2.934,-10.85 -9.09,-12.755c-14.509,-4.395 -24.183,-0.585 -28.578,9.233l-29.163,65.077l-28.141,-65.077c-4.251,-9.815 -14.073,-13.625 -28.727,-9.233c-6.008,1.905 -8.941,5.426 -8.941,12.755l0,75.476Zm148.466,-61.407l19.2,0l0,41.478c-0.145,2.342 0.733,7.621 11.139,7.762c5.423,0.148 41.33,0 41.622,0l0,-49.536l19.2,0l0,67.859c0,16.707 -20.665,20.369 -30.339,20.517l-60.385,0l0,-12.748l60.53,0c12.312,-1.321 10.847,-7.473 10.847,-9.526l0,-4.987l-40.598,0c-18.908,-0.148 -31.071,-8.501 -31.216,-18.027c0,-0.877 0.437,-42.503 0,-42.792Zm411.836,-48.074c-11.72,-0.292 -20.813,0.88 -28.434,4.106c-2.194,0.884 -5.715,0.884 -6.004,3.666c1.172,1.166 1.314,3.075 2.342,4.691c1.757,2.933 4.838,6.885 7.621,8.938c3.081,2.349 6.159,4.691 9.378,6.744c5.716,3.514 12.164,5.568 17.732,9.086c3.225,2.053 6.448,4.69 9.674,6.891c1.609,1.173 2.637,3.081 4.69,3.811l0,-0.444c-1.025,-1.314 -1.32,-3.219 -2.342,-4.691c-1.468,-1.461 -2.933,-2.785 -4.401,-4.247c-4.248,-5.716 -9.527,-10.702 -15.246,-14.801c-4.69,-3.226 -14.949,-7.621 -16.854,-13.045l-0.289,-0.295c3.219,-0.296 7.033,-1.469 10.111,-2.349c4.986,-1.314 9.526,-1.025 14.653,-2.342c2.349,-0.588 4.691,-1.321 7.04,-2.053l0,-1.317c-2.638,-2.638 -4.543,-6.156 -7.325,-8.646c-7.473,-6.448 -15.686,-12.752 -24.187,-18.027c-4.543,-2.931 -10.406,-4.839 -15.238,-7.326c-1.764,-0.88 -4.691,-1.32 -5.716,-2.785c-2.644,-3.223 -4.106,-7.473 -6.011,-11.287c-4.248,-8.061 -8.354,-16.999 -12.016,-25.5c-2.638,-5.716 -4.254,-11.432 -7.473,-16.707c-15.098,-24.916 -31.515,-40.013 -56.723,-54.815c-5.42,-3.078 -11.869,-4.398 -18.76,-6.008c-3.663,-0.148 -7.325,-0.44 -10.991,-0.588c-2.349,-1.025 -4.691,-3.81 -6.744,-5.131c-8.354,-5.275 -29.899,-16.706 -36.058,-1.613c-3.958,9.527 5.863,18.905 9.234,23.743c2.496,3.371 5.715,7.181 7.479,10.992c1.022,2.49 1.314,5.131 2.342,7.768c2.343,6.448 4.543,13.629 7.621,19.64c1.61,3.078 3.367,6.304 5.42,9.09c1.173,1.613 3.226,2.345 3.663,4.983c-2.053,2.933 -2.194,7.328 -3.367,10.994c-5.279,16.563 -3.226,37.08 4.247,49.244c2.349,3.662 7.917,11.723 15.393,8.645c6.596,-2.637 5.128,-10.991 7.033,-18.319c0.443,-1.758 0.148,-2.93 1.025,-4.103l0,0.292c2.053,4.103 4.106,8.061 6.011,12.164c4.543,7.181 12.46,14.657 19.056,19.64c3.514,2.638 6.3,7.184 10.695,8.794l0,-0.444l-0.289,0c-0.88,-1.314 -2.201,-1.902 -3.373,-2.93c-2.638,-2.637 -5.568,-5.863 -7.621,-8.793c-6.153,-8.206 -11.573,-17.295 -16.411,-26.673c-2.349,-4.543 -4.402,-9.526 -6.301,-14.069c-0.887,-1.761 -0.887,-4.399 -2.349,-5.276c-2.2,3.223 -5.42,6.011 -7.039,9.966c-2.786,6.301 -3.075,14.069 -4.099,22.131c-0.592,0.147 -0.296,0 -0.592,0.292c-4.684,-1.17 -6.3,-6.008 -8.058,-10.111c-4.395,-10.406 -5.13,-27.113 -1.32,-39.132c1.025,-3.078 5.427,-12.752 3.669,-15.682c-0.887,-2.786 -3.81,-4.396 -5.426,-6.596c-1.906,-2.786 -3.952,-6.301 -5.273,-9.379c-3.514,-8.209 -5.272,-17.294 -9.086,-25.503c-1.764,-3.811 -4.838,-7.769 -7.331,-11.284c-2.786,-3.958 -5.857,-6.744 -8.058,-11.431c-0.733,-1.613 -1.758,-4.251 -0.585,-6.008c0.289,-1.173 0.88,-1.613 2.047,-1.905c1.905,-1.613 7.331,0.44 9.237,1.317c5.42,2.197 9.963,4.25 14.506,7.325c2.053,1.465 4.253,4.251 6.891,4.986l3.081,0c4.691,1.025 9.963,0.293 14.359,1.61c7.768,2.493 14.801,6.156 21.108,10.114c19.197,12.164 35.03,29.459 45.725,50.124c1.758,3.37 2.49,6.448 4.106,9.966c3.082,7.184 6.892,14.509 9.963,21.546c3.082,6.888 6.012,13.924 10.407,19.64c2.201,3.078 10.991,4.687 14.949,6.3c2.934,1.317 7.473,2.493 10.118,4.103c4.979,3.078 9.963,6.596 14.653,9.966c2.343,1.754 9.674,5.417 10.111,8.347Z" style="fill:#00678c;"/><path d="M411.365,37.73c-2.49,0 -4.247,0.293 -6.005,0.733l0,0.292l0.289,0c1.173,2.346 3.226,3.958 4.691,6.008c1.173,2.346 2.201,4.691 3.374,7.036l0.289,-0.292c2.053,-1.465 3.081,-3.81 3.081,-7.328c-0.88,-1.025 -1.025,-2.054 -1.757,-3.078c-0.881,-1.465 -2.786,-2.198 -3.962,-3.371Z" style="fill:#00678c;"/><path d="M254.842,274.572l55.106,0c6.449,0 12.608,-1.314 17.587,-3.663c8.354,-3.81 12.312,-8.938 12.312,-15.678l0,-14.069c0,-5.42 -4.543,-10.554 -13.625,-14.069c-4.691,-1.758 -10.555,-2.786 -16.27,-2.786l-23.155,0c-7.769,0 -11.432,-2.349 -12.46,-7.473c-0.144,-0.585 -0.144,-1.173 -0.144,-1.757l0,-8.649c0,-0.444 0,-1.025 0.144,-1.61c1.025,-3.958 3.078,-4.986 9.822,-5.716l56.424,0l0,-12.755l-53.645,0c-7.769,0 -11.872,0.444 -15.534,1.616c-11.287,3.515 -16.27,9.086 -16.27,18.902l0,11.145c0,8.643 9.674,15.974 26.088,17.732c1.758,0.148 3.663,0.148 5.568,0.148l19.788,0c0.733,0 1.462,0 2.047,0.147c6.011,0.585 8.649,1.61 10.406,3.804c1.173,1.173 1.468,2.201 1.468,3.522l0,11.139c0,1.314 -0.88,3.081 -2.637,4.543c-1.764,1.461 -4.55,2.49 -8.213,2.637c-0.732,0 -1.166,0.148 -1.905,0.148l-52.902,0l0,12.742Zm204.301,-22.127c0,13.044 9.822,20.37 29.462,21.838c1.906,0.148 3.663,0.289 5.568,0.289l49.832,0l0,-12.748l-50.269,0c-11.145,0 -15.393,-2.786 -15.393,-9.527l0,-65.953l-19.203,0l0,66.101l0.003,0Zm-107.135,0.582l0,-45.43c0,-11.579 8.205,-18.619 24.186,-20.813c1.758,-0.148 3.515,-0.295 5.128,-0.295l36.344,0c1.905,0 3.521,0.147 5.426,0.295c15.974,2.194 24.032,9.234 24.032,20.813l0,45.43c0,9.378 -3.367,14.364 -11.287,17.738l18.76,16.996l-22.127,0l-15.245,-13.774l-15.393,0.881l-20.517,0c-3.367,0 -7.18,-0.437 -11.139,-1.462c-12.157,-3.377 -18.168,-9.825 -18.168,-20.379Zm20.665,-1.019c0,0.585 0.295,1.167 0.443,1.906c1.025,5.272 6.005,8.205 13.626,8.205l17.298,0l-15.827,-14.364l22.127,0l13.922,12.607c2.644,-1.469 4.253,-3.522 4.838,-6.159c0.148,-0.585 0.148,-1.314 0.148,-1.906l0,-43.531c0,-0.584 0,-1.166 -0.148,-1.757c-1.025,-4.98 -6.005,-7.762 -13.481,-7.762l-28.877,0c-8.501,0 -14.069,3.663 -14.069,9.519l0,43.242Zm180.128,22.712l2.786,0l0,-10.696l3.663,0l0,-2.2l-10.259,0l0,2.2l3.81,0l0,10.696Zm21.253,0l2.635,0l0,-12.896l-3.952,0l-3.225,8.796l-3.515,-8.796l-3.811,0l0,12.896l2.49,0l0,-9.815l0.148,0l3.663,9.815l1.905,0l3.662,-9.815l0,9.815Z" style="fill:#ce8b2c;"/></g></svg>