<?xml version="1.0" encoding="UTF-8" standalone="no"?><!DOCTYPE svg PUBLIC "-//W3C//DTD SVG 1.1//EN" "http://www.w3.org/Graphics/SVG/1.1/DTD/svg11.dtd"><svg width="100%" height="100%" viewBox="0 0 421 213" version="1.1" xmlns="http://www.w3.org/2000/svg" xmlns:xlink="http://www.w3.org/1999/xlink" xml:space="preserve" xmlns:serif="http://www.serif.com/" style="fill-rule:evenodd;clip-rule:evenodd;stroke-linejoin:round;stroke-miterlimit:2;"><path d="M34.704,48.803l59.183,0c17.371,0.146 29.959,5.154 37.763,15.017c7.804,9.862 10.379,23.333 7.729,40.412c-1.029,7.805 -3.312,15.459 -6.846,22.967c-3.387,7.508 -8.096,14.279 -14.133,20.317c-7.363,7.654 -15.238,12.512 -23.629,14.575c-8.392,2.062 -17.079,3.091 -26.059,3.091l-26.5,0l-8.391,41.959l-30.696,0l31.579,-158.338m25.838,25.175l-13.25,66.25c0.883,0.146 1.766,0.221 2.65,0.221l3.091,0c14.134,0.146 25.913,-1.25 35.334,-4.196c9.42,-3.091 15.754,-13.837 18.991,-32.241c2.65,-15.459 0,-24.367 -7.95,-26.721c-7.804,-2.354 -17.591,-3.459 -29.371,-3.313c-1.766,0.146 -3.458,0.221 -5.079,0.221l-4.637,0l0.221,-0.221" style="fill-rule:nonzero;"/><path d="M174.346,6.624l30.475,0l-8.613,42.179l27.384,0c15.016,0.296 26.204,3.388 33.566,9.275c7.509,5.888 9.717,17.079 6.625,33.567l-14.796,73.537l-30.916,0l14.133,-70.225c1.471,-7.362 1.029,-12.587 -1.325,-15.679c-2.354,-3.091 -7.433,-4.637 -15.237,-4.637l-24.513,-0.221l-18.108,90.762l-30.475,0l31.8,-158.558" style="fill-rule:nonzero;"/><path d="M296.508,48.803l59.184,0c17.37,0.146 29.958,5.154 37.762,15.017c7.804,9.862 10.379,23.333 7.729,40.412c-1.029,7.805 -3.312,15.459 -6.846,22.967c-3.387,7.508 -8.095,14.279 -14.133,20.317c-7.362,7.654 -15.237,12.512 -23.629,14.575c-8.392,2.062 -17.079,3.091 -26.058,3.091l-26.5,0l-8.392,41.959l-30.696,0l31.579,-158.338m25.838,25.175l-13.25,66.25c0.883,0.146 1.766,0.221 2.65,0.221l3.091,0c14.134,0.146 25.913,-1.25 35.334,-4.196c9.421,-3.091 15.754,-13.837 18.991,-32.241c2.65,-15.459 0,-24.367 -7.95,-26.721c-7.804,-2.354 -17.591,-3.459 -29.37,-3.313c-1.767,0.146 -3.459,0.221 -5.08,0.221l-4.637,0l0.221,-0.221" style="fill-rule:nonzero;"/></svg>