<?xml version="1.0" encoding="UTF-8" standalone="no"?><!DOCTYPE svg PUBLIC "-//W3C//DTD SVG 1.1//EN" "http://www.w3.org/Graphics/SVG/1.1/DTD/svg11.dtd"><svg width="100%" height="100%" viewBox="0 0 850 175" version="1.1" xmlns="http://www.w3.org/2000/svg" xmlns:xlink="http://www.w3.org/1999/xlink" xml:space="preserve" xmlns:serif="http://www.serif.com/" style="fill-rule:evenodd;clip-rule:evenodd;stroke-linejoin:round;stroke-miterlimit:2;"><g><path d="M166.24,104.622c-1.001,-3.031 -3.622,-5.142 -7.013,-5.649c-1.598,-0.238 -3.429,-0.136 -5.595,0.31c-3.777,0.779 -6.578,1.076 -8.623,1.133c7.718,-13.029 13.993,-27.888 17.606,-41.875c5.841,-22.616 2.72,-32.919 -0.928,-37.58c-9.654,-12.335 -23.739,-18.962 -40.73,-19.164c-9.065,-0.111 -17.022,1.678 -21.173,2.965c-3.865,-0.682 -8.021,-1.062 -12.381,-1.133c-8.174,-0.13 -15.396,1.652 -21.567,5.314c-3.416,-1.155 -8.9,-2.784 -15.232,-3.823c-14.892,-2.445 -26.895,-0.54 -35.674,5.662c-10.631,7.51 -15.56,20.557 -14.648,38.78c0.289,5.785 3.526,23.389 8.621,40.083c2.929,9.596 6.052,17.564 9.283,23.686c4.581,8.681 9.483,13.793 14.987,15.629c3.084,1.028 8.688,1.748 14.583,-3.162c0.747,0.905 1.744,1.804 3.067,2.64c1.68,1.059 3.734,1.925 5.786,2.438c7.394,1.848 14.32,1.386 20.229,-1.205c0.037,1.051 0.065,2.055 0.088,2.922c0.039,1.407 0.078,2.785 0.13,4.075c0.35,8.72 0.943,15.5 2.701,20.243c0.096,0.261 0.226,0.659 0.363,1.081c0.877,2.684 2.343,7.179 6.074,10.699c3.863,3.647 8.536,4.765 12.815,4.765c2.146,0 4.194,-0.282 5.99,-0.667c6.403,-1.372 13.674,-3.462 18.934,-10.952c4.974,-7.08 7.391,-17.745 7.829,-34.548c0.056,-0.476 0.109,-0.929 0.159,-1.362l0.104,-0.888l1.172,0.103l0.302,0.021c6.521,0.297 14.494,-1.086 19.391,-3.361c3.87,-1.795 16.27,-8.342 13.35,-17.18" style="fill-rule:nonzero;"/><path d="M155.09,106.341c-19.39,4 -20.723,-2.565 -20.723,-2.565c20.472,-30.378 29.031,-68.937 21.646,-78.375c-20.149,-25.743 -55.026,-13.568 -55.609,-13.252l-0.187,0.034c-3.831,-0.796 -8.118,-1.269 -12.936,-1.348c-8.773,-0.144 -15.429,2.3 -20.479,6.13c0,0 -62.218,-25.632 -59.324,32.236c0.616,12.311 17.645,93.15 37.957,68.733c7.424,-8.929 14.598,-16.478 14.598,-16.478c3.562,2.366 7.827,3.574 12.299,3.14l0.347,-0.295c-0.108,1.109 -0.059,2.193 0.139,3.477c-5.233,5.846 -3.695,6.872 -14.155,9.026c-10.585,2.181 -4.367,6.064 -0.307,7.08c4.922,1.23 16.308,2.974 24.001,-7.796l-0.306,1.229c2.049,1.642 3.489,10.681 3.248,18.876c-0.242,8.194 -0.403,13.82 1.212,18.214c1.617,4.394 3.226,14.282 16.978,11.335c11.49,-2.462 17.444,-8.843 18.273,-19.487c0.587,-7.567 1.918,-6.448 2.001,-13.214l1.068,-3.202c1.23,-10.258 0.195,-13.567 7.274,-12.028l1.721,0.151c5.209,0.237 12.029,-0.838 16.031,-2.698c8.618,-3.999 13.73,-10.678 5.232,-8.923l0.001,0" style="fill:#336791;fill-rule:nonzero;"/><path d="M70.444,54.706c-1.747,-0.243 -3.33,-0.018 -4.13,0.588c-0.45,0.341 -0.59,0.736 -0.627,1.008c-0.101,0.721 0.404,1.517 0.714,1.928c0.878,1.163 2.16,1.963 3.428,2.139c0.184,0.026 0.367,0.038 0.549,0.038c2.116,0 4.04,-1.648 4.209,-2.864c0.212,-1.523 -1.999,-2.538 -4.143,-2.836m57.885,0.048c-0.167,-1.194 -2.291,-1.535 -4.307,-1.254c-2.013,0.28 -3.965,1.189 -3.802,2.385c0.13,0.931 1.81,2.519 3.799,2.519c0.168,0 0.338,-0.011 0.508,-0.035c1.328,-0.184 2.302,-1.027 2.765,-1.513c0.704,-0.74 1.112,-1.566 1.037,-2.102" style="fill:#fff;fill-rule:nonzero;"/><path d="M161.542,105.886c-0.739,-2.235 -3.119,-2.954 -7.073,-2.138c-11.738,2.423 -15.942,0.744 -17.323,-0.272c9.125,-13.9 16.631,-30.703 20.68,-46.38c1.919,-7.426 2.978,-14.322 3.065,-19.943c0.096,-6.17 -0.955,-10.704 -3.123,-13.474c-8.737,-11.165 -21.562,-17.154 -37.085,-17.318c-10.672,-0.12 -19.689,2.611 -21.437,3.379c-3.681,-0.915 -7.694,-1.477 -12.063,-1.549c-8.012,-0.13 -14.937,1.788 -20.67,5.698c-2.491,-0.927 -8.927,-3.136 -16.798,-4.404c-13.609,-2.191 -24.422,-0.531 -32.139,4.936c-9.208,6.523 -13.459,18.185 -12.635,34.659c0.277,5.542 3.435,22.593 8.419,38.921c6.56,21.492 13.691,33.659 21.194,36.162c0.878,0.292 1.891,0.497 3.008,0.497c2.737,0 6.092,-1.234 9.584,-5.431c4.258,-5.108 8.663,-10.093 13.209,-14.947c2.95,1.583 6.19,2.467 9.504,2.556c0.007,0.086 0.015,0.173 0.023,0.259c-0.57,0.68 -1.129,1.37 -1.675,2.07c-2.297,2.915 -2.775,3.522 -10.166,5.044c-2.103,0.434 -7.687,1.585 -7.769,5.499c-0.089,4.277 6.601,6.073 7.363,6.264c2.657,0.665 5.216,0.993 7.656,0.993c5.935,0 11.158,-1.951 15.332,-5.725c-0.129,15.247 0.507,30.271 2.338,34.848c1.499,3.748 5.162,12.906 16.732,12.906c1.698,0 3.566,-0.198 5.622,-0.639c12.075,-2.588 17.319,-7.925 19.347,-19.691c1.086,-6.289 2.949,-21.304 3.825,-29.359c1.849,0.577 4.229,0.841 6.803,0.841c5.367,0 11.56,-1.141 15.444,-2.943c4.363,-2.027 12.236,-6.999 10.808,-11.319Zm-28.756,-54.427c-0.04,2.378 -0.367,4.537 -0.714,6.79c-0.374,2.424 -0.759,4.929 -0.857,7.971c-0.095,2.96 0.274,6.037 0.631,9.013c0.723,6.011 1.464,12.2 -1.405,18.306c-0.477,-0.844 -0.901,-1.717 -1.272,-2.613c-0.356,-0.865 -1.131,-2.254 -2.203,-4.176c-4.172,-7.482 -13.942,-25.003 -8.941,-32.153c1.49,-2.128 5.271,-4.316 14.761,-3.138Zm-11.503,-40.283c13.909,0.307 24.911,5.51 32.701,15.465c5.975,7.635 -0.604,42.377 -19.65,72.349c-0.192,-0.244 -0.384,-0.487 -0.578,-0.728l-0.241,-0.302c4.922,-8.128 3.959,-16.17 3.103,-23.3c-0.352,-2.926 -0.685,-5.69 -0.6,-8.286c0.087,-2.751 0.451,-5.111 0.803,-7.393c0.432,-2.812 0.872,-5.722 0.751,-9.152c0.091,-0.36 0.127,-0.785 0.08,-1.29c-0.31,-3.289 -4.065,-13.133 -11.72,-22.043c-4.187,-4.874 -10.292,-10.327 -18.629,-14.006c3.586,-0.743 8.489,-1.436 13.98,-1.314Zm-77.832,104.981c-3.847,4.625 -6.503,3.738 -7.376,3.448c-5.692,-1.899 -12.297,-13.929 -18.119,-33.006c-5.039,-16.507 -7.983,-33.105 -8.217,-37.76c-0.735,-14.72 2.833,-24.979 10.607,-30.492c12.651,-8.971 33.45,-3.602 41.808,-0.878c-0.12,0.118 -0.246,0.229 -0.364,0.35c-13.715,13.85 -13.39,37.515 -13.356,38.961c-0.001,0.558 0.046,1.349 0.11,2.435c0.236,3.981 0.675,11.388 -0.499,19.777c-1.09,7.796 1.314,15.426 6.593,20.935c0.541,0.564 1.111,1.101 1.706,1.609c-2.35,2.516 -7.457,8.082 -12.893,14.621Zm14.656,-19.555c-4.255,-4.44 -6.187,-10.615 -5.303,-16.945c1.239,-8.861 0.782,-16.579 0.536,-20.726c-0.034,-0.58 -0.065,-1.089 -0.083,-1.49c2.004,-1.776 11.289,-6.751 17.91,-5.234c3.021,0.692 4.863,2.75 5.628,6.289c3.961,18.322 0.524,25.959 -2.238,32.096c-0.569,1.264 -1.107,2.459 -1.566,3.695l-0.356,0.956c-0.901,2.416 -1.739,4.663 -2.259,6.796c-4.523,-0.013 -8.923,-1.945 -12.269,-5.437l0,0Zm0.694,24.71c-1.321,-0.33 -2.509,-0.903 -3.206,-1.378c0.583,-0.274 1.619,-0.647 3.415,-1.017c8.696,-1.79 10.039,-3.053 12.971,-6.777c0.673,-0.854 1.435,-1.821 2.49,-3l0.002,-0.002c1.572,-1.76 2.291,-1.461 3.595,-0.92c1.056,0.437 2.086,1.761 2.503,3.219c0.198,0.689 0.419,1.995 -0.306,3.012c-6.126,8.578 -15.053,8.468 -21.464,6.863Zm45.507,42.347c-10.637,2.28 -14.404,-3.148 -16.886,-9.353c-1.602,-4.006 -2.389,-22.069 -1.831,-42.018c0.008,-0.265 -0.03,-0.521 -0.103,-0.763c-0.066,-0.476 -0.165,-0.947 -0.298,-1.409c-0.83,-2.903 -2.855,-5.331 -5.283,-6.337c-0.965,-0.4 -2.736,-1.134 -4.864,-0.589c0.454,-1.87 1.241,-3.982 2.094,-6.268l0.358,-0.962c0.403,-1.084 0.909,-2.208 1.444,-3.397c2.89,-6.42 6.848,-15.215 2.552,-35.083c-1.609,-7.441 -6.983,-11.075 -15.128,-10.231c-4.884,0.505 -9.352,2.476 -11.58,3.605c-0.479,0.243 -0.917,0.478 -1.327,0.706c0.622,-7.498 2.972,-21.51 11.762,-30.376c5.534,-5.581 12.905,-8.337 21.885,-8.188c17.695,0.289 29.042,9.37 35.446,16.937c5.518,6.521 8.506,13.089 9.698,16.632c-8.967,-0.912 -15.067,0.858 -18.158,5.278c-6.727,9.616 3.679,28.278 8.681,37.247c0.917,1.644 1.709,3.064 1.958,3.668c1.628,3.947 3.737,6.583 5.276,8.506c0.472,0.589 0.93,1.161 1.278,1.66c-2.716,0.783 -7.595,2.593 -7.15,11.636c-0.359,4.538 -2.909,25.783 -4.204,33.289c-1.71,9.917 -5.36,13.61 -15.62,15.811l0,-0.001Zm44.402,-50.812c-2.777,1.289 -7.425,2.256 -11.84,2.464c-4.877,0.228 -7.36,-0.547 -7.944,-1.023c-0.274,-5.636 1.824,-6.225 4.044,-6.848c0.349,-0.098 0.689,-0.194 1.018,-0.308c0.204,0.166 0.427,0.331 0.672,0.493c3.92,2.587 10.911,2.866 20.781,0.828l0.109,-0.021c-1.332,1.244 -3.61,2.915 -6.84,4.415Z" style="fill:#fff;fill-rule:nonzero;"/><path d="M272.972,62.229c0,3.741 -0.594,7.302 -1.781,10.683c-1.187,3.381 -2.896,6.205 -5.126,8.471c-1.366,1.403 -2.868,2.698 -4.505,3.885c-1.636,1.187 -3.444,2.194 -5.422,3.021c-1.979,0.828 -4.128,1.475 -6.448,1.943c-2.32,0.467 -4.919,0.701 -7.796,0.701l-10.575,0l0,26.276l-20.179,0l0,-80.338l31.186,0c4.64,0 8.641,0.422 12.004,1.268c3.363,0.845 6.412,2.185 9.146,4.019c3.021,2.015 5.359,4.703 7.014,8.066c1.654,3.364 2.482,7.365 2.482,12.005Zm-20.719,0.486c0,-2.266 -0.539,-4.218 -1.619,-5.854c-1.079,-1.637 -2.374,-2.761 -3.884,-3.372c-1.907,-0.828 -3.732,-1.304 -5.477,-1.43c-1.744,-0.126 -4.109,-0.189 -7.095,-0.189l-2.859,0l0,24.064l1.403,0c1.906,0 3.705,-0.018 5.395,-0.054c1.691,-0.036 3.165,-0.162 4.424,-0.378c1.079,-0.18 2.221,-0.531 3.426,-1.052c1.205,-0.522 2.132,-1.106 2.779,-1.754c1.367,-1.33 2.293,-2.715 2.779,-4.154c0.485,-1.439 0.728,-3.381 0.728,-5.827Z" style="fill:#336791;fill-rule:nonzero;"/><path d="M340.846,86.94c0,9.964 -2.725,17.814 -8.174,23.551c-5.449,5.738 -13.156,8.606 -23.119,8.606c-9.892,0 -17.581,-2.868 -23.066,-8.606c-5.485,-5.737 -8.228,-13.587 -8.228,-23.551c0,-10.071 2.743,-17.957 8.228,-23.659c5.485,-5.701 13.174,-8.551 23.066,-8.551c9.927,0 17.625,2.868 23.092,8.605c5.467,5.738 8.201,13.606 8.201,23.605Zm-19.37,0.108c0,-3.597 -0.296,-6.591 -0.89,-8.983c-0.593,-2.392 -1.412,-4.307 -2.455,-5.746c-1.115,-1.511 -2.374,-2.563 -3.777,-3.157c-1.402,-0.593 -3.003,-0.89 -4.801,-0.89c-1.691,0 -3.22,0.261 -4.587,0.783c-1.366,0.521 -2.625,1.519 -3.776,2.994c-1.079,1.403 -1.943,3.327 -2.59,5.773c-0.648,2.446 -0.971,5.521 -0.971,9.226c0,3.705 0.305,6.7 0.917,8.984c0.611,2.284 1.403,4.109 2.374,5.476c1.007,1.403 2.266,2.428 3.777,3.075c1.51,0.648 3.183,0.972 5.017,0.972c1.511,0 3.049,-0.324 4.613,-0.972c1.565,-0.647 2.815,-1.618 3.75,-2.913c1.115,-1.547 1.961,-3.408 2.536,-5.584c0.576,-2.177 0.863,-5.189 0.863,-9.038Z" style="fill:#336791;fill-rule:nonzero;"/><path d="M369.334,118.881c-4.46,0 -8.678,-0.485 -12.652,-1.457c-3.975,-0.971 -7.257,-2.104 -9.847,-3.399l0,-15.97l1.565,0c0.899,0.683 1.924,1.439 3.075,2.266c1.151,0.827 2.752,1.691 4.802,2.59c1.762,0.827 3.75,1.537 5.962,2.131c2.212,0.593 4.613,0.89 7.203,0.89c2.661,0 5.008,-0.413 7.041,-1.241c2.032,-0.827 3.048,-2.14 3.048,-3.938c0,-1.403 -0.467,-2.464 -1.403,-3.184c-0.935,-0.719 -2.751,-1.402 -5.449,-2.05c-1.439,-0.36 -3.255,-0.746 -5.449,-1.16c-2.195,-0.414 -4.137,-0.89 -5.827,-1.43c-4.748,-1.474 -8.318,-3.66 -10.71,-6.555c-2.392,-2.896 -3.588,-6.699 -3.588,-11.411c0,-2.698 0.62,-5.243 1.861,-7.635c1.241,-2.392 3.066,-4.523 5.476,-6.394c2.41,-1.834 5.387,-3.291 8.93,-4.37c3.543,-1.079 7.544,-1.619 12.005,-1.619c4.244,0 8.147,0.423 11.708,1.268c3.561,0.846 6.564,1.862 9.01,3.049l0,15.323l-1.511,0c-0.647,-0.504 -1.672,-1.178 -3.075,-2.023c-1.403,-0.846 -2.77,-1.574 -4.101,-2.186c-1.582,-0.719 -3.354,-1.312 -5.314,-1.78c-1.96,-0.468 -3.966,-0.702 -6.016,-0.702c-2.734,0 -5.045,0.468 -6.933,1.403c-1.888,0.936 -2.833,2.176 -2.833,3.723c0,1.367 0.468,2.446 1.403,3.237c0.935,0.792 2.968,1.565 6.097,2.32c1.619,0.396 3.48,0.783 5.584,1.16c2.104,0.378 4.128,0.891 6.07,1.538c4.352,1.403 7.653,3.462 9.901,6.178c2.248,2.716 3.372,6.322 3.372,10.818c0,2.841 -0.666,5.548 -1.996,8.12c-1.331,2.572 -3.22,4.739 -5.666,6.501c-2.589,1.907 -5.638,3.381 -9.145,4.425c-3.507,1.043 -7.706,1.564 -12.598,1.564Z" style="fill:#336791;fill-rule:nonzero;"/><path d="M430.95,118.396c-7.698,0 -13.3,-1.583 -16.807,-4.748c-3.507,-3.166 -5.261,-8.345 -5.261,-15.539l0,-28.326l-7.23,0l0,-13.165l7.23,0l0,-17.319l18.884,0l0,17.319l18.183,0l0,13.165l-18.183,0l0,21.474c0,2.122 0.018,3.974 0.054,5.557c0.036,1.583 0.324,3.003 0.863,4.262c0.504,1.259 1.394,2.257 2.671,2.995c1.277,0.737 3.139,1.106 5.584,1.106c1.008,0 2.33,-0.216 3.966,-0.648c1.637,-0.431 2.779,-0.827 3.426,-1.187l1.619,0l0,13.327c-2.05,0.54 -4.227,0.962 -6.529,1.268c-2.302,0.306 -5.125,0.459 -8.47,0.459Z" style="fill:#336791;fill-rule:nonzero;"/><path d="M489.868,98.109l0,-27.463c-0.936,-0.431 -2.087,-0.791 -3.453,-1.079c-1.367,-0.288 -2.734,-0.432 -4.101,-0.432c-4.532,0 -7.94,1.466 -10.224,4.398c-2.284,2.931 -3.426,7.023 -3.426,12.274c0,2.626 0.17,4.847 0.512,6.664c0.342,1.816 0.98,3.426 1.916,4.829c0.899,1.366 2.077,2.401 3.534,3.102c1.456,0.701 3.318,1.052 5.584,1.052c1.69,0 3.354,-0.288 4.991,-0.863c1.636,-0.576 3.192,-1.403 4.667,-2.482Zm18.884,12.14c0,5.611 -0.81,10.377 -2.428,14.297c-1.619,3.921 -3.831,6.979 -6.637,9.173c-2.805,2.23 -6.169,3.839 -10.089,4.829c-3.921,0.989 -8.273,1.483 -13.057,1.483c-4.029,0 -7.85,-0.26 -11.465,-0.782c-3.615,-0.522 -6.754,-1.124 -9.415,-1.807l0,-15.162l2.212,0c0.935,0.36 2.041,0.756 3.318,1.187c1.277,0.432 2.563,0.828 3.858,1.187c1.546,0.396 3.057,0.72 4.532,0.972c1.475,0.251 2.985,0.377 4.532,0.377c3.201,0 5.872,-0.332 8.012,-0.998c2.14,-0.665 3.75,-1.61 4.829,-2.833c1.079,-1.258 1.835,-2.742 2.266,-4.451c0.432,-1.708 0.648,-3.857 0.648,-6.447l0,-1.133c-2.123,1.87 -4.578,3.372 -7.365,4.505c-2.788,1.133 -5.656,1.699 -8.606,1.699c-7.841,0 -13.893,-2.553 -18.155,-7.661c-4.263,-5.108 -6.394,-12.877 -6.394,-23.308c0,-4.748 0.656,-9.011 1.969,-12.787c1.313,-3.777 3.139,-6.997 5.477,-9.658c2.23,-2.554 4.927,-4.523 8.093,-5.908c3.165,-1.385 6.456,-2.078 9.873,-2.078c3.094,0 5.863,0.396 8.309,1.187c2.446,0.792 4.676,1.853 6.691,3.184l0.701,-2.698l18.291,0l0,53.631Z" style="fill:#336791;fill-rule:nonzero;"/><path d="M563.893,74.477l-1.565,0c-0.719,-0.252 -1.762,-0.441 -3.129,-0.567c-1.367,-0.125 -2.878,-0.188 -4.532,-0.188c-1.979,0 -4.056,0.287 -6.232,0.863c-2.176,0.575 -4.289,1.259 -6.34,2.05l0,40.574l-18.884,0l0,-60.591l18.884,0l0,8.687c0.864,-0.792 2.06,-1.79 3.588,-2.995c1.529,-1.205 2.923,-2.167 4.182,-2.886c1.367,-0.828 2.958,-1.538 4.775,-2.132c1.816,-0.593 3.534,-0.89 5.152,-0.89c0.612,0 1.295,0.018 2.051,0.054c0.755,0.036 1.438,0.09 2.05,0.162l0,17.859Z" style="fill:#336791;fill-rule:nonzero;"/><path d="M602.146,118.827c-11.438,0 -20.205,-2.733 -26.302,-8.201c-6.097,-5.467 -9.146,-13.254 -9.146,-23.362c0,-9.892 2.842,-17.787 8.525,-23.686c5.683,-5.899 13.633,-8.848 23.848,-8.848c9.28,0 16.258,2.5 20.934,7.499c4.676,5 7.014,12.158 7.014,21.474l0,6.798l-41.383,0c0.18,2.806 0.774,5.153 1.781,7.041c1.007,1.889 2.338,3.39 3.992,4.506c1.619,1.115 3.508,1.915 5.666,2.4c2.158,0.486 4.514,0.729 7.068,0.729c2.194,0 4.352,-0.243 6.474,-0.729c2.122,-0.485 4.065,-1.124 5.827,-1.915c1.547,-0.683 2.977,-1.421 4.29,-2.212c1.312,-0.791 2.383,-1.493 3.21,-2.104l1.996,0l0,15.593c-1.546,0.611 -2.958,1.178 -4.235,1.699c-1.277,0.522 -3.031,1.052 -5.261,1.592c-2.05,0.539 -4.163,0.962 -6.339,1.268c-2.177,0.305 -4.829,0.458 -7.959,0.458Zm6.259,-39.71c-0.108,-3.993 -1.034,-7.032 -2.779,-9.118c-1.744,-2.087 -4.415,-3.13 -8.012,-3.13c-3.669,0 -6.537,1.097 -8.605,3.292c-2.069,2.194 -3.211,5.179 -3.427,8.956l22.823,0Z" style="fill:#336791;fill-rule:nonzero;"/><path d="M662.629,118.665c-6.151,0 -11.555,-0.593 -16.213,-1.78c-4.658,-1.187 -8.984,-2.662 -12.976,-4.424l0,-19.1l1.834,0c4.029,3.417 8.471,6.043 13.327,7.877c4.856,1.835 9.568,2.752 14.136,2.752c1.151,0 2.671,-0.126 4.559,-0.378c1.889,-0.252 3.408,-0.647 4.559,-1.187c1.403,-0.611 2.59,-1.466 3.561,-2.563c0.971,-1.097 1.457,-2.544 1.457,-4.343c0,-2.014 -0.791,-3.651 -2.374,-4.91c-1.583,-1.259 -3.471,-2.176 -5.665,-2.751c-2.734,-0.72 -5.656,-1.403 -8.768,-2.051c-3.111,-0.647 -6.016,-1.438 -8.713,-2.374c-6.223,-2.194 -10.683,-5.143 -13.381,-8.848c-2.698,-3.705 -4.047,-8.345 -4.047,-13.92c0,-7.518 3.184,-13.606 9.55,-18.264c6.367,-4.658 14.316,-6.987 23.848,-6.987c4.784,0 9.541,0.486 14.271,1.457c4.73,0.971 8.965,2.284 12.706,3.938l0,18.345l-1.78,0c-2.986,-2.554 -6.628,-4.712 -10.926,-6.475c-4.298,-1.762 -8.714,-2.643 -13.246,-2.643c-1.762,0 -3.345,0.126 -4.748,0.377c-1.403,0.252 -2.877,0.738 -4.424,1.457c-1.259,0.576 -2.347,1.43 -3.264,2.563c-0.917,1.133 -1.376,2.401 -1.376,3.804c0,2.05 0.728,3.678 2.185,4.883c1.457,1.205 4.271,2.293 8.444,3.264c2.698,0.611 5.296,1.205 7.796,1.78c2.5,0.576 5.171,1.367 8.013,2.374c5.575,2.015 9.72,4.721 12.436,8.12c2.716,3.399 4.074,7.887 4.074,13.462c0,7.985 -3.139,14.406 -9.415,19.262c-6.277,4.856 -14.757,7.283 -25.44,7.283Z" style="fill:#336791;fill-rule:nonzero;"/><path d="M780.843,138.467c-2.158,0.539 -4.326,0.935 -6.502,1.187c-2.176,0.251 -5.584,0.377 -10.224,0.377c-4.244,0 -7.85,-0.53 -10.818,-1.591c-2.967,-1.061 -5.44,-2.563 -7.419,-4.506c-1.978,-1.906 -3.462,-4.172 -4.451,-6.798c-0.989,-2.626 -1.555,-5.449 -1.699,-8.471c-11.367,-0.503 -20.314,-4.442 -26.843,-11.816c-6.528,-7.373 -9.792,-17.301 -9.792,-29.782c0,-12.913 3.453,-23.12 10.359,-30.619c6.906,-7.5 16.42,-11.25 28.542,-11.25c12.086,0 21.599,3.732 28.542,11.196c6.942,7.463 10.413,17.688 10.413,30.673c0,9.46 -1.97,17.58 -5.908,24.36c-3.939,6.78 -9.505,11.591 -16.699,14.433c0.072,3.92 0.944,6.627 2.617,8.12c1.672,1.493 4.613,2.239 8.821,2.239c1.619,0 3.336,-0.243 5.153,-0.728c1.816,-0.486 3.12,-0.945 3.912,-1.376l1.996,0l0,14.352Zm-26.114,-41.06c1.727,-2.338 3.057,-5.062 3.993,-8.174c0.935,-3.111 1.402,-7.185 1.402,-12.22c0,-4.784 -0.494,-8.858 -1.483,-12.221c-0.99,-3.363 -2.311,-6.124 -3.966,-8.282c-1.727,-2.194 -3.678,-3.768 -5.854,-4.721c-2.176,-0.953 -4.433,-1.43 -6.771,-1.43c-2.482,0 -4.73,0.441 -6.745,1.322c-2.014,0.882 -3.956,2.455 -5.827,4.721c-1.654,2.086 -2.994,4.856 -4.019,8.309c-1.025,3.453 -1.538,7.572 -1.538,12.356c0,4.928 0.486,9.019 1.457,12.274c0.971,3.256 2.302,5.98 3.992,8.174c1.727,2.23 3.687,3.822 5.881,4.775c2.195,0.954 4.461,1.43 6.799,1.43c2.374,0 4.676,-0.512 6.906,-1.538c2.23,-1.025 4.154,-2.616 5.773,-4.775Z" style="fill:#336791;fill-rule:nonzero;"/><path d="M846.505,117.209l-53.63,0l0,-80.338l20.179,0l0,65.015l33.451,0l0,15.323Z" style="fill:#336791;fill-rule:nonzero;"/></g></svg>