<?xml version="1.0" encoding="UTF-8" standalone="no"?><!DOCTYPE svg PUBLIC "-//W3C//DTD SVG 1.1//EN" "http://www.w3.org/Graphics/SVG/1.1/DTD/svg11.dtd"><svg width="100%" height="100%" viewBox="0 0 875 255" version="1.1" xmlns="http://www.w3.org/2000/svg" xmlns:xlink="http://www.w3.org/1999/xlink" xml:space="preserve" xmlns:serif="http://www.serif.com/" style="fill-rule:evenodd;clip-rule:evenodd;stroke-linejoin:round;stroke-miterlimit:2;"><g><path id="path46" d="M330.459,108.614c0,-26.775 -7.635,-40.521 -22.904,-41.273c-6.075,-0.287 -12.007,0.681 -17.778,2.921c-4.606,1.649 -7.706,3.279 -9.337,4.928l0,63.908c9.767,6.129 18.441,8.978 26.004,8.53c16.004,-1.057 24.015,-14.05 24.015,-39.014Zm18.835,1.111c0,13.602 -3.19,24.892 -9.606,33.871c-7.151,10.161 -17.061,15.395 -29.732,15.681c-9.552,0.305 -19.39,-2.688 -29.516,-8.96l0,58.083l-16.38,-5.843l0,-128.926c2.688,-3.297 6.147,-6.129 10.34,-8.531c9.75,-5.681 21.596,-8.602 35.539,-8.745l0.233,0.233c12.742,-0.161 22.563,5.072 29.462,15.681c6.434,9.731 9.66,22.205 9.66,37.456Z" style="fill:#646464;fill-rule:nonzero;"/><path id="path48" d="M449.403,147.843c0,18.244 -1.828,30.879 -5.484,37.904c-3.674,7.025 -10.663,12.635 -20.986,16.81c-8.369,3.298 -17.42,5.09 -27.133,5.395l-2.706,-10.323c9.874,-1.344 16.828,-2.688 20.86,-4.032c7.939,-2.689 13.387,-6.81 16.38,-12.33c2.402,-4.498 3.585,-13.083 3.585,-25.789l0,-4.265c-11.201,5.089 -22.94,7.616 -35.216,7.616c-8.064,0 -15.179,-2.527 -21.308,-7.616c-6.882,-5.538 -10.323,-12.563 -10.323,-21.076l0,-68.173l16.38,-5.609l0,68.621c0,7.33 2.366,12.975 7.097,16.935c4.731,3.961 10.86,5.861 18.369,5.717c7.509,-0.161 15.556,-3.064 24.105,-8.745l0,-80.055l16.38,0l0,89.015Z" style="fill:#646464;fill-rule:nonzero;"/><path id="path50" d="M513.346,158.381c-1.953,0.161 -3.745,0.233 -5.394,0.233c-9.266,0 -16.488,-2.204 -21.649,-6.631c-5.144,-4.426 -7.724,-10.537 -7.724,-18.333l0,-64.517l-11.219,0l0,-10.305l11.219,0l0,-27.366l16.362,-5.824l0,33.19l18.405,0l0,10.305l-18.405,0l0,64.069c0,6.147 1.649,10.502 4.946,13.046c2.832,2.097 7.33,3.298 13.459,3.603l0,8.53Z" style="fill:#646464;fill-rule:nonzero;"/><path id="path52" d="M612.523,157.037l-16.38,0l0,-63.226c0,-6.434 -1.506,-11.972 -4.498,-16.596c-3.459,-5.233 -8.262,-7.849 -14.427,-7.849c-7.509,0 -16.9,3.96 -28.172,11.882l0,75.789l-16.381,0l0,-151.131l16.381,-5.161l0,68.836c10.466,-7.617 21.899,-11.434 34.319,-11.434c8.674,0 15.699,2.921 21.075,8.746c5.395,5.824 8.083,13.082 8.083,21.756l0,68.388Z" style="fill:#646464;fill-rule:nonzero;"/><path id="path54" d="M699.585,106.033c0,-10.287 -1.953,-18.782 -5.842,-25.502c-4.624,-8.19 -11.811,-12.509 -21.524,-12.957c-17.957,1.039 -26.918,13.907 -26.918,38.566c0,11.309 1.864,20.753 5.627,28.334c4.803,9.66 12.008,14.427 21.614,14.266c18.029,-0.144 27.043,-14.373 27.043,-42.707Zm17.939,0.107c0,14.642 -3.745,26.829 -11.218,36.56c-8.226,10.896 -19.589,16.362 -34.087,16.362c-14.373,0 -25.574,-5.466 -33.656,-16.362c-7.33,-9.731 -10.986,-21.918 -10.986,-36.56c0,-13.763 3.961,-25.34 11.882,-34.767c8.369,-10 19.373,-15.018 32.975,-15.018c13.602,0 24.678,5.018 33.208,15.018c7.922,9.427 11.882,21.004 11.882,34.767Z" style="fill:#646464;fill-rule:nonzero;"/><path id="path56" d="M811.432,157.037l-16.38,0l0,-66.811c0,-7.33 -2.204,-13.047 -6.613,-17.168c-4.408,-4.104 -10.287,-6.094 -17.617,-5.932c-7.777,0.143 -15.179,2.688 -22.204,7.616l0,82.295l-16.38,0l0,-84.32c9.426,-6.864 18.1,-11.344 26.022,-13.441c7.473,-1.953 14.068,-2.921 19.749,-2.921c3.889,0 7.545,0.376 10.986,1.129c6.434,1.487 11.667,4.247 15.699,8.297c4.498,4.481 6.738,9.857 6.738,16.148l0,75.108Z" style="fill:#646464;fill-rule:nonzero;"/><path id="path1948" d="M102.277,6.511c-8.427,0.04 -16.475,0.758 -23.557,2.011c-20.862,3.686 -24.649,11.4 -24.649,25.626l0,18.789l49.298,0l0,6.263l-67.8,0c-14.327,0 -26.873,8.612 -30.797,24.994c-4.526,18.778 -4.727,30.496 0,50.103c3.505,14.595 11.873,24.994 26.201,24.994l16.95,0l0,-22.524c0,-16.271 14.078,-30.624 30.797,-30.624l49.241,0c13.707,0 24.649,-11.286 24.649,-25.052l0,-46.943c0,-13.36 -11.271,-23.396 -24.649,-25.626c-8.469,-1.409 -17.256,-2.05 -25.684,-2.011Zm-26.66,15.112c5.092,0 9.251,4.226 9.251,9.423c0,5.178 -4.159,9.365 -9.251,9.365c-5.11,0 -9.25,-4.187 -9.25,-9.365c0,-5.197 4.14,-9.423 9.25,-9.423Z" style="fill:url(#_Linear1);fill-rule:nonzero;"/><path id="path1950" d="M158.758,59.2l0,21.891c0,16.972 -14.389,31.257 -30.797,31.257l-49.241,0c-13.488,0 -24.649,11.544 -24.649,25.051l0,46.943c0,13.36 11.617,21.219 24.649,25.052c15.605,4.588 30.57,5.417 49.241,0c12.411,-3.594 24.649,-10.826 24.649,-25.052l0,-18.788l-49.241,0l0,-6.263l73.89,0c14.328,0 19.667,-9.994 24.65,-24.994c5.147,-15.443 4.928,-30.293 0,-50.103c-3.541,-14.263 -10.304,-24.994 -24.65,-24.994l-18.501,0Zm-27.694,118.879c5.11,0 9.25,4.188 9.25,9.366c0,5.197 -4.14,9.423 -9.25,9.423c-5.093,0 -9.251,-4.226 -9.251,-9.423c0,-5.178 4.158,-9.366 9.251,-9.366Z" style="fill:url(#_Linear2);fill-rule:nonzero;"/><path id="text3004" d="M843.33,44.224l2.872,0l0,-18.011l6.803,0l0,-2.147l-16.478,0l0,2.147l6.803,0l0,18.011m12.222,0l2.453,0l0,-16.45l5.326,16.448l2.731,0l5.55,-16.392l0,16.394l2.676,0l0,-20.158l-3.541,0l-6.064,17.27l-5.172,-17.27l-3.959,0l0,20.158" style="fill:#646464;fill-rule:nonzero;"/><path id="path1894" d="M169.993,241.305c0,7.028 -29.823,12.811 -66.064,12.811c-36.242,0 -66.065,-5.783 -66.065,-12.811c0,-7.027 29.823,-12.81 66.065,-12.81c36.241,0 66.064,5.783 66.064,12.81Z" style="fill:url(#_Radial3);fill-rule:nonzero;"/></g><defs><linearGradient id="_Linear1" x1="0" y1="0" x2="1" y2="0" gradientUnits="userSpaceOnUse" gradientTransform="matrix(112.757,97.9485,-97.9485,112.757,1.30171,6.50972)"><stop offset="0" style="stop-color:#5a9fd4;stop-opacity:1"/><stop offset="1" style="stop-color:#306998;stop-opacity:1"/></linearGradient><linearGradient id="_Linear2" x1="0" y1="0" x2="1" y2="0" gradientUnits="userSpaceOnUse" gradientTransform="matrix(-40.2653,-57.5185,57.5185,-40.2653,129.879,185.865)"><stop offset="0" style="stop-color:#ffd43b;stop-opacity:1"/><stop offset="1" style="stop-color:#ffe873;stop-opacity:1"/></linearGradient><radialGradient id="_Radial3" cx="0" cy="0" r="1" gradientUnits="userSpaceOnUse" gradientTransform="matrix(9.33793e-07,-12.8104,56.307,2.02424e-05,103.929,241.305)"><stop offset="0" style="stop-color:#b8b8b8;stop-opacity:0.22"/><stop offset="1" style="stop-color:#7f7f7f;stop-opacity:0"/></radialGradient></defs></svg>