<?xml version="1.0" encoding="UTF-8" standalone="no"?><!DOCTYPE svg PUBLIC "-//W3C//DTD SVG 1.1//EN" "http://www.w3.org/Graphics/SVG/1.1/DTD/svg11.dtd"><svg width="100%" height="100%" viewBox="0 0 1067 213" version="1.1" xmlns="http://www.w3.org/2000/svg" xmlns:xlink="http://www.w3.org/1999/xlink" xml:space="preserve" xmlns:serif="http://www.serif.com/" style="fill-rule:evenodd;clip-rule:evenodd;stroke-linejoin:round;stroke-miterlimit:2;"><g><path d="M3.396,106.134c0,17.201 16.796,33.258 43.275,42.309c-5.288,26.62 -0.947,48.077 13.55,56.437c14.9,8.594 37.099,2.645 58.169,-15.773c20.538,17.674 41.294,24.63 55.779,16.246c14.886,-8.618 19.413,-31.53 13.98,-58.981c27.58,-9.119 43.008,-22.81 43.008,-40.238c0,-16.801 -16.827,-31.336 -42.95,-40.329c5.85,-28.586 0.893,-49.522 -14.204,-58.228c-14.555,-8.393 -35.553,-1.077 -56.393,17.059c-21.681,-19.25 -42.472,-25.127 -57.553,-16.397c-14.541,8.417 -18.691,30.264 -13.386,57.377c-25.586,8.92 -43.275,23.785 -43.275,40.518Z" style="fill:#fff;fill-rule:nonzero;"/><path d="M182.675,74.735c-2.153,-0.739 -4.325,-1.423 -6.512,-2.052c0.363,-1.474 0.698,-2.954 1.006,-4.441c4.929,-23.926 1.706,-43.201 -9.299,-49.546c-10.551,-6.086 -27.809,0.259 -45.238,15.426c-1.717,1.498 -3.397,3.039 -5.036,4.622c-1.098,-1.052 -2.216,-2.084 -3.352,-3.095c-18.266,-16.219 -36.575,-23.053 -47.569,-16.689c-10.542,6.102 -13.664,24.223 -9.227,46.898c0.442,2.246 0.94,4.48 1.495,6.7c-2.59,0.736 -5.092,1.52 -7.486,2.354c-21.415,7.466 -35.091,19.168 -35.091,31.305c0,12.536 14.681,25.109 36.987,32.733c1.809,0.615 3.632,1.185 5.47,1.71c-0.597,2.392 -1.127,4.8 -1.589,7.221c-4.231,22.281 -0.927,39.973 9.587,46.038c10.859,6.261 29.085,-0.175 46.833,-15.689c1.403,-1.226 2.811,-2.527 4.221,-3.89c1.776,1.713 3.599,3.377 5.468,4.989c17.191,14.793 34.169,20.766 44.674,14.685c10.849,-6.28 14.375,-25.286 9.797,-48.409c-0.349,-1.767 -0.757,-3.57 -1.213,-5.407c1.28,-0.378 2.536,-0.768 3.761,-1.175c23.189,-7.682 38.276,-20.103 38.276,-32.806c0,-12.181 -14.117,-23.962 -35.963,-31.482Z" style="fill:#53c1de;fill-rule:nonzero;"/><path d="M177.645,130.822c-1.106,0.366 -2.241,0.719 -3.398,1.062c-2.56,-8.104 -6.015,-16.722 -10.242,-25.624c4.034,-8.693 7.355,-17.2 9.844,-25.252c2.069,0.6 4.078,1.231 6.013,1.898c18.718,6.443 30.135,15.97 30.135,23.311c0,7.819 -12.331,17.97 -32.352,24.605l0,0Zm-8.308,16.461c2.024,10.225 2.313,19.469 0.972,26.696c-1.204,6.494 -3.627,10.823 -6.622,12.557c-6.375,3.69 -20.007,-1.106 -34.708,-13.757c-1.686,-1.45 -3.384,-2.999 -5.087,-4.637c5.7,-6.234 11.396,-13.482 16.955,-21.529c9.779,-0.868 19.017,-2.287 27.395,-4.223c0.412,1.665 0.779,3.297 1.095,4.893Zm-84.013,38.616c-6.227,2.199 -11.188,2.262 -14.186,0.533c-6.38,-3.679 -9.032,-17.886 -5.415,-36.94c0.431,-2.251 0.923,-4.491 1.478,-6.715c8.284,1.832 17.456,3.151 27.258,3.946c5.596,7.875 11.456,15.113 17.363,21.452c-1.255,1.214 -2.54,2.397 -3.854,3.548c-7.848,6.861 -15.712,11.727 -22.643,14.176l-0.001,0Zm-29.176,-55.126c-9.863,-3.371 -18.009,-7.752 -23.592,-12.532c-5.017,-4.297 -7.55,-8.563 -7.55,-12.024c0,-7.365 10.981,-16.76 29.296,-23.145c2.299,-0.798 4.62,-1.529 6.962,-2.191c2.531,8.233 5.851,16.841 9.858,25.546c-4.058,8.835 -7.426,17.58 -9.981,25.909c-1.677,-0.48 -3.342,-1.001 -4.993,-1.563Zm9.78,-66.574c-3.801,-19.429 -1.277,-34.084 5.076,-37.761c6.768,-3.917 21.731,1.669 37.502,15.672c1.008,0.895 2.02,1.832 3.035,2.802c-5.876,6.31 -11.683,13.494 -17.231,21.323c-9.513,0.882 -18.62,2.298 -26.991,4.195c-0.516,-2.065 -0.98,-4.144 -1.391,-6.232l0,0.001Zm87.251,21.544c-1.977,-3.416 -4.028,-6.788 -6.151,-10.116c6.455,0.815 12.638,1.898 18.444,3.224c-1.743,5.587 -3.916,11.429 -6.474,17.417c-1.869,-3.546 -3.809,-7.056 -5.819,-10.525Zm-35.581,-34.656c3.986,4.317 7.977,9.139 11.904,14.369c-7.965,-0.376 -15.943,-0.378 -23.907,-0.005c3.93,-5.182 7.955,-9.997 12.003,-14.364Zm-35.809,34.715c-1.984,3.442 -3.888,6.93 -5.709,10.46c-2.517,-5.968 -4.669,-11.836 -6.428,-17.502c5.772,-1.292 11.926,-2.348 18.338,-3.149c-2.146,3.348 -4.214,6.746 -6.201,10.191Zm6.386,51.637c-6.625,-0.74 -12.872,-1.741 -18.642,-2.997c1.786,-5.767 3.987,-11.761 6.557,-17.857c1.829,3.533 3.741,7.023 5.734,10.466c2.034,3.513 4.152,6.976 6.351,10.388Zm29.662,24.518c-4.095,-4.42 -8.18,-9.307 -12.17,-14.565c3.873,0.153 7.822,0.229 11.835,0.229c4.123,0 8.199,-0.092 12.21,-0.271c-3.939,5.353 -7.916,10.248 -11.875,14.607Zm41.243,-45.683c2.704,6.162 4.983,12.124 6.793,17.794c-5.865,1.338 -12.197,2.416 -18.869,3.216c2.138,-3.389 4.209,-6.821 6.21,-10.293c2.035,-3.528 3.991,-7.102 5.866,-10.717Zm-13.351,6.401c-3.064,5.322 -6.301,10.544 -9.704,15.656c-6.001,0.429 -12.203,0.65 -18.523,0.65c-6.294,0 -12.417,-0.196 -18.314,-0.578c-3.492,-5.101 -6.789,-10.331 -9.885,-15.681c-3.082,-5.321 -5.961,-10.758 -8.63,-16.298c2.662,-5.541 5.532,-10.981 8.604,-16.306l0,0.001c3.07,-5.326 6.342,-10.535 9.807,-15.613c6.016,-0.455 12.184,-0.693 18.419,-0.693c6.262,0 12.438,0.24 18.452,0.698c3.431,5.071 6.681,10.261 9.746,15.561c3.082,5.314 5.99,10.727 8.72,16.23c-2.702,5.559 -5.601,11.02 -8.691,16.373l-0.001,0Zm17.825,-96.494c6.773,3.907 9.408,19.659 5.152,40.317c-0.279,1.346 -0.582,2.687 -0.909,4.021c-8.392,-1.936 -17.505,-3.377 -27.046,-4.272c-5.558,-7.915 -11.316,-15.111 -17.098,-21.34c1.515,-1.46 3.066,-2.883 4.652,-4.266c14.933,-12.996 28.89,-18.127 35.249,-14.46Z" style="fill:#fff;fill-rule:nonzero;"/><path d="M117.502,88.155c9.976,0 18.062,8.087 18.062,18.062c0,9.976 -8.086,18.063 -18.062,18.063c-9.975,0 -18.062,-8.087 -18.062,-18.063c0,-9.975 8.087,-18.062 18.062,-18.062" style="fill:#53c1de;fill-rule:nonzero;"/><path d="M341.592,155.806l-19.512,0l-16.074,-26.953c-1.45,-2.48 -2.866,-4.597 -4.246,-6.352c-1.38,-1.754 -2.784,-3.193 -4.211,-4.316c-1.428,-1.123 -2.983,-1.942 -4.668,-2.457c-1.684,-0.514 -3.58,-0.772 -5.685,-0.772l-6.738,0l0,40.85l-16.635,0l0,-100.65l33.129,0c4.726,0 9.078,0.561 13.055,1.684c3.977,1.123 7.44,2.819 10.388,5.089c2.948,2.269 5.252,5.1 6.914,8.493c1.661,3.392 2.491,7.358 2.491,11.897c0,3.556 -0.526,6.819 -1.579,9.791c-1.053,2.971 -2.55,5.615 -4.492,7.931c-1.942,2.316 -4.282,4.293 -7.019,5.931c-2.737,1.638 -5.814,2.901 -9.23,3.79l0,0.281c1.825,1.029 3.416,2.164 4.773,3.404c1.357,1.24 2.644,2.515 3.86,3.825c1.217,1.311 2.422,2.796 3.615,4.457c1.193,1.661 2.515,3.592 3.966,5.791l17.898,28.286Zm-61.134,-87.104l0,32.708l13.897,0c2.574,0 4.948,-0.398 7.124,-1.193c2.176,-0.796 4.059,-1.942 5.65,-3.44c1.591,-1.497 2.831,-3.322 3.72,-5.474c0.889,-2.153 1.334,-4.563 1.334,-7.23c0,-4.819 -1.521,-8.586 -4.562,-11.3c-3.042,-2.714 -7.417,-4.071 -13.126,-4.071l-14.037,0Z" style="fill:#53c1de;fill-rule:nonzero;"/><path d="M408.552,124.291l-48.992,0c0.187,6.645 2.234,11.769 6.142,15.372c3.907,3.603 9.276,5.404 16.108,5.404c7.674,0 14.716,-2.293 21.127,-6.878l0,13.125c-6.551,4.118 -15.208,6.176 -25.97,6.176c-10.575,0 -18.869,-3.263 -24.882,-9.791c-6.013,-6.527 -9.019,-15.71 -9.019,-27.549c0,-11.183 3.31,-20.296 9.932,-27.338c6.621,-7.043 14.844,-10.564 24.671,-10.564c9.826,0 17.43,3.159 22.811,9.476c5.381,6.317 8.072,15.09 8.072,26.32l0,6.247Zm-15.722,-11.511c-0.047,-5.849 -1.428,-10.399 -4.142,-13.651c-2.714,-3.252 -6.457,-4.878 -11.23,-4.878c-4.679,0 -8.645,1.707 -11.897,5.123c-3.252,3.416 -5.252,7.885 -6.001,13.406l33.27,0Z" style="fill:#53c1de;fill-rule:nonzero;"/><path d="M479.232,155.806l-15.793,0l0,-11.23l-0.281,0c-4.96,8.609 -12.236,12.914 -21.828,12.914c-7.066,0 -12.599,-1.918 -16.6,-5.755c-4.001,-3.837 -6.001,-8.914 -6.001,-15.231c0,-13.57 7.814,-21.478 23.443,-23.724l21.337,-3.018c0,-10.247 -4.866,-15.371 -14.599,-15.371c-8.563,0 -16.284,2.948 -23.162,8.844l0,-14.249c7.58,-4.492 16.33,-6.738 26.25,-6.738c18.156,0 27.234,8.938 27.234,26.812l0,46.746Zm-15.723,-35.305l-15.09,2.106c-4.679,0.608 -8.201,1.743 -10.564,3.404c-2.363,1.661 -3.544,4.574 -3.544,8.738c0,3.042 1.088,5.534 3.264,7.475c2.176,1.942 5.088,2.913 8.738,2.913c4.96,0 9.066,-1.743 12.318,-5.229c3.252,-3.486 4.878,-7.873 4.878,-13.16l0,-6.247Z" style="fill:#53c1de;fill-rule:nonzero;"/><path d="M550.543,152.507c-5.755,3.322 -12.564,4.983 -20.425,4.983c-10.668,0 -19.278,-3.334 -25.829,-10.001c-6.551,-6.668 -9.827,-15.313 -9.827,-25.935c0,-11.839 3.522,-21.349 10.564,-28.532c7.042,-7.182 16.459,-10.774 28.251,-10.774c6.551,0 12.329,1.147 17.336,3.44l0,15.16c-5.007,-3.743 -10.341,-5.615 -16.003,-5.615c-6.878,0 -12.517,2.328 -16.915,6.984c-4.399,4.656 -6.598,10.75 -6.598,18.284c0,7.44 2.071,13.312 6.212,17.617c4.141,4.305 9.698,6.458 16.67,6.458c5.849,0 11.37,-2.083 16.564,-6.247l0,14.178Z" style="fill:#53c1de;fill-rule:nonzero;"/><path d="M604.588,155.034c-3.182,1.591 -7.37,2.386 -12.564,2.386c-13.944,0 -20.916,-6.691 -20.916,-20.074l0,-40.639l-12.002,0l0,-12.774l12.002,0l0,-16.635l16.284,-4.632l0,21.267l17.196,0l0,12.774l-17.196,0l0,35.937c0,4.258 0.772,7.299 2.316,9.124c1.544,1.825 4.118,2.738 7.721,2.738c2.761,0 5.147,-0.796 7.159,-2.387l0,12.915Z" style="fill:#53c1de;fill-rule:nonzero;"/><path d="M745.316,155.806l-18.249,0l-48.079,-73.979c-1.217,-1.871 -2.223,-3.813 -3.018,-5.825l-0.421,0c0.374,2.152 0.561,6.761 0.561,13.827l0,65.977l-16.143,0l0,-100.65l19.442,0l46.465,72.224c1.965,2.994 3.229,5.053 3.79,6.176l0.281,0c-0.468,-2.667 -0.702,-7.183 -0.702,-13.546l0,-64.854l16.073,0l0,100.65Z" style="fill:#53c1de;fill-rule:nonzero;"/><path d="M823.576,155.806l-15.792,0l0,-11.23l-0.281,0c-4.96,8.609 -12.236,12.914 -21.828,12.914c-7.066,0 -12.599,-1.918 -16.6,-5.755c-4.001,-3.837 -6.001,-8.914 -6.001,-15.231c0,-13.57 7.814,-21.478 23.443,-23.724l21.337,-3.018c0,-10.247 -4.866,-15.371 -14.599,-15.371c-8.563,0 -16.284,2.948 -23.162,8.844l0,-14.249c7.58,-4.492 16.33,-6.738 26.25,-6.738c18.156,0 27.233,8.938 27.233,26.812l0,46.746Zm-15.722,-35.305l-15.09,2.106c-4.68,0.608 -8.201,1.743 -10.564,3.404c-2.363,1.661 -3.544,4.574 -3.544,8.738c0,3.042 1.088,5.534 3.263,7.475c2.176,1.942 5.089,2.913 8.739,2.913c4.96,0 9.066,-1.743 12.318,-5.229c3.252,-3.486 4.878,-7.873 4.878,-13.16l0,-6.247Z" style="fill:#53c1de;fill-rule:nonzero;"/><path d="M881.341,155.034c-3.181,1.591 -7.369,2.386 -12.563,2.386c-13.944,0 -20.916,-6.691 -20.916,-20.074l0,-40.639l-12.003,0l0,-12.774l12.003,0l0,-16.635l16.283,-4.632l0,21.267l17.196,0l0,12.774l-17.196,0l0,35.937c0,4.258 0.772,7.299 2.316,9.124c1.545,1.825 4.118,2.738 7.721,2.738c2.761,0 5.147,-0.796 7.159,-2.387l0,12.915Z" style="fill:#53c1de;fill-rule:nonzero;"/><path d="M903.591,68.842c-2.667,0 -4.948,-0.865 -6.843,-2.597c-1.895,-1.731 -2.843,-3.93 -2.843,-6.597c0,-2.668 0.948,-4.89 2.843,-6.668c1.895,-1.778 4.176,-2.667 6.843,-2.667c2.761,0 5.101,0.889 7.019,2.667c1.919,1.778 2.878,4 2.878,6.668c0,2.526 -0.959,4.691 -2.878,6.492c-1.918,1.802 -4.258,2.702 -7.019,2.702Zm8.072,86.964l-16.284,0l0,-71.873l16.284,0l0,71.873Z" style="fill:#53c1de;fill-rule:nonzero;"/><path d="M994.836,83.933l-27.794,71.873l-17.618,0l-26.461,-71.873l17.688,0l15.933,50.255c1.216,3.696 1.965,6.925 2.246,9.686l0.21,0c0.421,-3.463 1.076,-6.598 1.965,-9.405l16.705,-50.536l17.126,0Z" style="fill:#53c1de;fill-rule:nonzero;"/><path d="M1065.59,124.291l-48.991,0c0.187,6.645 2.234,11.769 6.141,15.372c3.907,3.603 9.277,5.404 16.108,5.404c7.674,0 14.717,-2.293 21.127,-6.878l0,13.125c-6.551,4.118 -15.207,6.176 -25.97,6.176c-10.575,0 -18.869,-3.263 -24.881,-9.791c-6.013,-6.527 -9.02,-15.71 -9.02,-27.549c0,-11.183 3.311,-20.296 9.932,-27.338c6.621,-7.043 14.845,-10.564 24.671,-10.564c9.827,0 17.43,3.159 22.812,9.476c5.381,6.317 8.071,15.09 8.071,26.32l0,6.247Zm-15.722,-11.511c-0.047,-5.849 -1.427,-10.399 -4.141,-13.651c-2.714,-3.252 -6.457,-4.878 -11.23,-4.878c-4.679,0 -8.645,1.707 -11.897,5.123c-3.252,3.416 -5.253,7.885 -6.001,13.406l33.269,0Z" style="fill:#53c1de;fill-rule:nonzero;"/></g></svg>