<?xml version="1.0" encoding="UTF-8" standalone="no"?><!DOCTYPE svg PUBLIC "-//W3C//DTD SVG 1.1//EN" "http://www.w3.org/Graphics/SVG/1.1/DTD/svg11.dtd"><svg width="100%" height="100%" viewBox="0 0 621 209" version="1.1" xmlns="http://www.w3.org/2000/svg" xmlns:xlink="http://www.w3.org/1999/xlink" xml:space="preserve" xmlns:serif="http://www.serif.com/" style="fill-rule:evenodd;clip-rule:evenodd;stroke-linejoin:round;stroke-miterlimit:2;"><g><path d="M3.259,104.681c0,17.201 16.796,33.258 43.275,42.309c-5.288,26.62 -0.947,48.076 13.55,56.437c14.9,8.593 37.099,2.645 58.169,-15.774c20.538,17.675 41.295,24.631 55.779,16.246c14.886,-8.618 19.413,-31.529 13.98,-58.981c27.58,-9.118 43.008,-22.81 43.008,-40.237c0,-16.802 -16.827,-31.337 -42.95,-40.33c5.85,-28.586 0.893,-49.521 -14.204,-58.227c-14.555,-8.393 -35.553,-1.078 -56.393,17.059c-21.681,-19.25 -42.472,-25.127 -57.553,-16.398c-14.541,8.418 -18.691,30.265 -13.386,57.377c-25.586,8.921 -43.275,23.785 -43.275,40.519Z" style="fill:#fff;fill-rule:nonzero;"/><path d="M182.538,73.281c-2.153,-0.738 -4.325,-1.422 -6.512,-2.051c0.363,-1.474 0.698,-2.955 1.006,-4.441c4.929,-23.927 1.706,-43.202 -9.299,-49.547c-10.551,-6.085 -27.809,0.26 -45.238,15.427c-1.717,1.498 -3.397,3.039 -5.036,4.622c-1.098,-1.053 -2.216,-2.085 -3.352,-3.096c-18.266,-16.219 -36.575,-23.053 -47.569,-16.689c-10.542,6.103 -13.664,24.224 -9.227,46.899c0.442,2.245 0.94,4.479 1.495,6.699c-2.59,0.736 -5.092,1.52 -7.486,2.355c-21.415,7.465 -35.091,19.167 -35.091,31.304c0,12.536 14.681,25.11 36.987,32.733c1.809,0.616 3.632,1.186 5.47,1.71c-0.597,2.392 -1.127,4.8 -1.589,7.222c-4.231,22.281 -0.927,39.972 9.587,46.037c10.859,6.262 29.085,-0.174 46.833,-15.688c1.403,-1.226 2.811,-2.527 4.221,-3.89c1.776,1.713 3.599,3.377 5.468,4.988c17.191,14.793 34.169,20.767 44.674,14.686c10.849,-6.281 14.375,-25.286 9.797,-48.41c-0.349,-1.766 -0.757,-3.57 -1.213,-5.407c1.28,-0.377 2.536,-0.768 3.761,-1.174c23.189,-7.683 38.276,-20.103 38.276,-32.807c0,-12.181 -14.117,-23.961 -35.963,-31.482Z" style="fill:#53c1de;fill-rule:nonzero;"/><path d="M177.508,129.368c-1.106,0.366 -2.241,0.72 -3.398,1.063c-2.56,-8.104 -6.015,-16.722 -10.242,-25.625c4.034,-8.692 7.355,-17.199 9.844,-25.251c2.069,0.6 4.078,1.231 6.013,1.898c18.718,6.442 30.135,15.97 30.135,23.31c0,7.82 -12.331,17.971 -32.352,24.605l0,0Zm-8.308,16.462c2.024,10.224 2.313,19.469 0.972,26.696c-1.204,6.493 -3.627,10.823 -6.622,12.557c-6.375,3.689 -20.007,-1.107 -34.708,-13.758c-1.686,-1.45 -3.384,-2.999 -5.087,-4.637c5.7,-6.234 11.396,-13.481 16.955,-21.529c9.779,-0.867 19.017,-2.286 27.395,-4.222c0.412,1.665 0.779,3.297 1.095,4.893Zm-84.013,38.615c-6.227,2.2 -11.188,2.262 -14.186,0.534c-6.38,-3.68 -9.032,-17.886 -5.415,-36.94c0.431,-2.252 0.923,-4.491 1.478,-6.716c8.284,1.833 17.456,3.151 27.258,3.946c5.596,7.875 11.456,15.114 17.363,21.452c-1.255,1.215 -2.54,2.398 -3.854,3.549c-7.848,6.861 -15.712,11.727 -22.643,14.175l-0.001,0Zm-29.176,-55.125c-9.863,-3.371 -18.009,-7.752 -23.592,-12.533c-5.016,-4.297 -7.55,-8.562 -7.55,-12.024c0,-7.364 10.981,-16.759 29.296,-23.145c2.299,-0.798 4.62,-1.528 6.962,-2.19c2.531,8.233 5.852,16.841 9.858,25.546c-4.058,8.834 -7.426,17.579 -9.981,25.909c-1.677,-0.48 -3.342,-1.001 -4.993,-1.563Zm9.78,-66.575c-3.801,-19.428 -1.277,-34.083 5.076,-37.76c6.768,-3.918 21.731,1.668 37.502,15.671c1.008,0.896 2.02,1.833 3.035,2.802c-5.876,6.311 -11.683,13.494 -17.231,21.324c-9.513,0.881 -18.62,2.298 -26.991,4.194c-0.516,-2.065 -0.98,-4.143 -1.391,-6.232l0,0.001Zm87.251,21.544c-1.977,-3.415 -4.028,-6.788 -6.151,-10.115c6.455,0.815 12.638,1.898 18.444,3.223c-1.743,5.587 -3.916,11.429 -6.474,17.418c-1.869,-3.547 -3.809,-7.056 -5.819,-10.526Zm-35.581,-34.656c3.986,4.318 7.977,9.139 11.904,14.37c-7.965,-0.377 -15.942,-0.378 -23.907,-0.006c3.93,-5.182 7.955,-9.996 12.003,-14.364Zm-35.809,34.716c-1.984,3.441 -3.888,6.929 -5.709,10.46c-2.516,-5.968 -4.669,-11.836 -6.428,-17.503c5.772,-1.292 11.926,-2.347 18.338,-3.148c-2.146,3.348 -4.214,6.746 -6.201,10.191Zm6.386,51.636c-6.625,-0.739 -12.872,-1.741 -18.642,-2.997c1.786,-5.766 3.987,-11.761 6.557,-17.857c1.829,3.533 3.741,7.023 5.734,10.467c2.034,3.512 4.152,6.976 6.351,10.387Zm29.662,24.518c-4.095,-4.419 -8.18,-9.307 -12.17,-14.564c3.873,0.152 7.822,0.229 11.835,0.229c4.123,0 8.199,-0.092 12.21,-0.271c-3.939,5.353 -7.916,10.248 -11.875,14.606Zm41.243,-45.682c2.704,6.162 4.983,12.124 6.793,17.793c-5.865,1.338 -12.197,2.416 -18.869,3.216c2.138,-3.389 4.209,-6.821 6.21,-10.292c2.035,-3.529 3.991,-7.102 5.866,-10.717Zm-13.351,6.4c-3.064,5.323 -6.301,10.544 -9.704,15.657c-6.001,0.429 -12.203,0.65 -18.523,0.65c-6.294,0 -12.417,-0.196 -18.314,-0.579c-3.492,-5.1 -6.789,-10.331 -9.885,-15.68c-3.082,-5.322 -5.961,-10.758 -8.63,-16.298c2.662,-5.542 5.532,-10.981 8.604,-16.307l0,0.002c3.07,-5.327 6.342,-10.535 9.807,-15.614c6.016,-0.455 12.184,-0.693 18.419,-0.693c6.262,0 12.438,0.24 18.452,0.699c3.431,5.07 6.681,10.261 9.746,15.561c3.082,5.313 5.99,10.726 8.72,16.229c-2.702,5.559 -5.601,11.02 -8.691,16.373l-0.001,0Zm17.825,-96.493c6.773,3.906 9.408,19.659 5.152,40.317c-0.279,1.346 -0.582,2.686 -0.909,4.021c-8.392,-1.936 -17.505,-3.378 -27.046,-4.273c-5.558,-7.914 -11.316,-15.11 -17.098,-21.339c1.515,-1.461 3.066,-2.883 4.652,-4.267c14.933,-12.996 28.89,-18.127 35.249,-14.459Z" style="fill:#fff;fill-rule:nonzero;"/><path d="M117.365,86.701c9.976,0 18.062,8.087 18.062,18.062c0,9.976 -8.086,18.063 -18.062,18.063c-9.975,0 -18.062,-8.087 -18.062,-18.063c0,-9.975 8.087,-18.062 18.062,-18.062" style="fill:#53c1de;fill-rule:nonzero;"/><path d="M347.21,154.352l-26.04,0l-15.652,-25.899c-1.169,-1.965 -2.292,-3.72 -3.369,-5.264c-1.076,-1.544 -2.164,-2.866 -3.263,-3.966c-1.1,-1.1 -2.246,-1.942 -3.44,-2.527c-1.193,-0.585 -2.491,-0.877 -3.895,-0.877l-6.107,0l0,38.533l-22.67,0l0,-100.65l35.936,0c24.426,0 36.639,9.125 36.639,27.374c0,3.509 -0.539,6.749 -1.615,9.721c-1.076,2.971 -2.597,5.65 -4.562,8.036c-1.965,2.387 -4.34,4.446 -7.124,6.177c-2.784,1.731 -5.884,3.088 -9.3,4.071l0,0.281c1.497,0.468 2.948,1.228 4.352,2.281c1.403,1.053 2.76,2.281 4.07,3.685c1.311,1.403 2.562,2.912 3.756,4.527c1.193,1.614 2.281,3.193 3.263,4.737l19.021,29.76Zm-61.766,-83.664l0,28.005l9.827,0c4.866,0 8.773,-1.404 11.721,-4.211c2.995,-2.855 4.492,-6.388 4.492,-10.599c0,-8.797 -5.264,-13.195 -15.792,-13.195l-10.248,0Z" style="fill:#53c1de;fill-rule:nonzero;"/><path d="M415.434,124.733l-46.886,0c0.748,10.435 7.323,15.652 19.723,15.652c7.908,0 14.856,-1.872 20.846,-5.615l0,16.003c-6.645,3.556 -15.278,5.334 -25.9,5.334c-11.604,0 -20.612,-3.217 -27.022,-9.651c-6.411,-6.434 -9.616,-15.406 -9.616,-26.917c0,-11.932 3.462,-21.384 10.388,-28.356c6.925,-6.972 15.441,-10.458 25.548,-10.458c10.482,0 18.588,3.111 24.321,9.335c5.732,6.223 8.598,14.669 8.598,25.338l0,9.335Zm-20.566,-13.617c0,-10.294 -4.164,-15.441 -12.493,-15.441c-3.556,0 -6.633,1.474 -9.23,4.422c-2.597,2.948 -4.176,6.621 -4.738,11.019l26.461,0Z" style="fill:#53c1de;fill-rule:nonzero;"/><path d="M488.43,154.352l-20.987,0l0,-10.317l-0.28,0c-4.82,8.048 -11.956,12.072 -21.408,12.072c-6.972,0 -12.458,-1.977 -16.459,-5.931c-4.001,-3.954 -6.001,-9.23 -6.001,-15.827c0,-13.944 8.259,-21.993 24.776,-24.145l19.513,-2.597c0,-7.861 -4.258,-11.792 -12.775,-11.792c-8.563,0 -16.705,2.55 -24.425,7.651l0,-16.705c3.088,-1.591 7.311,-2.995 12.669,-4.211c5.357,-1.217 10.236,-1.825 14.634,-1.825c20.495,0 30.743,10.224 30.743,30.672l0,42.955Zm-20.846,-29.198l0,-4.843l-13.055,1.685c-7.206,0.935 -10.809,4.187 -10.809,9.756c0,2.527 0.877,4.597 2.632,6.211c1.754,1.615 4.129,2.422 7.124,2.422c4.164,0 7.557,-1.439 10.177,-4.317c2.62,-2.877 3.931,-6.516 3.931,-10.914Z" style="fill:#53c1de;fill-rule:nonzero;"/><path d="M560.443,151.755c-5.007,2.902 -12.236,4.352 -21.688,4.352c-11.043,0 -19.981,-3.346 -26.812,-10.037c-6.832,-6.691 -10.248,-15.324 -10.248,-25.899c0,-12.213 3.662,-21.841 10.985,-28.883c7.323,-7.042 17.114,-10.563 29.374,-10.563c8.469,0 14.599,1.123 18.389,3.369l0,18.81c-4.632,-3.462 -9.803,-5.194 -15.512,-5.194c-6.363,0 -11.405,1.86 -15.125,5.58c-3.72,3.72 -5.58,8.856 -5.58,15.407c0,6.363 1.778,11.358 5.334,14.985c3.556,3.626 8.446,5.44 14.669,5.44c5.522,0 10.926,-1.732 16.214,-5.194l0,17.827Z" style="fill:#53c1de;fill-rule:nonzero;"/><path d="M618.419,153.51c-3.276,1.731 -8.212,2.597 -14.81,2.597c-15.629,0 -23.443,-8.118 -23.443,-24.355l0,-32.919l-11.651,0l0,-16.354l11.651,0l0,-15.511l22.109,-6.317l0,21.828l16.144,0l0,16.354l-16.144,0l0,29.058c0,7.487 2.972,11.231 8.914,11.231c2.34,0 4.75,-0.679 7.23,-2.036l0,16.424Z" style="fill:#53c1de;fill-rule:nonzero;"/></g></svg>