<?xml version="1.0" encoding="UTF-8" standalone="no"?><!DOCTYPE svg PUBLIC "-//W3C//DTD SVG 1.1//EN" "http://www.w3.org/Graphics/SVG/1.1/DTD/svg11.dtd"><svg width="100%" height="100%" viewBox="0 0 242 180" version="1.1" xmlns="http://www.w3.org/2000/svg" xmlns:xlink="http://www.w3.org/1999/xlink" xml:space="preserve" xmlns:serif="http://www.serif.com/" style="fill-rule:evenodd;clip-rule:evenodd;stroke-linejoin:round;stroke-miterlimit:2;"><clipPath id="_clip1"><rect id="sass-1" x="0.792" y="0.859" width="237.385" height="178.039"/></clipPath><g clip-path="url(#_clip1)"><path d="M205.073,103.139c-8.299,0.047 -15.485,2.04 -21.513,5.008c-2.225,-4.405 -4.451,-8.253 -4.821,-11.128c-0.417,-3.338 -0.927,-5.378 -0.417,-9.365c0.509,-3.988 2.828,-9.644 2.828,-10.108c-0.047,-0.417 -0.511,-2.457 -5.286,-2.504c-4.775,-0.046 -8.902,0.928 -9.366,2.179c-0.463,1.252 -1.391,4.127 -1.993,7.094c-0.835,4.358 -9.551,19.798 -14.512,27.911c-1.623,-3.152 -3.014,-5.934 -3.293,-8.16c-0.416,-3.338 -0.927,-5.378 -0.416,-9.365c0.51,-3.988 2.828,-9.644 2.828,-10.108c-0.047,-0.417 -0.51,-2.457 -5.285,-2.503c-4.776,-0.047 -8.902,0.927 -9.366,2.179c-0.464,1.252 -0.974,4.219 -1.994,7.094c-0.974,2.874 -12.565,28.653 -15.578,35.376c-1.53,3.43 -2.875,6.166 -3.849,8.021c-0.973,1.854 -0.046,0.139 -0.139,0.324c-0.834,1.576 -1.298,2.457 -1.298,2.457l0,0.047c-0.649,1.159 -1.345,2.272 -1.67,2.272c-0.231,0 -0.695,-3.107 0.093,-7.372c1.716,-8.949 5.888,-22.904 5.843,-23.414c0,-0.232 0.787,-2.689 -2.69,-3.941c-3.385,-1.252 -4.59,0.835 -4.868,0.835c-0.278,0 -0.51,0.742 -0.51,0.742c0,0 3.755,-15.717 -7.187,-15.717c-6.862,0 -16.32,7.464 -21.003,14.28c-2.967,1.623 -9.273,5.053 -15.949,8.716c-2.55,1.391 -5.193,2.875 -7.697,4.219l-0.509,-0.557c-13.26,-14.141 -37.787,-24.156 -36.767,-43.165c0.371,-6.908 2.782,-25.13 47.107,-47.199c36.303,-18.082 65.373,-13.121 70.427,-2.086c7.186,15.764 -15.533,45.066 -53.273,49.285c-14.373,1.623 -21.93,-3.941 -23.831,-6.027c-1.994,-2.18 -2.272,-2.272 -3.014,-1.855c-1.205,0.649 -0.463,2.596 0,3.756c1.113,2.92 5.75,8.113 13.632,10.71c6.907,2.272 23.784,3.523 44.185,-4.359c22.857,-8.855 40.708,-33.428 35.468,-53.968c-5.331,-20.91 -40.012,-27.772 -72.792,-16.134c-19.519,6.954 -40.661,17.803 -55.869,32.037c-18.082,16.877 -20.957,31.621 -19.751,37.741c4.219,21.837 34.309,36.071 46.364,46.596c-0.603,0.324 -1.159,0.649 -1.669,0.927c-6.027,2.967 -28.978,14.976 -34.727,27.679c-6.491,14.373 1.02,24.713 6.028,26.104c15.485,4.312 31.342,-3.431 39.919,-16.181c8.531,-12.75 7.511,-29.303 3.57,-36.86l-0.139,-0.278l4.729,-2.782c3.06,-1.808 6.074,-3.477 8.716,-4.915c-1.483,4.034 -2.55,8.809 -3.106,15.764c-0.649,8.16 2.69,18.731 7.094,22.904c1.947,1.808 4.266,1.854 5.703,1.854c5.1,0 7.418,-4.219 9.968,-9.272c3.153,-6.167 5.935,-13.307 5.935,-13.307c0,0 -3.477,19.334 6.027,19.334c3.478,0 6.955,-4.497 8.531,-6.816l0,0.047c0,0 0.093,-0.139 0.278,-0.464c0.195,-0.288 0.381,-0.581 0.557,-0.88l0,-0.093c1.391,-2.411 4.497,-7.928 9.134,-17.062c5.98,-11.777 11.73,-26.521 11.73,-26.521c0,0 0.556,3.617 2.272,9.551c1.019,3.525 3.245,7.372 4.96,11.128c-1.391,1.947 -2.225,3.06 -2.225,3.06l0.046,0.047c-1.112,1.483 -2.365,3.06 -3.662,4.636c-4.729,5.657 -10.386,12.102 -11.128,13.956c-0.881,2.179 -0.695,3.802 1.02,5.1c1.252,0.928 3.478,1.113 5.842,0.928c4.266,-0.279 7.233,-1.345 8.717,-1.994c2.318,-0.835 4.961,-2.087 7.511,-3.941c4.636,-3.431 7.464,-8.299 7.186,-14.79c-0.139,-3.57 -1.298,-7.094 -2.735,-10.432c0.417,-0.603 0.835,-1.206 1.251,-1.855c7.326,-10.71 12.982,-22.486 12.982,-22.486c0,0 0.557,3.616 2.272,9.551c0.881,3.013 2.643,6.306 4.219,9.551c-6.861,5.61 -11.173,12.101 -12.657,16.367c-2.735,7.882 -0.603,11.452 3.431,12.286c1.808,0.371 4.405,-0.463 6.351,-1.298c2.411,-0.788 5.332,-2.133 8.022,-4.126c4.636,-3.431 9.087,-8.207 8.856,-14.651c-0.14,-2.968 -0.928,-5.889 -1.994,-8.671c5.842,-2.411 13.399,-3.801 22.997,-2.642c20.632,2.411 24.712,15.3 23.924,20.678c-0.788,5.379 -5.1,8.346 -6.538,9.273c-1.437,0.881 -1.901,1.206 -1.762,1.855c0.186,0.974 0.835,0.927 2.087,0.742c1.715,-0.279 10.849,-4.405 11.22,-14.326c0.556,-12.752 -11.545,-26.662 -33.012,-26.523Zm-159.122,53.644c-6.815,7.464 -16.413,10.292 -20.493,7.881c-4.404,-2.55 -2.689,-13.538 5.703,-21.466c5.1,-4.822 11.73,-9.273 16.088,-12.009c0.974,-0.602 2.458,-1.483 4.22,-2.55c0.278,-0.185 0.463,-0.278 0.463,-0.278c0.325,-0.185 0.696,-0.417 1.067,-0.649c3.106,11.313 0.139,21.235 -7.048,29.071Zm49.842,-33.893c-2.365,5.796 -7.372,20.679 -10.386,19.844c-2.597,-0.695 -4.173,-11.962 -0.51,-23.089c1.854,-5.611 5.795,-12.287 8.114,-14.884c3.755,-4.172 7.835,-5.563 8.856,-3.848c1.205,2.226 -4.591,18.361 -6.074,21.977Zm41.125,19.659c-1.02,0.51 -1.947,0.881 -2.365,0.603c-0.324,-0.186 0.417,-0.881 0.417,-0.881c0,0 5.147,-5.517 7.187,-8.067c1.159,-1.484 2.55,-3.199 4.033,-5.147l0,0.557c0.001,6.676 -6.397,11.127 -9.272,12.935Zm31.713,-7.233c-0.742,-0.556 -0.649,-2.272 1.854,-7.65c0.974,-2.133 3.199,-5.703 7.048,-9.088c0.463,1.391 0.742,2.735 0.695,3.988c-0.046,8.345 -5.98,11.452 -9.597,12.75Z" style="fill:#cf649a;fill-rule:nonzero;"/></g></svg>