<?xml version="1.0" encoding="UTF-8" standalone="no"?><!DOCTYPE svg PUBLIC "-//W3C//DTD SVG 1.1//EN" "http://www.w3.org/Graphics/SVG/1.1/DTD/svg11.dtd"><svg width="100%" height="100%" viewBox="0 0 600 192" version="1.1" xmlns="http://www.w3.org/2000/svg" xmlns:xlink="http://www.w3.org/1999/xlink" xml:space="preserve" xmlns:serif="http://www.serif.com/" style="fill-rule:evenodd;clip-rule:evenodd;stroke-linejoin:round;stroke-miterlimit:2;"><g><path d="M188.973,55.016c-0.007,-1.86 -0.034,-3.72 -0.082,-5.579c-0.112,-4.051 -0.348,-8.139 -1.069,-12.145c-0.687,-4.018 -1.971,-7.911 -3.808,-11.55c-3.72,-7.311 -9.663,-13.257 -16.972,-16.98c-3.639,-1.835 -7.53,-3.117 -11.547,-3.804c-4.013,-0.722 -8.101,-0.961 -12.152,-1.069c-1.865,-0.052 -3.722,-0.075 -5.583,-0.086c-2.208,-0.011 -4.417,-0.011 -6.629,-0.011l-69.235,0c-2.213,0 -4.417,0 -6.626,0.011c-1.861,0.015 -3.722,0.037 -5.583,0.086c-1.012,0.026 -2.029,0.063 -3.045,0.112c-3.046,0.146 -6.099,0.415 -9.107,0.957c-2.999,0.522 -5.933,1.366 -8.751,2.518c-4.721,1.955 -9.012,4.819 -12.627,8.431c-2.883,2.881 -5.294,6.199 -7.145,9.831c-1.883,3.699 -3.075,7.481 -3.804,11.551c-0.721,4.009 -0.96,8.097 -1.068,12.144c-0.053,1.869 -0.075,3.726 -0.086,5.583c-0.012,2.212 -0.012,4.421 -0.012,6.629l0,69.236c0,2.212 0,4.42 0.012,6.629c0.015,1.861 0.037,3.722 0.086,5.579c0.112,4.054 0.347,8.142 1.068,12.144c0.686,4.021 1.968,7.916 3.804,11.558c3.721,7.313 9.668,13.259 16.98,16.98c3.696,1.88 7.478,3.072 11.547,3.804c4.006,0.722 8.098,0.961 12.148,1.069c1.861,0.049 3.722,0.071 5.583,0.082c2.205,0.015 4.413,0.012 6.626,0.012l69.235,0c2.205,0 4.417,0.003 6.626,-0.012c1.86,-0.011 3.718,-0.033 5.579,-0.082c4.054,-0.112 8.146,-0.347 12.152,-1.069c4.016,-0.687 7.908,-1.969 11.546,-3.804c7.311,-3.722 13.256,-9.668 16.977,-16.98c1.883,-3.699 3.075,-7.485 3.808,-11.55c0.721,-4.006 0.96,-8.094 1.068,-12.149c0.049,-1.857 0.071,-3.718 0.082,-5.579c0.015,-2.208 0.012,-4.416 0.012,-6.629l0,-69.239c0,-2.208 0,-4.417 -0.012,-6.629l0.004,0Z" style="fill:#f05138;fill-rule:nonzero;"/><path d="M150.592,117.955l-0.014,-0.015c0.201,-0.699 0.411,-1.39 0.594,-2.104c7.675,-30.582 -11.061,-66.739 -42.761,-85.774c13.894,18.833 20.033,41.643 14.574,61.59c-0.486,1.782 -1.069,3.49 -1.715,5.149c-0.903,-0.582 -1.828,-1.129 -2.773,-1.641c-0.945,-0.511 -31.539,-19.468 -65.715,-53.91c-0.897,-0.905 18.224,27.331 39.927,50.26c-10.224,-5.736 -38.72,-26.472 -56.758,-42.981c2.216,3.699 4.854,7.257 7.75,10.683c15.063,19.103 34.711,42.675 58.246,60.776c-16.536,10.119 -39.902,10.904 -63.167,0.011c-5.696,-2.675 -11.114,-5.907 -16.173,-9.648c10.402,16.52 25.559,29.516 43.474,37.274c22.017,9.462 43.907,8.819 60.211,0.157l-0.011,0.019c0.075,-0.049 0.168,-0.097 0.246,-0.15c0.669,-0.355 1.334,-0.725 1.981,-1.109c7.836,-4.066 23.31,-8.192 31.613,7.966c2.037,3.958 6.36,-17.002 -9.529,-36.553Z" style="fill:#fff;fill-rule:nonzero;"/><path d="M259.173,123.814c1.446,12.829 13.684,21.24 30.679,21.24c16.147,0 27.791,-8.408 27.791,-20.051c0,-10.026 -7.055,-16.147 -23.288,-20.224l-15.721,-3.998c-22.604,-5.606 -32.802,-15.807 -32.802,-32.63c0,-20.736 18.102,-35.096 43.852,-35.096c24.98,0 42.741,14.446 43.339,35.268l-16.572,0c-1.275,-12.75 -11.644,-20.568 -27.193,-20.568c-15.385,0 -26.091,7.904 -26.091,19.458c0,9.006 6.63,14.364 22.944,18.527l13.091,3.4c25.324,6.204 35.69,16.061 35.69,33.822c0,22.608 -17.933,36.797 -46.486,36.797c-26.513,0 -44.614,-14.107 -45.974,-35.948l16.741,0l0,0.003Zm180.981,33.904l-16.655,0l-19.461,-67.812l-0.337,0l-19.379,67.812l-16.651,0l-24.644,-88.805l16.143,0l17.167,71.298l0.34,0l19.375,-71.298l15.639,0l19.543,71.298l0.34,0l17.167,-71.298l15.975,0l-24.562,88.805Zm35.313,-112.683c0,-5.351 4.424,-9.686 9.775,-9.686c5.441,0 9.858,4.335 9.858,9.686c0,5.355 -4.417,9.772 -9.858,9.772c-5.349,-0.031 -9.741,-4.423 -9.772,-9.772l-0.003,0Zm1.704,23.878l16.229,0l0,88.805l-16.229,0l0,-88.805Zm122.223,13.09l0,-13.09l-17.163,0l0,-21.244l-16.15,0l0,21.244l-31.023,0l0,-7.817c0.082,-7.904 3.139,-11.218 10.451,-11.218c2.377,0 4.757,0.258 6.712,0.598l0,-12.754c-2.839,-0.444 -5.707,-0.671 -8.58,-0.68c-17.339,0 -24.648,7.227 -24.648,23.796l0,8.071l-12.406,0l0,13.09l12.406,0l0,75.716l16.147,0l0,-75.712l30.944,0l0,52.428c0,17.166 6.54,23.792 23.538,23.792c3.655,0 7.818,-0.254 9.69,-0.677l0,-13.258c-2.031,0.251 -4.074,0.393 -6.121,0.426c-7.563,0 -10.96,-3.568 -10.96,-11.558l0,-51.153l17.163,0Z" style="fill-rule:nonzero;"/></g></svg>