<?xml version="1.0" encoding="UTF-8" standalone="no"?><!DOCTYPE svg PUBLIC "-//W3C//DTD SVG 1.1//EN" "http://www.w3.org/Graphics/SVG/1.1/DTD/svg11.dtd"><svg width="100%" height="100%" viewBox="0 0 609 146" version="1.1" xmlns="http://www.w3.org/2000/svg" xmlns:xlink="http://www.w3.org/1999/xlink" xml:space="preserve" xmlns:serif="http://www.serif.com/" style="fill-rule:evenodd;clip-rule:evenodd;stroke-linejoin:round;stroke-miterlimit:2;"><clipPath id="_clip1"><rect id="Terraform_Logo" x="3.719" y="0.158" width="603.912" height="145.301"/></clipPath><g clip-path="url(#_clip1)"><path d="M190.57,19.145l0,-7.802l-7.247,0l0,7.802l-3.527,0l0,-18.721l3.648,0l0,7.851l7.246,0l0,-7.851l3.648,0l0,18.721l-3.768,0Zm16.909,0l-2.899,0l-0.265,-0.918c-1.227,0.789 -2.649,1.224 -4.107,1.256c-2.56,0 -3.672,-1.691 -3.672,-4.01c0,-2.754 1.232,-3.792 4.107,-3.792l3.382,0l0,-1.498c0,-1.498 -0.435,-2.029 -2.682,-2.029c-1.306,0.012 -2.608,0.15 -3.889,0.411l-0.483,-2.561c1.577,-0.415 3.201,-0.626 4.831,-0.628c4.421,0 5.726,1.498 5.726,4.831l-0.049,8.938Zm-3.454,-5.097l-2.609,0c-1.16,0 -1.474,0.314 -1.474,1.329c0,1.014 0.314,1.352 1.426,1.352c0.929,-0.014 1.841,-0.254 2.657,-0.7l0,-1.981Zm10.894,5.435c-1.639,-0.026 -3.266,-0.286 -4.831,-0.773l0.483,-2.585c1.362,0.373 2.767,0.568 4.179,0.58c1.57,0 1.788,-0.338 1.788,-1.353c0,-1.014 -0.169,-1.256 -2.416,-1.763c-3.43,-0.797 -3.841,-1.643 -3.841,-4.251c0,-2.609 1.184,-3.986 5.218,-3.986c1.423,0.005 2.84,0.167 4.228,0.483l-0.339,2.681c-1.276,-0.226 -2.568,-0.355 -3.865,-0.386c-1.522,0 -1.787,0.338 -1.787,1.159c0,0.822 0,1.16 1.981,1.643c3.937,0.99 4.299,1.498 4.299,4.276c0,2.778 -0.845,4.275 -5.097,4.275Zm16.137,-0.265l0,-9.397c0,-0.725 -0.314,-1.087 -1.135,-1.087c-1.283,0.122 -2.53,0.491 -3.672,1.087l0,9.324l-3.527,0l0,-18.987l3.527,0.532l0,5.966c1.605,-0.789 3.358,-1.233 5.145,-1.304c2.416,0 3.189,1.57 3.189,3.986l0,9.807l-3.527,0.073Zm6.474,-15.412l0,-3.382l3.527,0l0,3.309l-3.527,0.073Zm0,15.412l0,-13.576l3.527,0l0,13.503l-3.527,0.073Zm6.329,-13.383c0,-3.382 2.053,-5.363 6.836,-5.363c1.757,-0.002 3.508,0.201 5.218,0.604l-0.411,3.02c-1.554,-0.287 -3.13,-0.449 -4.71,-0.484c-2.416,0 -3.31,0.822 -3.31,2.803l0,7.029c0,1.957 0.797,2.802 3.31,2.802c1.58,-0.034 3.156,-0.196 4.71,-0.483l0.411,3.02c-1.71,0.403 -3.461,0.605 -5.218,0.604c-4.831,0 -6.836,-1.957 -6.836,-5.363l0,-8.189Zm19.856,13.648c-4.831,0 -6.111,-2.56 -6.111,-5.314l0,-3.479c0,-2.778 1.304,-5.314 6.111,-5.314c4.808,0 6.112,2.56 6.112,5.314l0,3.406c0.024,2.778 -1.28,5.387 -6.112,5.387Zm0,-11.184c-1.884,0 -2.608,0.797 -2.608,2.415l0,3.624c0,1.522 0.724,2.416 2.608,2.416c1.885,0 2.609,-0.798 2.609,-2.416l0,-3.768c0,-1.522 -0.724,-2.32 -2.609,-2.32l0,0.049Zm16.04,0.217c-1.287,0.558 -2.531,1.212 -3.72,1.957l0,8.696l-3.527,0l0,-13.527l2.972,0l0.241,1.497c1.152,-0.743 2.394,-1.336 3.696,-1.763l0.338,3.14Zm14.084,6.136c0.037,0.226 0.056,0.455 0.056,0.684c0,2.293 -1.887,4.179 -4.179,4.179c-0.172,0 -0.345,-0.011 -0.515,-0.032c-1.258,-0.012 -2.511,-0.141 -3.745,-0.386l0,5.459l-3.527,0.532l0,-19.326l2.803,0l0.338,1.136c1.295,-0.929 2.85,-1.428 4.445,-1.426c2.826,0 4.324,1.619 4.324,4.687l0,4.493Zm-8.407,1.522c1.025,0.221 2.068,0.342 3.116,0.362c1.281,0 1.764,-0.58 1.764,-1.812l0,-4.831c0,-1.111 -0.435,-1.715 -1.74,-1.715c-1.156,0.042 -2.263,0.477 -3.14,1.232l0,6.764Zm-84.161,31.186l-21.475,0l0,-12.827l57.516,0l0,12.827l-21.499,0l0,64.087l-14.494,0l-0.048,-64.087Z" style="fill-rule:nonzero;"/><path d="M250.574,101.06c5.833,-0.03 11.63,-0.925 17.2,-2.658l2.198,10.629c-6.631,2.39 -13.63,3.6 -20.678,3.575c-17.658,0 -23.794,-8.189 -23.794,-21.74l0,-14.857c0,-11.885 5.314,-21.934 23.335,-21.934c18.021,0 22.055,10.508 22.055,22.635l0,12.078l-31.403,0l0,2.899c0.12,6.715 2.536,9.373 11.087,9.373Zm-10.967,-23.601l17.9,0l0,-2.851c0,-5.314 -1.618,-9.01 -8.551,-9.01c-6.933,0 -9.349,3.696 -9.349,9.01l0,2.851Zm68.943,-10.46c-5.188,2.34 -10.188,5.078 -14.953,8.189l0,36.235l-14.083,0l0,-56.212l11.885,0l0.918,6.232c4.582,-3.102 9.552,-5.588 14.783,-7.392l1.45,12.948Zm34.399,0c-5.172,2.342 -10.155,5.08 -14.905,8.189l0,36.235l-14.083,0l0,-56.212l11.885,0l0.918,6.232c4.582,-3.102 9.553,-5.588 14.784,-7.392l1.401,12.948Zm47.129,44.448l-11.547,0l-1.039,-3.817c-4.981,3.242 -10.797,4.97 -16.74,4.976c-10.267,0 -14.663,-7.053 -14.663,-16.74c0,-11.426 4.976,-15.822 16.402,-15.822l13.504,0l0,-5.895c0,-6.232 -1.74,-8.43 -10.75,-8.43c-5.239,0.059 -10.458,0.641 -15.581,1.739l-1.739,-10.75c6.295,-1.741 12.794,-2.635 19.325,-2.657c17.658,0 22.876,6.233 22.876,20.316l-0.048,37.08Zm-14.083,-21.258l-10.388,0c-4.613,0 -5.894,1.281 -5.894,5.532c0,4.252 1.281,5.653 5.653,5.653c3.73,-0.057 7.386,-1.054 10.629,-2.899l0,-8.286Zm57.371,-47.805c-2.66,-0.572 -5.371,-0.88 -8.092,-0.918c-5.532,0 -6.353,2.415 -6.353,6.691l0,7.054l14.325,0l-0.798,11.208l-13.503,0l0,45.028l-14.083,0l0,-45.028l-9.011,0l0,-11.208l9.011,0l0,-7.851c0,-11.668 5.435,-17.441 17.9,-17.441c4.081,-0.016 8.145,0.529 12.078,1.618l-1.474,10.847Zm27.49,70.222c-19.325,0 -24.47,-10.628 -24.47,-22.175l0,-14.204c0,-11.547 5.194,-22.176 24.47,-22.176c19.277,0 24.471,10.629 24.471,22.176l0,14.204c0.024,11.547 -5.194,22.175 -24.471,22.175Zm0,-46.549c-7.512,0 -10.387,3.358 -10.387,9.662l0,15.122c0,6.354 2.899,9.663 10.387,9.663c7.489,0 10.388,-3.358 10.388,-9.663l0,-15.073c0,-6.353 -2.875,-9.711 -10.388,-9.711Zm60.73,0.942c-5.172,2.342 -10.155,5.08 -14.905,8.189l0,36.235l-14.083,0l0,-56.212l11.885,0l0.918,6.232c4.582,-3.102 9.553,-5.588 14.784,-7.392l1.401,12.948Zm38.698,44.448l0,-39.254c0,-2.996 -1.28,-4.493 -4.493,-4.493c-5.161,0.613 -10.148,2.256 -14.663,4.831l0,38.916l-14.083,0l0,-56.236l10.75,0l1.377,4.831c7.019,-3.55 14.706,-5.591 22.562,-5.991c4.443,-0.418 8.7,1.991 10.629,6.015c7.027,-3.602 14.746,-5.654 22.634,-6.015c9.349,0 12.707,6.571 12.707,16.62l0,40.776l-14.084,0l0,-39.254c0,-2.996 -1.28,-4.493 -4.493,-4.493c-5.171,0.569 -10.166,2.215 -14.663,4.831l0,38.916l-14.18,0Z" style="fill-rule:nonzero;"/><path d="M91.649,48.954l0,45.728l39.617,-22.852l0,-45.776l-39.617,22.9Z" style="fill:#4040b2;fill-rule:nonzero;"/><path d="M47.684,26.054l39.617,22.9l0,45.728l-39.617,-22.876l0,-45.752Z" style="fill:#5c4ee5;fill-rule:nonzero;"/><path d="M3.719,0.52l0,45.753l39.617,22.876l0,-45.752l-39.617,-22.877Zm43.965,122.063l39.617,22.876l0,-45.752l-39.617,-22.876l0,45.752Z" style="fill:#5c4ee5;fill-rule:nonzero;"/></g></svg>